<svg width="127" height="28" viewBox="0 0 127 28" fill="none" xmlns="http://www.w3.org/2000/svg">
<path fill-rule="evenodd" clip-rule="evenodd" d="M10.7066 24.3204C11.6761 24.3204 12.5831 24.1431 13.4379 23.7991C13.4379 23.8304 15.1789 26.5304 15.2101 26.5409C13.6693 27.3664 11.9436 27.7861 10.1958 27.7606C4.84779 27.771 0.969727 24.237 0.969727 18.6179C0.969727 12.9572 5.03544 9.44402 10.1958 9.44402C12.0201 9.44402 13.4692 9.84017 14.9182 10.6116L13.2503 13.4263C12.3746 13.0823 11.478 12.9259 10.5398 12.9259C7.38104 12.9259 4.93119 14.9379 4.93119 18.6179C4.93119 22.0998 7.29764 24.3204 10.7066 24.3204ZM24.186 9.44402C29.4401 9.44402 33.2452 13.1657 33.2452 18.6179C33.2452 24.0389 29.4401 27.7606 24.1755 27.7606C18.9631 27.7606 15.158 24.0389 15.158 18.6179C15.158 13.1657 18.9631 9.44402 24.186 9.44402V9.44402ZM24.186 12.8008C21.2566 12.8008 19.1195 15.063 19.1195 18.6179C19.1195 22.1415 21.2566 24.4038 24.186 24.4038C27.1883 24.4038 29.2942 22.1415 29.2942 18.6179C29.2942 15.063 27.1883 12.8008 24.186 12.8008V12.8008ZM35.7368 27.3644V9.84017H39.6565V27.354H35.7368V27.3644ZM35.2155 4.4505C35.2562 3.82703 35.5325 3.24237 35.9884 2.81519C36.4444 2.388 37.0458 2.15029 37.6706 2.15029C38.2954 2.15029 38.8968 2.388 39.3527 2.81519C39.8087 3.24237 40.085 3.82703 40.1256 4.4505C40.1258 5.10513 39.8693 5.73374 39.4113 6.20149C38.9534 6.66923 38.3303 6.93884 37.6758 6.95247C37.0213 6.93884 36.3982 6.66923 35.9402 6.20149C35.4822 5.73374 35.2258 5.10513 35.2259 4.4505H35.2155ZM43.0759 10.9452C45.6435 9.98013 48.3602 9.47206 51.1031 9.44402C55.5858 9.44402 58.4213 11.1433 58.4213 16.0847V27.3644H54.5537V16.4496C54.5537 13.9163 52.9795 13.0093 50.8007 13.0093C49.4142 13.0093 48.0277 13.197 46.9956 13.5202V27.354H43.0863V10.9452H43.0759ZM61.7052 0.457764H65.6249V10.3093C66.4589 9.87145 68.0748 9.44402 69.6177 9.44402C74.6842 9.44402 78.4788 12.6757 78.4788 18.3052C78.4788 23.9659 74.7259 27.7606 68.2416 27.7606C65.7083 27.7606 63.4878 27.2393 61.7052 26.6138V0.457764V0.457764ZM65.6249 24.0389C66.3755 24.2787 67.3659 24.4038 68.3563 24.4038C71.9528 24.4038 74.5278 22.423 74.5278 18.3886C74.5278 14.9796 72.1092 12.9676 69.1486 12.9676C67.6057 12.9676 66.4172 13.3638 65.6249 13.8016V24.0389V24.0389ZM89.8107 15.6156C89.8107 13.7182 88.3721 12.8425 86.433 12.8425C84.421 12.8425 82.8364 13.4368 81.377 14.2708V10.8618C83.1229 9.91298 85.0819 9.42501 87.0689 9.44402C90.9053 9.44402 93.6366 11.0286 93.6366 15.4175V27.01C91.9686 27.4478 89.6022 27.7189 87.6215 27.7189C83.0762 27.7189 79.7507 26.3428 79.7507 22.3813C79.7507 18.816 82.7947 17.075 87.8612 17.075H89.8003V15.6156H89.8107ZM89.8107 19.6813H88.1427C85.4114 19.6813 83.6287 20.484 83.6287 22.2666C83.6287 24.0806 85.2967 24.7895 87.6632 24.7895C88.2574 24.7895 89.0914 24.7165 89.8003 24.6018V19.6917L89.8107 19.6813ZM96.4826 22.6211C98.0103 23.8315 99.8831 24.5251 101.831 24.6018C103.572 24.6018 104.718 24.0076 104.718 22.6211C104.718 21.1929 103.686 20.6821 101.434 20.0878C97.7857 19.2539 96.2533 17.7944 96.2533 14.7399C96.2533 11.185 98.9429 9.44402 102.508 9.44402C104.489 9.44402 106.063 9.87145 107.533 10.7888V14.3854C106.136 13.2704 104.41 12.6475 102.623 12.6132C100.924 12.6132 100.017 13.4472 100.017 14.5939C100.017 15.7407 100.757 16.3245 102.779 16.8874C106.782 17.7527 108.513 19.2539 108.513 22.4126C108.513 26.103 105.709 27.7606 101.914 27.7606C100.011 27.7986 98.1341 27.3078 96.4931 26.3428V22.6211H96.4826ZM113.882 19.4936V19.5666C114.122 22.6941 116.801 24.4038 119.542 24.4038C121.951 24.4038 123.692 23.8408 125.433 22.6941V26.1343C123.848 27.2497 121.513 27.7606 119.261 27.7606C113.798 27.7606 110.087 24.2787 110.087 18.743C110.087 13.1657 113.725 9.44402 118.552 9.44402C123.66 9.44402 126.068 12.7279 126.068 17.5129V19.4936H113.871H113.882ZM122.388 16.9604C122.305 14.2291 120.96 12.7279 118.427 12.7279C116.175 12.7279 114.518 14.3125 113.996 16.9604H122.388Z" fill="#F9FAFB"/>
</svg>
