<svg width="65" height="64" viewBox="0 0 65 64" fill="none" xmlns="http://www.w3.org/2000/svg">
<g clip-path="url(#clip0)">
<circle cx="32.7134" cy="32" r="32" fill="white"/>
<circle cx="32.7134" cy="32" r="31.5" stroke="#AAB8C1" stroke-opacity="0.4"/>
<path d="M47.056 19.5765L39.3431 27.2893C40.3273 28.6629 40.8565 30.3102 40.8565 32C40.8565 33.6898 40.3273 35.3371 39.3431 36.7107L47.056 44.4235C50.0589 40.9813 51.7134 36.568 51.7134 32C51.7134 27.432 50.0589 23.0187 47.056 19.5765ZM20.2899 17.6574L28.0027 25.3702C29.3763 24.3861 31.0236 23.8569 32.7134 23.8569C34.4031 23.8569 36.0505 24.3861 37.4241 25.3702L45.1369 17.6574C41.6947 14.6545 37.2813 13 32.7134 13C28.1454 13 23.7321 14.6545 20.2899 17.6574ZM37.4241 38.6298C36.0505 39.6139 34.4031 40.1431 32.7134 40.1431C31.0236 40.1431 29.3763 39.6139 28.0027 38.6298L20.2899 46.3426C23.7321 49.3455 28.1454 51 32.7134 51C37.2813 51 41.6947 49.3455 45.1369 46.3426L37.4241 38.6298ZM26.0836 27.2893L18.3708 19.5765C15.3679 23.0187 13.7134 27.432 13.7134 32C13.7134 36.568 15.3679 40.9813 18.3708 44.4235L26.0836 36.7107C25.0995 35.3371 24.5703 33.6898 24.5703 32C24.5703 30.3102 25.0995 28.6629 26.0836 27.2893Z" fill="#37B06F"/>
</g>
<defs>
<clipPath id="clip0">
<rect x="0.713379" width="64" height="64" fill="white"/>
</clipPath>
</defs>
</svg>
