<svg width="65" height="64" viewBox="0 0 65 64" fill="none" xmlns="http://www.w3.org/2000/svg">
<g clip-path="url(#clip0)">
<path d="M32 64C49.6731 64 64 49.6731 64 32C64 14.3269 49.6731 0 32 0C14.3269 0 0 14.3269 0 32C0 49.6731 14.3269 64 32 64Z" fill="white"/>
<path d="M63.5 32C63.5 49.397 49.397 63.5 32 63.5C14.603 63.5 0.5 49.397 0.5 32C0.5 14.603 14.603 0.5 32 0.5C49.397 0.5 63.5 14.603 63.5 32Z" stroke="#AAB8C1" stroke-opacity="0.4"/>
<path d="M44.0743 14H27.5915V36.1212H49.7127V19.7555C49.7217 16.6481 47.1817 14 44.0743 14ZM22.5296 14H19.7645C16.6571 14 14 16.531 14 19.7645V22.5296H22.5296V14ZM14 27.7086H22.5296V36.2382H14V27.7086ZM41.1921 49.8298H43.9572C47.0646 49.8298 49.7217 47.2988 49.7217 44.0653V41.3092H41.1921V49.8298ZM27.5915 41.3092H36.1212V49.8388H27.5915V41.3092ZM14 41.3092V44.0743C14 47.1817 16.531 49.8388 19.7645 49.8388H22.5296V41.3092H14Z" fill="#141E27"/>
</g>
<defs>
<clipPath id="clip0">
<rect width="64" height="64" fill="white" transform="translate(0.14209)"/>
</clipPath>
</defs>
</svg>
