<svg width="92" height="56" viewBox="0 0 92 56" fill="none" xmlns="http://www.w3.org/2000/svg">
<path d="M40.7249 39.978C41.0392 40.1224 41.2856 40.2158 41.5149 40.3432C42.942 41.0907 43.7319 42.2884 43.7319 43.8854C43.7489 47.6483 42.2454 50.5619 38.7798 52.2777C37.7265 52.7959 36.5967 53.0422 35.433 53.1102C35.2291 53.1186 35.0508 53.0847 34.8724 52.9827C32.2476 51.5472 29.6229 50.1117 26.9897 48.6931C26.7518 48.5657 26.7178 48.4468 26.7943 48.2005C28.9434 41.4815 31.0924 34.7625 33.2415 28.0435C33.3094 27.8311 33.3859 27.7207 33.6492 27.7207C36.2654 27.7547 38.8817 27.6612 41.4979 27.7802C42.2624 27.8141 43.0099 27.967 43.7319 28.2389C45.898 29.0373 46.9767 30.8126 46.7814 33.2505C46.4841 36.8011 44.5898 38.9587 40.8948 39.927C40.8524 39.944 40.8269 39.9525 40.7249 39.978ZM33.3094 49.2877C33.3094 49.2792 33.3094 49.2792 33.3094 49.2707C33.7766 49.2707 34.2438 49.2877 34.711 49.2707C35.7473 49.2283 36.6307 48.8545 37.2763 47.9966C38.0407 46.9688 38.5674 45.8475 38.7882 44.5819C39.0261 43.2398 38.4485 42.3564 37.1234 42.0251C36.138 41.7788 35.1272 41.8637 34.1249 41.8297C33.955 41.8212 33.921 41.9232 33.8785 42.0591C33.131 44.378 32.3835 46.7055 31.6276 49.0244C31.5596 49.2283 31.5936 49.3047 31.8229 49.2962C32.3241 49.2792 32.8168 49.2877 33.3094 49.2877ZM36.5797 38.1857C36.7921 38.1857 37.0044 38.1942 37.2168 38.1857C40.0879 38.1007 41.7782 36.4019 41.7358 33.6412C41.7188 32.6219 41.2601 32.0273 40.2747 31.7895C39.3149 31.5516 38.3296 31.6281 37.3612 31.6196C37.1913 31.6196 37.1573 31.73 37.1234 31.8574C36.4693 33.8876 35.8237 35.9177 35.1612 37.9393C35.0847 38.1772 35.1612 38.1942 35.365 38.1942C35.7558 38.1857 36.172 38.1942 36.5797 38.1857Z" fill="#F9FAFB"/>
<path d="M27.168 13.8917C27.6097 14.0361 27.9919 14.1381 28.3572 14.274C29.8012 14.8346 30.4383 15.7775 30.4128 17.3319C30.3958 18.7335 29.9626 20.0586 29.5464 21.3752C29.0877 22.8447 28.595 24.3057 28.629 25.8772C28.629 26.0556 28.5611 26.0811 28.4082 26.0811C26.7093 26.0811 25.0104 26.0726 23.3116 26.0895C23.0228 26.0895 23.0738 25.9451 23.0907 25.7753C23.2012 24.2293 23.6599 22.7513 24.0761 21.2733C24.3819 20.186 24.7471 19.1157 24.9255 17.9945C25.1633 16.4995 24.7386 15.9304 23.2182 15.7775C22.4537 15.701 21.6892 15.7435 20.9247 15.769C20.7038 15.7775 20.6104 15.8709 20.5509 16.0748C20.2876 16.9412 19.9988 17.7906 19.744 18.657C19.6675 18.9119 19.5826 18.9968 19.3023 18.9204C17.8752 18.5211 16.4397 18.1389 15.0042 17.7651C14.7408 17.6972 14.7154 17.5953 14.7918 17.3574C16.4992 11.9041 18.2065 6.45073 19.9054 0.997394C19.9818 0.75106 20.0923 0.683105 20.3471 0.683105C22.5556 0.6916 24.7641 0.674611 26.9726 0.700094C28.3232 0.717083 29.6483 0.937934 30.88 1.52404C32.6893 2.38196 33.6152 3.8175 33.7256 5.80517C33.802 7.14726 33.6237 8.46388 33.0885 9.70405C31.9843 12.2438 29.9711 13.5435 27.168 13.8917ZM21.9015 11.7936C22.8359 11.7936 23.7193 11.7767 24.6027 11.7936C25.4946 11.8106 26.2336 11.4879 26.8282 10.8508C27.89 9.71254 28.4082 8.32797 28.5186 6.7905C28.6035 5.62679 28.0429 4.96423 26.8877 4.76037C26.0128 4.60747 25.1379 4.7094 24.263 4.67542C24.0251 4.66693 24.0336 4.83682 23.9911 4.97273C23.6853 5.95806 23.388 6.9434 23.0907 7.92025C22.7085 9.20288 22.3093 10.477 21.9015 11.7936Z" fill="#F9FAFB"/>
<path d="M40.572 16.6866C42.2624 16.6866 43.8678 16.6781 45.4817 16.6951C45.796 16.6951 45.7705 16.5167 45.7705 16.3129C45.7705 15.0982 45.8045 13.8835 45.8639 12.6603C45.9659 10.5792 46.1528 8.5151 46.3821 6.44249C46.4076 6.23013 46.467 6.17916 46.6709 6.24712C48.047 6.67183 49.4231 7.08805 50.8076 7.49578C51.037 7.56374 51.0625 7.69115 51.054 7.89501C51.02 9.23711 50.9945 10.5792 50.9605 11.9298C50.8501 16.5677 50.7397 21.2141 50.6377 25.852C50.6292 26.1578 50.5188 26.1832 50.264 26.1832C48.7095 26.1747 47.1466 26.1747 45.5921 26.1832C45.2948 26.1832 45.2184 26.1153 45.2354 25.8095C45.3118 24.255 45.3543 22.7006 45.4307 21.1461C45.4477 20.8233 45.3883 20.7129 45.04 20.7214C43.0014 20.7384 40.9627 20.7384 38.9241 20.7299C38.6608 20.7299 38.5249 20.8148 38.406 21.0442C37.565 22.6581 36.7071 24.2635 35.8662 25.8774C35.7727 26.0473 35.7048 26.1747 35.4669 26.1747C33.7086 26.1662 31.9588 26.1662 30.2005 26.1662C30.1155 26.0133 30.2429 25.9284 30.3024 25.8265C34.1758 18.9461 38.0492 12.0657 41.9141 5.18533C42.05 4.94749 42.1689 4.87954 42.4322 4.96448C43.4431 5.28726 44.4539 5.59306 45.4732 5.88186C45.762 5.96681 45.796 6.06024 45.6686 6.33206C44.1651 9.67882 42.5257 12.9661 40.8183 16.2109C40.7419 16.3468 40.6739 16.4827 40.572 16.6866Z" fill="#F9FAFB"/>
<path d="M47.8772 42.0592C47.9027 42.0592 47.8263 42.0507 47.7583 42.0677C47.495 42.1101 47.444 42.0337 47.529 41.7789C48.0046 40.3603 48.4463 38.9333 48.922 37.5147C51.9885 28.4173 54.6642 19.201 57.3993 10.0102C57.5098 9.64492 57.6287 9.58546 57.9769 9.69589C59.4804 10.1716 61.0009 10.6303 62.5129 11.0635C62.8527 11.1654 62.7422 11.3268 62.6828 11.5307C60.6017 18.0968 58.5206 24.6543 56.4395 31.2204C55.3777 34.5672 54.3074 37.914 53.2541 41.2692C53.1692 41.541 53.0587 41.6854 52.7445 41.7024C51.1645 41.8043 49.5676 41.9318 47.8772 42.0592Z" fill="#F9FAFB"/>
<path d="M6.71383 4.94769C4.64971 4.94769 2.61958 4.94769 0.521484 4.94769C0.699865 4.38707 0.861256 3.86042 1.03114 3.32528C1.26049 2.58627 1.50682 1.84727 1.71918 1.09977C1.79563 0.819461 1.93154 0.743012 2.22034 0.743012C5.23582 0.751506 8.2513 0.743012 11.2583 0.734518C13.6367 0.734518 16.0151 0.734518 18.3935 0.717529C18.7078 0.717529 18.8097 0.751506 18.6993 1.09977C18.3085 2.26349 17.9433 3.4357 17.595 4.60792C17.5186 4.87124 17.3912 4.93919 17.1278 4.93919C15.5819 4.92221 14.0444 4.93919 12.4984 4.9307C12.2011 4.9307 12.0652 5.00715 11.9803 5.30445C10.9185 8.75313 9.83973 12.2018 8.76945 15.659C8.6845 15.9393 8.59956 16.0667 8.25979 15.9648C6.85823 15.5656 5.45667 15.1833 4.04662 14.8351C3.70685 14.7501 3.67287 14.6397 3.76631 14.3339C4.72616 11.3354 5.66903 8.33691 6.6119 5.32993C6.64587 5.21951 6.67136 5.09209 6.71383 4.94769Z" fill="#F9FAFB"/>
<path d="M79.3401 41.3373C79.8158 41.2948 80.2915 41.2523 80.7587 41.2184C82.2791 41.1249 83.7996 41.04 85.3201 40.9296C85.6174 40.9126 85.8128 41.0145 86.0166 41.2269C87.4777 42.6879 87.8769 44.4462 87.4861 46.4084C87.1124 48.2686 86.3309 49.959 85.2012 51.4625C84.1224 52.898 82.6274 53.722 80.8521 54.0447C78.72 54.427 76.588 54.4949 74.4729 53.9343C72.6636 53.4501 71.313 52.4393 70.8628 50.5111C70.625 49.4833 70.7099 48.4555 70.9563 47.4447C71.0837 46.935 71.262 46.4508 71.4149 45.9497C71.4659 45.7798 71.5509 45.6864 71.7462 45.6864C73.4875 45.6864 75.2204 45.6864 77.0212 45.6864C76.7918 46.1875 76.588 46.6462 76.4775 47.1474C76.3671 47.674 76.2567 48.1922 76.3416 48.7358C76.5115 49.8486 77.344 50.5026 78.4737 50.3667C80.4104 50.1374 82.3131 48.1582 82.3471 46.23C82.3641 45.0748 81.9139 44.03 81.1919 43.1126C80.7417 42.5435 80.198 42.0763 79.6119 41.6516C79.5185 41.5751 79.3826 41.5242 79.3401 41.3373Z" fill="#F9FAFB"/>
<path d="M77.1654 27.8142C76.953 28.4768 76.7492 29.1393 76.5368 29.7934C76.3414 30.4135 76.1291 31.025 75.9592 31.6536C75.8828 31.9339 75.7468 31.9934 75.4835 31.9934C73.9376 31.9849 72.4001 31.9934 70.8541 31.9764C70.5483 31.9764 70.4209 32.0698 70.3275 32.3586C69.4865 35.0768 68.6116 37.795 67.7792 40.5132C67.6773 40.8529 67.5244 40.9719 67.1761 40.9889C65.6471 41.0738 64.1266 41.1757 62.6062 41.3031C62.2409 41.3286 62.2239 41.2352 62.3174 40.9209C63.2093 38.0923 64.0757 35.2637 64.9676 32.4351C65.078 32.0868 65.0695 31.9594 64.6363 31.9679C62.8525 31.9934 61.0687 31.9679 59.2849 31.9849C58.9281 31.9849 58.8942 31.9 58.9961 31.5772C59.3868 30.4135 59.7521 29.2412 60.1088 28.069C60.1683 27.8652 60.2448 27.7717 60.4741 27.7717C65.9784 27.7802 71.4827 27.7802 76.987 27.7802C77.038 27.7802 77.0804 27.7972 77.1654 27.8142Z" fill="#F9FAFB"/>
<path d="M84.8189 39.6978C83.6807 39.7742 82.6444 39.8507 81.5996 39.9186C80.5378 39.9866 79.4845 40.046 78.4227 40.131C78.1764 40.148 77.981 40.1055 77.7856 39.9696C76.7493 39.2306 76.0868 38.2028 76.0273 36.9626C75.9084 34.4823 76.5455 32.1973 78.2104 30.2861C79.3826 28.9355 80.8776 28.1286 82.6189 27.7633C84.666 27.3386 86.7047 27.432 88.6753 28.137C90.2213 28.6892 91.368 29.666 91.7758 31.3394C91.9287 31.9765 91.9541 32.622 91.8267 33.2761C91.6738 34.0406 91.453 34.7796 91.1981 35.5186C91.1302 35.7225 91.0198 35.7904 90.7989 35.7904C89.2699 35.7819 87.741 35.7819 86.212 35.7904C85.9317 35.7904 85.9147 35.7055 85.9996 35.4676C86.178 34.9495 86.3819 34.4398 86.5008 33.8962C86.5857 33.5054 86.6027 33.1062 86.5433 32.7155C86.4583 32.1548 86.144 31.7726 85.5919 31.5857C84.3008 31.161 83.0861 31.5602 82.3981 32.7325C81.5401 34.1765 81.3617 35.629 82.466 37.073C83.154 37.9904 83.893 38.8568 84.8189 39.6978Z" fill="#F9FAFB"/>
<path d="M67.5585 26.1322C65.5793 26.1322 63.6002 26.1237 61.6125 26.1407C61.2387 26.1407 61.2387 26.0388 61.3322 25.7415C62.7507 21.2905 64.1608 16.8395 65.5538 12.3885C65.6473 12.0912 65.7492 12.0317 66.0465 12.1251C67.4566 12.5753 68.8751 13.0085 70.3022 13.4163C70.6249 13.5097 70.6844 13.6031 70.5825 13.9259C69.7585 16.4742 68.9601 19.031 68.1361 21.5878C68.0172 21.9615 68.0936 22.021 68.4674 22.0125C70.574 21.9955 72.6806 22.004 74.7956 21.987C75.1949 21.987 75.2288 22.0805 75.1099 22.4372C74.7192 23.5585 74.3539 24.6882 73.9972 25.8179C73.9207 26.0643 73.8103 26.1407 73.5555 26.1407C71.5593 26.1322 69.5632 26.1322 67.567 26.1322C67.5585 26.1152 67.5585 26.1237 67.5585 26.1322Z" fill="#F9FAFB"/>
<path d="M66.7258 42.3481C67.1675 42.2631 67.244 42.3736 67.1421 42.6963C66.454 44.8624 65.783 47.0284 65.1119 49.1945C65.0525 49.3814 64.9505 49.4663 64.7721 49.5258C63.0138 50.0439 61.2555 50.5621 59.4972 51.0887C59.3868 51.1227 59.2763 51.1991 59.1744 51.1227C59.0555 51.0293 59.1659 50.9103 59.1999 50.8169C60.0153 48.2176 60.8393 45.6269 61.6547 43.0276C61.7142 42.8323 61.7737 42.6794 62.037 42.6624C63.6339 42.5519 65.2393 42.4415 66.7258 42.3481Z" fill="#F9FAFB"/>
<path d="M73.2072 5.66956C73.0712 6.10277 72.9353 6.53598 72.8079 6.9607C72.2898 8.61709 71.7716 10.2735 71.2705 11.9384C71.194 12.1932 71.1091 12.2696 70.8288 12.1847C69.3762 11.726 67.9152 11.2928 66.4542 10.8596C66.1994 10.7831 66.1739 10.6812 66.2503 10.4349C66.9044 8.37925 67.5415 6.31513 68.1785 4.25102C68.3229 3.79233 68.4758 3.33363 68.6032 2.87494C68.6627 2.65409 68.7476 2.60312 68.9515 2.73903C70.3106 3.63093 71.6697 4.51434 73.0288 5.40624C73.1137 5.4742 73.2241 5.53366 73.2072 5.66956Z" fill="#F9FAFB"/>
<path d="M14.6729 26.3447C13.8915 26.3447 13.1185 26.3363 12.337 26.3532C12.0142 26.3617 11.9548 26.2768 12.0567 25.971C12.8042 23.72 13.5432 21.469 14.2652 19.2095C14.3332 18.9887 14.4266 18.9717 14.6305 19.0227C16.1 19.4219 17.5695 19.8211 19.039 20.2034C19.2684 20.2628 19.2514 20.3563 19.2004 20.5262C18.6058 22.3779 18.0112 24.2382 17.4421 26.0984C17.3656 26.3363 17.2382 26.3617 17.0429 26.3617C16.2529 26.3532 15.4629 26.3532 14.6729 26.3447C14.6729 26.3532 14.6729 26.3532 14.6729 26.3447Z" fill="#F9FAFB"/>
<path d="M51.3003 1.98413C51.3003 4.38281 51.2324 5.87364 51.2324 5.87364C51.2324 6.20492 51.139 6.24739 50.8332 6.15395C48.1999 5.34699 45.5667 4.55702 42.9335 3.77555C42.5852 3.67362 42.5427 3.56319 42.7381 3.27439C42.9335 2.98558 43.0703 2.66807 43.2393 2.34851C43.4884 1.87724 43.7659 1.66896 44.2756 1.57553C46.5096 1.15931 48.7266 0.709108 50.9521 0.250416C51.2579 0.190956 51.3088 0.230469 51.3088 0.539222C51.3088 0.976669 51.3003 1.81337 51.3003 1.81337C51.3003 1.51804 51.3003 1.92198 51.3003 1.98413Z" fill="#F9FAFB"/>
<path d="M5.89862 24.9176C4.78587 23.7539 3.76655 22.5817 2.62832 21.5199C1.96576 20.8998 1.88931 20.3562 2.19511 19.5492C2.60283 18.5044 2.87465 17.4002 3.19744 16.3214C3.2569 16.1175 3.33334 16.0666 3.5542 16.126C5.02371 16.5338 6.49322 16.9245 7.96274 17.3152C8.14961 17.3662 8.26853 17.3832 8.19208 17.638C7.44458 20.0079 6.72257 22.3778 5.98356 24.7477C5.96658 24.7902 5.94109 24.8242 5.89862 24.9176Z" fill="#F9FAFB"/>
<path d="M21.7658 35.8158C21.46 35.7819 21.1457 35.7734 20.8399 35.7139C19.6337 35.4676 19.107 34.7625 19.3958 33.5818C19.7356 32.1888 20.1264 30.7957 20.7549 29.4961C21.4939 27.9501 23.6005 27.381 25.087 28.2729C25.6731 28.6297 25.911 29.1733 25.8005 29.8274C25.5202 31.4158 24.9936 32.9448 24.348 34.4143C23.8978 35.4336 23.1248 35.8073 21.7658 35.8158ZM21.7063 34.6266C22.3434 34.6096 22.6831 34.3293 22.8615 33.8791C23.3712 32.5965 23.7959 31.2799 24.1357 29.9378C24.2631 29.4281 23.9148 29.0629 23.3882 29.0714C22.819 29.0799 22.4538 29.3941 22.2584 29.8868C21.7912 31.0505 21.4175 32.2482 21.0777 33.4544C21.0437 33.5733 21.0352 33.7092 21.0352 33.8367C21.0352 34.3463 21.3241 34.6266 21.7063 34.6266Z" fill="#F9FAFB"/>
<path d="M33.5131 53.8321C31.8737 54.07 30.2598 54.3078 28.6459 54.5372C27.3632 54.724 26.0721 54.8769 24.7895 55.0893C24.4072 55.1488 24.4582 55.0298 24.5431 54.775C25.0698 53.2121 25.5879 51.6406 26.1061 50.0692C26.174 49.8653 26.2335 49.7634 26.4798 49.8993C28.7903 51.1819 31.1092 52.4561 33.4282 53.7302C33.4536 53.7302 33.4706 53.7727 33.5131 53.8321Z" fill="#F9FAFB"/>
<path d="M24.9937 35.697C25.4863 34.0916 25.9705 32.5371 26.4547 30.9742C26.735 30.0738 27.0153 29.1734 27.2871 28.2645C27.3551 28.0436 27.4315 27.9162 27.7118 27.9247C28.8246 27.9417 29.9458 27.9417 31.0671 27.9247C31.3304 27.9247 31.4153 27.9587 31.3219 28.2475C31.0246 29.1904 31.0331 29.1989 30.0223 29.1989C29.6655 29.1989 29.3172 29.1989 28.9605 29.1989C28.7906 29.1989 28.6717 29.2243 28.6207 29.4197C28.5018 29.8529 28.3489 30.2776 28.213 30.7108C28.179 30.8128 28.1535 30.9232 28.1111 31.0846C28.7566 31.0846 29.3682 31.0931 29.9798 31.0761C30.2431 31.0676 30.2856 31.1441 30.2176 31.3904C29.9458 32.3502 29.9543 32.3502 28.9435 32.3587C28.5358 32.3587 28.0261 32.1889 27.7458 32.4267C27.491 32.6475 27.474 33.1487 27.3551 33.5225C27.1597 34.1425 26.9558 34.7541 26.7775 35.3827C26.7095 35.6121 26.6246 35.7055 26.3782 35.697C25.928 35.68 25.4778 35.697 24.9937 35.697Z" fill="#F9FAFB"/>
</svg>
