<svg width="64" height="64" viewBox="0 0 64 64" fill="none" xmlns="http://www.w3.org/2000/svg">
<path d="M32 64C49.6731 64 64 49.6731 64 32C64 14.3269 49.6731 0 32 0C14.3269 0 0 14.3269 0 32C0 49.6731 14.3269 64 32 64Z" fill="#242424"/>
<path fill-rule="evenodd" clip-rule="evenodd" d="M26.1159 17L39.3382 17C39.5002 17 39.652 17.0792 39.7447 17.2121L49.0951 30.621C49.2516 30.8455 49.1965 31.1544 48.9721 31.3109C48.8889 31.3689 48.79 31.4 48.6886 31.4L35.4663 31.4C35.3043 31.4 35.1525 31.3208 35.0599 31.1879L25.7095 17.779C25.5529 17.5545 25.608 17.2456 25.8325 17.0891C25.9156 17.0311 26.0146 17 26.1159 17Z" fill="white"/>
<path fill-rule="evenodd" clip-rule="evenodd" d="M23.3321 18.3664L14.9038 30.5684C14.7482 30.7936 14.8047 31.1022 15.0299 31.2578C15.1126 31.3149 15.2109 31.3456 15.3115 31.3456L28.3795 31.3456C28.5423 31.3456 28.6947 31.2656 28.7872 31.1317C29.4835 30.1237 30.1797 29.1158 30.8759 28.1079C28.6331 24.8608 26.3903 21.6136 24.1476 18.3664C23.992 18.1412 23.6834 18.0848 23.4582 18.2403C23.4089 18.2744 23.3662 18.3171 23.3321 18.3664Z" fill="white"/>
<path fill-rule="evenodd" clip-rule="evenodd" d="M26.1159 47H39.3382C39.5002 47 39.652 46.9208 39.7447 46.7879L49.0951 33.379C49.2516 33.1545 49.1965 32.8456 48.9721 32.6891C48.8889 32.6311 48.79 32.6 48.6886 32.6L35.4663 32.6C35.3043 32.6 35.1525 32.6792 35.0599 32.8121L25.7095 46.221C25.5529 46.4455 25.608 46.7544 25.8325 46.9109C25.9156 46.9689 26.0146 47 26.1159 47Z" fill="white"/>
<path fill-rule="evenodd" clip-rule="evenodd" d="M23.3321 45.6336L14.9038 33.4316C14.7482 33.2064 14.8047 32.8978 15.0299 32.7422C15.1126 32.6851 15.2109 32.6544 15.3115 32.6544H28.3795C28.5423 32.6544 28.6947 32.7344 28.7872 32.8683C29.4835 33.8763 30.1797 34.8842 30.8759 35.8921C28.6331 39.1392 26.3903 42.3864 24.1476 45.6336C23.992 45.8588 23.6834 45.9152 23.4582 45.7597C23.4089 45.7256 23.3662 45.6829 23.3321 45.6336Z" fill="white"/>
</svg>
