<svg width="170" height="28" viewBox="0 0 170 28" fill="none" xmlns="http://www.w3.org/2000/svg">
<g clip-path="url(#clip0)">
<path d="M23.8597 26.8934V19.9343H16.356C14.3154 19.9343 12.4252 21.0162 11.38 22.7825L8.94739 26.8934H23.8597Z" fill="white"/>
<path d="M0 0.0512695V7.01033H19.7454L23.8596 0.0512695H0Z" fill="white"/>
<path d="M9.70947 11.1046L0 26.8933H8.27224L19.883 8.00439H15.3151C13.0174 8.00439 10.8888 9.18166 9.70947 11.1046Z" fill="white"/>
<path d="M40.8302 20.7225C36.7808 20.7225 33.8011 17.7349 33.8011 13.7259C33.8011 9.75534 36.7999 6.72927 40.8493 6.72927C44.8986 6.72927 47.8974 9.79389 47.8974 13.7259C47.8974 17.6964 44.8795 20.7225 40.8302 20.7225ZM40.8493 18.2746C43.4088 18.2746 45.2424 16.3472 45.2424 13.7259C45.2424 11.1431 43.4088 9.17711 40.8493 9.17711C38.2707 9.17711 36.437 11.1431 36.437 13.7259C36.437 16.3472 38.2707 18.2746 40.8493 18.2746ZM50.609 24.905V10.3336H53.0539V11.625H53.1876C53.455 11.2009 54.3718 10.083 56.2055 10.083C59.0133 10.083 60.9424 12.2032 60.9424 15.3642C60.9424 18.5252 59.0324 20.7225 56.2819 20.7225C54.5055 20.7225 53.5505 19.7202 53.2258 19.1612H53.0921V24.905H50.609ZM55.728 18.4481C57.3324 18.4481 58.4212 17.1953 58.4212 15.4027C58.4212 13.5524 57.3324 12.3574 55.7089 12.3574C54.0662 12.3574 53.0348 13.6873 53.0348 15.4027C53.0348 17.2916 54.1808 18.4481 55.728 18.4481ZM68.0472 20.7225C65.0866 20.7225 62.9855 18.4866 62.9855 15.4606C62.9855 12.261 65.1057 10.083 68.0472 10.083C71.2752 10.083 73.0324 12.4923 73.0324 15.3449V16.1352H65.3922C65.4686 17.6771 66.5191 18.7179 68.1236 18.7179C69.346 18.7179 70.2819 18.1397 70.6257 17.3109H72.9369C72.4403 19.3733 70.6449 20.7225 68.0472 20.7225ZM65.4304 14.3619H70.6639C70.5493 12.9934 69.4988 12.0875 68.0472 12.0875C66.6528 12.0875 65.5832 13.0898 65.4304 14.3619ZM75.7058 20.4719V10.3336H78.0743V11.5671H78.208C78.6091 10.8154 79.6023 10.083 81.0349 10.083C83.2888 10.083 84.664 11.6828 84.664 13.8415V20.4719H82.1809V14.4968C82.1809 13.2633 81.3978 12.4345 80.2518 12.4345C79.0484 12.4345 78.1889 13.3982 78.1889 14.6703V20.4719H75.7058ZM87.1273 20.4719V18.1782L94.0799 9.33131V9.19639H87.3756V6.97983H97.2506V9.25421L90.298 18.1011V18.2553H97.2888V20.4719H87.1273ZM104.012 20.7225C101.051 20.7225 98.9499 18.4866 98.9499 15.4606C98.9499 12.261 101.07 10.083 104.012 10.083C107.24 10.083 108.997 12.4923 108.997 15.3449V16.1352H101.357C101.433 17.6771 102.483 18.7179 104.088 18.7179C105.31 18.7179 106.246 18.1397 106.59 17.3109H108.901C108.405 19.3733 106.609 20.7225 104.012 20.7225ZM101.395 14.3619H106.628C106.514 12.9934 105.463 12.0875 104.012 12.0875C102.617 12.0875 101.548 13.0898 101.395 14.3619ZM111.67 24.905V10.3336H114.115V11.625H114.249C114.516 11.2009 115.433 10.083 117.267 10.083C120.074 10.083 122.004 12.2032 122.004 15.3642C122.004 18.5252 120.094 20.7225 117.343 20.7225C115.567 20.7225 114.612 19.7202 114.287 19.1612H114.153V24.905H111.67ZM116.789 18.4481C118.394 18.4481 119.482 17.1953 119.482 15.4027C119.482 13.5524 118.394 12.3574 116.77 12.3574C115.127 12.3574 114.096 13.6873 114.096 15.4027C114.096 17.2916 115.242 18.4481 116.789 18.4481ZM124.677 24.905V10.3336H127.122V11.625H127.256C127.523 11.2009 128.44 10.083 130.273 10.083C133.081 10.083 135.01 12.2032 135.01 15.3642C135.01 18.5252 133.1 20.7225 130.35 20.7225C128.574 20.7225 127.618 19.7202 127.294 19.1612H127.16V24.905H124.677ZM129.796 18.4481C131.4 18.4481 132.489 17.1953 132.489 15.4027C132.489 13.5524 131.4 12.3574 129.777 12.3574C128.134 12.3574 127.103 13.6873 127.103 15.4027C127.103 17.2916 128.249 18.4481 129.796 18.4481ZM142.115 20.7225C139.155 20.7225 137.054 18.4866 137.054 15.4606C137.054 12.261 139.174 10.083 142.115 10.083C145.343 10.083 147.1 12.4923 147.1 15.3449V16.1352H139.46C139.537 17.6771 140.587 18.7179 142.192 18.7179C143.414 18.7179 144.35 18.1397 144.694 17.3109H147.005C146.508 19.3733 144.713 20.7225 142.115 20.7225ZM139.498 14.3619H144.732C144.617 12.9934 143.567 12.0875 142.115 12.0875C140.721 12.0875 139.651 13.0898 139.498 14.3619ZM152.219 20.4719C150.461 20.4719 149.468 19.4118 149.468 17.6193V6.01611H151.951V17.388C151.951 17.9662 152.238 18.2746 152.754 18.2746H153.155V20.4719H152.219ZM156.783 8.98437C155.885 8.98437 155.255 8.42541 155.255 7.51951C155.255 6.65217 155.885 6.07394 156.783 6.07394C157.681 6.07394 158.311 6.65217 158.311 7.51951C158.311 8.42541 157.681 8.98437 156.783 8.98437ZM155.542 20.4719V10.3336H158.025V20.4719H155.542ZM161.042 20.4719V10.3336H163.41V11.5671H163.544C163.945 10.8154 164.938 10.083 166.371 10.083C168.625 10.083 170 11.6828 170 13.8415V20.4719H167.517V14.4968C167.517 13.2633 166.734 12.4345 165.588 12.4345C164.384 12.4345 163.525 13.3982 163.525 14.6703V20.4719H161.042Z" fill="white"/>
</g>
<defs>
<clipPath id="clip0">
<rect y="0.0512695" width="170" height="27" fill="white"/>
</clipPath>
</defs>
</svg>
