<svg width="120" height="39" viewBox="0 0 120 39" fill="none" xmlns="http://www.w3.org/2000/svg">
<path d="M5.04413 13.7082C5.65037 13.7082 6.25661 13.7082 6.86286 13.7082C6.86286 14.0719 6.86286 14.3144 6.86286 14.5569C4.68038 14.5569 2.4979 14.5569 0.31543 14.5569C0.31543 14.3144 0.31543 13.9507 0.31543 13.7082C0.921673 13.7082 1.52792 13.7082 2.13416 13.7082C2.13416 13.4657 2.13416 13.3444 2.13416 13.2232C2.13416 9.5857 2.13416 6.06949 2.13416 2.43203C2.13416 2.06829 2.01291 1.94704 1.64916 1.94704C1.16417 1.94704 0.800424 1.94704 0.31543 1.94704C0.31543 1.58329 0.31543 1.3408 0.31543 0.977051C0.436678 0.977051 0.557927 0.977051 0.679176 0.977051C2.86165 0.977051 5.04413 0.977051 7.34785 0.977051C8.19659 0.977051 9.04533 1.0983 9.77282 1.3408C11.3491 1.94704 12.319 3.40202 12.1978 5.0995C12.0765 6.79698 10.9853 8.00947 9.28783 8.37322C8.07534 8.61571 6.86285 8.61571 5.77162 8.61571C5.16537 8.61571 4.92288 8.73696 4.92288 9.22196C4.92288 10.5557 4.92288 11.7682 4.92288 13.1019C5.04413 13.2232 5.04413 13.4657 5.04413 13.7082ZM4.92288 1.82579C4.92288 3.88702 4.92288 5.827 4.92288 7.64573C5.77162 7.64573 6.62036 7.76697 7.4691 7.64573C8.56034 7.52448 8.92408 7.03948 9.04533 5.94824C9.04533 5.0995 9.04533 4.37201 9.04533 3.52327C8.92408 2.67453 8.43909 2.18954 7.59035 2.06829C6.74161 1.94704 5.89287 1.94704 4.92288 1.82579Z" fill="#F9FAFB"/>
<path d="M26.9887 25.5795C27.2311 25.337 27.5949 24.9732 28.0799 24.6095C28.2011 24.4882 28.4436 24.367 28.5649 24.4882C28.6861 24.4882 28.8074 24.852 28.8074 24.9732C28.8074 26.4282 28.8074 27.8832 28.8074 29.3382C28.8074 29.5807 28.8074 29.8232 28.3224 29.8232C27.9586 29.8232 27.7161 29.8232 27.5949 29.3382C27.4736 28.7319 27.3524 28.0044 26.9887 27.3982C26.3824 26.0644 25.4124 25.2157 23.8362 25.337C22.26 25.337 20.9262 25.9432 20.0775 27.5194C19.835 27.8832 19.7137 28.3682 19.5925 28.8532C19.35 30.7931 19.2287 32.7331 19.7137 34.6731C20.1987 36.7343 22.0175 37.9468 24.1999 37.7043C26.0187 37.4618 27.4736 36.0068 27.5949 33.9456C27.5949 33.5819 27.8374 33.4606 28.2011 33.4606C28.5649 33.4606 28.5649 33.7031 28.5649 34.0669C28.4436 36.1281 26.8674 37.9468 24.8062 38.5531C22.6237 39.038 19.2287 38.4318 17.5313 35.6431C16.44 33.8244 16.1975 31.8844 16.6825 29.8232C17.5313 25.4582 21.8962 24.0032 24.6849 24.7307C25.5337 24.852 26.2612 25.2157 26.9887 25.5795Z" fill="#F9FAFB"/>
<path d="M74.3962 1.34033C74.3962 1.58283 74.3962 1.82533 74.3962 2.18907C73.9112 2.18907 73.5475 2.18907 73.0625 2.18907C72.6987 2.18907 72.5775 2.31032 72.5775 2.67407C72.5775 4.0078 72.5775 5.46278 72.5775 6.79652C72.5775 7.03902 72.5775 7.28151 72.9412 7.28151C74.3962 7.28151 75.8512 7.28151 77.3062 7.28151C77.3062 5.58403 77.3062 4.0078 77.3062 2.18907C76.6999 2.18907 76.0937 2.18907 75.4875 2.18907C75.4875 1.82533 75.4875 1.58283 75.4875 1.34033C77.5487 1.34033 79.7312 1.34033 81.7924 1.34033C81.7924 1.58283 81.7924 1.82533 81.7924 2.18907C81.3074 2.18907 80.9436 2.18907 80.4586 2.18907C80.0949 2.18907 79.9736 2.31032 79.9736 2.67407C79.9736 6.19028 79.9736 9.82773 79.9736 13.3439C79.9736 13.7077 80.0949 13.8289 80.4586 13.7077C80.8224 13.7077 81.1861 13.7077 81.4286 13.7077C81.7924 13.7077 81.7924 13.9502 81.7924 14.1927C81.7924 14.5564 81.6711 14.5564 81.4286 14.5564C79.4887 14.5564 77.5487 14.5564 75.6087 14.5564H75.4875C75.245 13.7077 75.3662 13.7077 76.0937 13.7077C76.3362 13.7077 76.6999 13.7077 76.9424 13.7077H77.0637C77.0637 13.5864 77.0637 13.4652 77.0637 13.3439C77.0637 11.7677 77.0637 10.3127 77.0637 8.7365C77.0637 8.37275 76.9424 8.13025 76.4574 8.2515C75.245 8.2515 74.0325 8.2515 72.6987 8.2515C72.335 8.2515 72.2137 8.37275 72.2137 8.7365C72.2137 10.3127 72.2137 11.7677 72.2137 13.3439C72.2137 13.7077 72.335 13.8289 72.6987 13.8289C72.9412 13.8289 73.1837 13.8289 73.305 13.8289C74.0325 13.8289 74.0325 13.8289 74.0325 14.6777C71.9712 14.6777 69.7888 14.6777 67.7275 14.6777C67.7275 14.4352 67.7275 14.1927 67.7275 13.8289C68.0913 13.8289 68.5763 13.8289 69.0613 13.8289C69.425 13.8289 69.5463 13.7077 69.5463 13.3439C69.5463 9.82773 69.5463 6.31153 69.5463 2.67407C69.5463 2.31032 69.425 2.18907 69.0613 2.18907C68.6975 2.18907 68.2125 2.18907 67.7275 2.18907C67.7275 1.94658 67.7275 1.70408 67.7275 1.34033C70.1525 1.34033 72.2137 1.34033 74.3962 1.34033Z" fill="#F9FAFB"/>
<path d="M14.6221 7.88827C14.7433 5.7058 15.2283 3.88707 16.9258 2.31084C19.472 0.00711347 25.2919 0.249611 26.7469 5.2208C27.3532 7.28203 27.3532 9.34326 26.3832 11.2832C25.2919 13.7082 22.7457 15.0419 19.957 14.6782C17.2895 14.3145 15.3496 12.4957 14.8646 9.82825C14.7433 9.22201 14.6221 8.61577 14.6221 7.88827ZM17.6533 7.76702C17.6533 8.49452 17.6533 9.22201 17.7745 9.9495C17.8958 11.2832 18.2595 12.3745 19.2295 13.3445C20.1995 14.3144 21.7757 14.3144 22.6245 13.3445C23.1095 12.7382 23.5945 12.0107 23.837 11.2832C24.322 9.58575 24.322 7.88827 24.0795 6.19079C23.9582 5.34205 23.837 4.49331 23.4732 3.76582C22.9882 2.67458 22.1395 1.94709 20.8057 1.94709C19.5933 1.94709 18.7445 2.67458 18.2595 3.76582C17.532 4.85706 17.6533 6.31204 17.6533 7.76702Z" fill="#F9FAFB"/>
<path d="M105.92 2.19313C105.92 1.82939 105.92 1.70814 105.92 1.34439C106.162 1.34439 106.405 1.34439 106.768 1.34439C107.738 1.34439 108.83 1.34439 109.8 1.34439C110.285 1.34439 110.648 1.46564 110.891 1.95064C112.831 4.61811 114.771 7.28558 116.711 9.95305C116.711 9.8318 116.711 9.95305 116.953 10.0743C116.953 9.8318 117.075 9.71055 117.075 9.5893C117.075 7.40682 117.075 5.1031 117.075 2.92063C117.075 2.43563 116.953 2.19313 116.468 2.19313C116.105 2.19313 115.741 2.19313 115.256 2.07188C115.256 1.82939 115.256 1.58689 115.256 1.22314C116.832 1.22314 118.287 1.22314 119.863 1.22314C119.863 1.46564 119.863 1.70814 119.863 2.07188C119.378 2.07188 119.136 2.19313 118.772 2.19313C118.287 2.19313 118.044 2.43563 118.044 3.04187C118.044 6.67933 118.044 10.3168 118.044 13.9542C118.044 14.1967 117.923 14.5605 117.681 14.5605C117.438 14.5605 117.196 14.4392 116.953 14.318C116.832 14.318 116.832 14.1967 116.832 14.0755C114.65 11.0443 112.467 8.01307 110.163 4.98185C109.8 4.37561 109.315 3.89061 108.83 3.16312C108.83 3.40562 108.83 3.64812 108.83 3.76937C108.83 6.80058 108.83 9.8318 108.83 12.863C108.83 13.4693 108.951 13.7118 109.557 13.7118C109.678 13.7118 109.8 13.7118 109.921 13.7118C110.648 13.7118 110.648 13.7118 110.648 14.5605C109.072 14.5605 107.617 14.5605 106.041 14.5605C105.798 13.833 105.798 13.7118 106.647 13.7118C107.738 13.5905 107.738 13.5905 107.738 12.4993C107.738 9.22555 107.738 5.95184 107.738 2.79938C107.738 2.31438 107.617 2.07188 107.132 2.19313C106.647 2.19313 106.283 2.19313 105.92 2.19313Z" fill="#F9FAFB"/>
<path d="M50.3897 37.4657C50.9959 37.4657 51.3597 37.4657 51.8447 37.4657C52.2084 37.4657 52.2084 37.7082 52.2084 37.9507C52.2084 38.1932 52.2084 38.4356 51.8447 38.4356C49.9047 38.4356 48.0859 38.4356 46.146 38.4356C45.7822 38.4356 45.7822 38.3144 45.7822 37.9507C45.7822 37.7082 45.7822 37.4657 46.146 37.4657C46.631 37.4657 46.9947 37.4657 47.601 37.4657C47.601 37.2232 47.601 36.9807 47.601 36.8594C47.601 33.4645 47.601 30.0695 47.601 26.6745C47.601 26.1895 47.4797 25.947 46.9947 25.947C46.7522 25.947 46.5097 25.947 46.2672 25.947C45.9035 25.947 45.7822 25.8258 45.7822 25.462C45.7822 25.0983 45.9035 24.9771 46.2672 24.9771C48.5709 24.9771 50.8747 24.9771 53.1784 24.9771C54.6334 24.9771 56.0884 25.462 56.8158 26.7958C58.1496 28.9783 56.9371 31.6457 54.3909 32.1307C53.2996 32.3732 52.0872 32.3732 50.9959 32.3732C50.5109 32.3732 50.3897 32.4945 50.3897 32.9795C50.3897 34.5557 50.3897 35.8894 50.3897 37.4657ZM50.2684 28.7358C50.2684 29.5845 50.2684 30.312 50.2684 31.1607C50.2684 31.4032 50.2684 31.6457 50.6322 31.6457C51.3597 31.6457 52.0872 31.6457 52.8146 31.5245C53.7846 31.4032 54.2696 30.9182 54.2696 29.9482C54.2696 29.0995 54.2696 28.2508 54.2696 27.402C54.1484 26.432 53.7846 25.947 52.8146 25.8258C52.0872 25.7045 51.4809 25.8258 50.7534 25.7045C50.3897 25.7045 50.2684 25.8258 50.2684 26.1895C50.2684 27.1595 50.2684 28.0083 50.2684 28.7358Z" fill="#F9FAFB"/>
<path d="M71.6063 26.0642C70.8788 26.1855 70.0301 26.1855 69.4238 26.428C68.8176 26.5492 68.4539 27.0342 68.3326 27.6405C68.2114 28.1255 68.0901 28.7317 68.0901 29.2167C67.9689 29.9442 67.9689 29.9442 67.1201 29.8229C67.1201 29.4592 67.1201 29.2167 67.1201 28.8529C67.2414 27.7617 67.3626 26.6705 67.3626 25.5792C67.3626 25.3367 67.3626 25.0942 67.7264 25.0942C71.3638 25.0942 74.88 25.0942 78.5175 25.0942C78.5175 25.0942 78.6387 25.0942 78.76 25.2155C78.8812 26.6705 79.0025 28.2467 79.1237 29.7017C78.275 29.9442 78.275 29.9442 78.1537 29.0954C78.0325 28.7317 77.9112 28.368 77.9112 27.883C77.6687 26.7917 76.9413 26.1855 75.85 26.1855C75.365 26.1855 75.0013 26.1855 74.5163 26.1855C74.5163 29.9442 74.5163 33.7029 74.5163 37.4616C75.365 37.4616 76.2138 37.4616 77.0625 37.4616C77.0625 37.8253 77.0625 38.0678 77.0625 38.3103C74.395 38.3103 71.8488 38.3103 69.1813 38.3103C69.1813 38.0678 69.1813 37.8253 69.1813 37.4616C70.0301 37.4616 70.8788 37.4616 71.7276 37.4616C71.6063 33.7029 71.6063 29.9442 71.6063 26.0642Z" fill="#F9FAFB"/>
<path d="M96.5877 14.5569C94.5265 14.5569 92.5865 14.5569 90.6465 14.5569C90.4041 13.7082 90.5253 13.7082 91.2528 13.7082C91.4953 13.7082 91.7378 13.7082 92.1015 13.7082C91.7378 12.8594 91.4953 12.0107 91.2528 11.2832C91.2528 11.1619 91.0103 11.1619 90.889 11.1619C89.6766 11.1619 88.4641 11.1619 87.2516 11.1619C87.1303 11.1619 86.8878 11.2832 86.8878 11.4044C86.6453 12.1319 86.4029 12.8594 86.1604 13.5869C86.5241 13.5869 86.7666 13.7082 87.0091 13.7082C87.7366 13.7082 87.7366 13.9507 87.6153 14.5569C86.1604 14.5569 84.8266 14.5569 83.3716 14.5569C83.2504 13.7082 83.2504 13.7082 83.9779 13.7082C84.7054 13.7082 85.0691 13.4657 85.3116 12.7382C86.5241 9.10071 87.8578 5.46325 89.1916 1.70454C89.3128 1.3408 89.4341 0.977051 89.9191 0.977051C90.4041 0.977051 90.6465 1.21955 90.7678 1.70454C91.7378 4.61451 92.829 7.52448 93.799 10.4344C94.1628 11.4044 94.5265 12.3744 94.769 13.3444C94.8903 13.7082 95.1327 13.8294 95.4965 13.8294C95.6177 13.8294 95.739 13.8294 95.8602 13.8294C96.709 13.7082 96.709 13.7082 96.5877 14.5569ZM91.0103 10.0707C90.4041 8.37322 89.7978 6.79698 89.3128 5.0995H89.1916C88.5853 6.67574 88.1003 8.37322 87.4941 9.94945C88.5853 10.0707 89.6766 10.0707 91.0103 10.0707Z" fill="#F9FAFB"/>
<path d="M38.267 37.466C38.8732 37.466 39.3582 37.466 39.8432 37.466C39.4795 36.6172 39.237 35.7685 38.9945 35.041C38.9945 34.9197 38.752 34.7985 38.6307 34.7985C37.4182 34.7985 36.2057 34.7985 34.9933 34.7985C34.872 34.7985 34.6295 34.9197 34.5083 35.041C34.2658 35.7685 34.0233 36.3747 33.7808 37.2235C34.2658 37.3447 34.7508 37.3447 35.2358 37.466C35.2358 37.7085 35.2358 37.951 35.2358 38.3147C33.7808 38.3147 32.447 38.3147 30.9921 38.3147C30.7496 37.466 30.7496 37.466 31.5983 37.466C32.5683 37.466 32.5683 37.466 32.932 36.496C34.2658 32.8585 35.4783 29.2211 36.812 25.4624C36.9332 25.0986 37.0545 24.7349 37.6607 24.7349C38.267 24.7349 38.3882 25.0986 38.5095 25.4624C39.8432 29.2211 41.1769 33.101 42.5107 36.8597C42.6319 37.3447 42.8744 37.466 43.3594 37.466C43.6019 37.466 43.7232 37.466 43.9657 37.466C44.3294 37.466 44.3294 37.7085 44.3294 37.951C44.3294 38.1935 44.2082 38.436 43.9657 38.436C42.2682 38.436 40.4494 38.436 38.752 38.436C38.0245 38.3147 38.3882 37.8297 38.267 37.466ZM34.9933 33.8285C36.2057 33.8285 37.4182 33.8285 38.6307 33.8285C38.0245 32.131 37.4182 30.5548 36.9332 28.8573H36.812C36.2057 30.5548 35.5995 32.131 34.9933 33.8285Z" fill="#F9FAFB"/>
<path d="M86.1615 38.3144C86.1615 38.0719 86.1615 37.8294 86.1615 37.4657C86.6465 37.4657 87.1315 37.4657 87.7377 37.4657C87.374 36.6169 87.1315 35.8894 86.889 35.0407C86.889 34.9194 86.6465 34.7982 86.404 34.7982C85.1915 34.7982 84.1003 34.7982 82.8878 34.7982C82.7665 34.7982 82.524 34.9194 82.4028 35.1619C82.1603 35.7682 81.9178 36.4957 81.6753 37.3444C82.1603 37.4657 82.6453 37.4657 83.1303 37.5869C83.1303 37.8294 83.1303 38.0719 83.1303 38.4356C81.6753 38.4356 80.2203 38.4356 78.8866 38.4356C78.6441 37.7082 78.6441 37.5869 79.4928 37.5869C80.4628 37.5869 80.4628 37.5869 80.8266 36.6169C82.1603 32.9795 83.3728 29.342 84.7065 25.7045C84.8278 25.3408 84.949 24.9771 85.5553 24.9771C86.1615 24.9771 86.2827 25.3408 86.404 25.7045C87.7377 29.4632 89.0715 33.3432 90.4052 37.1019C90.5265 37.4657 90.7689 37.7082 91.1327 37.5869C91.2539 37.5869 91.4964 37.5869 91.6177 37.5869C91.9814 37.5869 92.2239 37.5869 92.2239 38.0719C92.2239 38.5569 91.9814 38.5569 91.6177 38.5569C89.9202 38.5569 88.2227 38.5569 86.6465 38.5569C86.5252 38.3144 86.404 38.3144 86.1615 38.3144ZM84.8278 28.9783H84.7065C84.1003 30.5545 83.6153 32.252 83.009 33.8282C84.2215 33.8282 85.434 33.8282 86.6465 33.8282C85.919 32.1307 85.3128 30.5545 84.8278 28.9783Z" fill="#F9FAFB"/>
<path d="M46.7514 7.89182C47.8427 5.95184 48.8127 4.25436 49.9039 2.31438C49.4189 2.19313 49.0552 2.19313 48.5702 2.07188C48.5702 1.82939 48.5702 1.58689 48.5702 1.22314C50.0251 1.22314 51.3589 1.22314 52.8139 1.22314C52.8139 1.46564 52.8139 1.70814 52.8139 1.95064L52.6926 2.07188C51.4801 1.95064 50.8739 2.55688 50.3889 3.52687C49.5401 5.3456 48.4489 7.04308 47.4789 8.74056C47.3577 8.98306 47.2364 9.22555 47.2364 9.46805C47.2364 10.6805 47.2364 11.893 47.2364 13.1055C47.2364 13.4693 47.3577 13.5905 47.7214 13.5905C47.9639 13.5905 48.2064 13.5905 48.3277 13.5905C49.0552 13.5905 49.0552 13.5905 48.9339 14.4392C46.8727 14.4392 44.8115 14.4392 42.7502 14.4392C42.7502 14.1967 42.7502 13.9543 42.7502 13.5905C43.2352 13.5905 43.7202 13.5905 44.084 13.5905C44.3265 13.5905 44.569 13.4693 44.569 13.2268C44.569 12.0143 44.569 10.6805 44.569 9.46805C44.569 9.22555 44.4477 9.10431 44.3265 8.86181C43.114 6.67933 41.9015 4.61811 40.689 2.55688C40.4465 2.31438 40.0828 2.19313 39.8403 2.19313C39.4765 2.07188 39.1128 2.19313 38.749 2.19313C38.749 1.95064 38.749 1.70814 38.749 1.34439C40.8103 1.34439 42.7502 1.34439 44.8115 1.34439C44.8115 1.58689 44.8115 1.82939 44.8115 2.19313C44.3265 2.19313 43.9627 2.19313 43.3565 2.31438C44.569 4.13311 45.5389 5.95184 46.7514 7.89182Z" fill="#F9FAFB"/>
<path d="M66.1538 3.64365C66.1538 4.37115 66.1538 5.09864 66.1538 5.70488C66.1538 6.06863 66.1538 6.31112 65.6688 6.31112C65.3051 6.31112 65.0626 6.18987 65.0626 5.82613C64.9414 4.61364 64.4564 3.40116 63.3651 2.67366C61.5464 1.21868 58.5152 2.18867 57.6664 4.49239C57.4239 5.46238 57.3027 6.55362 57.3027 7.52361C57.3027 8.7361 57.4239 10.0698 57.7877 11.2823C58.2727 13.101 60.0914 14.071 62.0314 13.9498C63.8501 13.7073 65.1839 12.2523 65.3051 10.4336C65.3051 10.0698 65.4263 9.82733 65.9113 9.82733C66.3963 9.82733 66.2751 10.1911 66.2751 10.4336C66.1538 12.3736 64.6989 14.071 62.6376 14.6773C59.8489 15.4048 56.5752 14.071 55.1202 11.5248C53.6652 8.85734 53.6652 3.88615 57.6664 1.82492C59.7277 0.733687 62.0314 0.491189 64.0926 1.94617C64.2139 2.06742 64.4564 1.94617 64.5776 1.94617C64.8201 1.70368 65.0626 1.46118 65.4264 1.21868C65.5476 1.21868 65.7901 0.976184 65.9113 1.09743C66.0326 1.09743 66.1538 1.46118 66.1538 1.58243C66.1538 2.30992 66.1538 2.91616 66.1538 3.64365Z" fill="#F9FAFB"/>
<path d="M103.862 33.0966C103.62 34.7941 103.499 36.3704 103.256 38.0678C103.256 38.1891 102.892 38.3103 102.65 38.3103C100.225 38.3103 97.8001 38.3103 95.3751 38.3103C95.0113 38.3103 94.6476 38.3103 94.2838 38.3103C93.5564 38.3103 93.5564 38.3103 93.6776 37.4616C94.2838 37.4616 94.7688 37.4616 95.3751 37.4616C95.3751 37.2191 95.3751 36.9766 95.3751 36.8554C95.3751 33.4604 95.3751 29.9442 95.3751 26.5492C95.3751 26.0642 95.2538 25.8217 94.7688 25.943C94.6476 25.943 94.4051 25.943 94.2838 25.943C93.4351 25.943 93.4351 25.943 93.6776 25.0942C95.8601 25.0942 98.1638 25.0942 100.346 25.0942C100.589 25.943 100.468 25.943 99.74 25.943C99.255 25.943 98.77 25.943 98.1638 25.943C98.1638 29.8229 98.1638 33.5816 98.1638 37.3404C100.346 37.8253 102.044 36.8554 102.529 34.7941C102.65 34.4304 102.65 34.0666 102.771 33.7029C103.014 32.9754 103.014 32.8542 103.862 33.0966Z" fill="#F9FAFB"/>
<path d="M39.1136 9.34274C38.8711 11.0402 38.7498 12.859 38.5074 14.5564C35.2336 14.5564 32.0812 14.5564 28.9287 14.5564C28.9287 14.3139 28.9287 14.0714 28.9287 13.7077C29.4137 13.7077 29.7775 13.7077 30.2624 13.7077C30.6262 13.7077 30.7474 13.5864 30.7474 13.2227C30.7474 9.58524 30.7474 5.94778 30.7474 2.43157C30.7474 2.31032 30.7474 2.31032 30.7474 2.18907C30.1412 2.18907 29.6562 2.18907 29.05 2.18907C29.05 1.82533 29.05 1.58283 29.05 1.34033C31.3537 1.34033 33.6574 1.34033 35.9611 1.34033C35.9611 1.58283 35.9611 1.82533 35.9611 2.18907C35.2336 2.18907 34.5061 2.18907 33.6574 2.18907C33.6574 2.43157 33.6574 2.67407 33.6574 2.79532C33.6574 6.19028 33.6574 9.70649 33.6574 13.1014C33.6574 13.5864 33.7787 13.7077 34.2636 13.7077C36.6886 13.7077 37.7799 12.7377 38.2649 10.3127C38.2649 10.1915 38.3861 10.0702 38.3861 9.94898C38.1436 9.22149 38.5074 9.22149 39.1136 9.34274Z" fill="#F9FAFB"/>
<path d="M58.999 25.943C58.999 25.5792 58.999 25.3367 58.999 25.0942C61.1815 25.0942 63.364 25.0942 65.5464 25.0942C65.5464 25.3367 65.5464 25.5792 65.5464 25.943C65.0615 25.943 64.5765 25.943 64.0915 25.943C63.849 25.943 63.6065 26.0642 63.6065 26.3067C63.6065 29.9442 63.6065 33.5816 63.6065 37.2191C63.6065 37.3403 63.6065 37.3404 63.7277 37.4616C64.334 37.4616 64.9402 37.4616 65.5464 37.4616C65.5464 37.8253 65.5464 38.0678 65.5464 38.3103C63.364 38.3103 61.1815 38.3103 58.999 38.3103C58.999 38.0678 58.999 37.8253 58.999 37.4616C59.484 37.4616 59.969 37.4616 60.454 37.4616C60.8177 37.4616 60.8178 37.3404 60.8178 37.0979C60.8178 33.5816 60.8178 29.9442 60.8178 26.428C60.8178 26.0642 60.6965 25.943 60.3328 25.943C59.969 25.943 59.484 25.943 58.999 25.943Z" fill="#F9FAFB"/>
<path d="M98.0427 2.19336C98.0427 1.82961 98.0427 1.58712 98.0427 1.34462C98.2852 1.34462 98.5277 1.34462 98.649 1.34462C100.346 1.34462 102.165 1.34462 103.863 1.34462C104.59 1.22337 104.59 1.22337 104.59 2.19336C104.348 2.19336 103.984 2.19336 103.62 2.19336C103.378 2.19336 103.014 2.19336 102.65 2.19336C102.65 2.43586 102.65 2.67835 102.65 2.7996C102.65 6.19456 102.65 9.58953 102.65 13.1057C102.65 13.712 102.771 13.8332 103.378 13.712C103.499 13.712 103.741 13.712 103.863 13.712C104.59 13.712 104.59 13.712 104.59 14.5607C102.408 14.5607 100.225 14.5607 98.0427 14.5607C97.9215 13.712 97.9215 13.712 98.7702 13.712C99.9827 13.712 99.9827 13.712 99.9827 12.4995C99.9827 9.22578 99.9827 5.95207 99.9827 2.7996C99.9827 2.31461 99.8615 2.07211 99.3765 2.19336C98.8915 2.19336 98.4065 2.19336 98.0427 2.19336Z" fill="#F9FAFB"/>
</svg>
