<svg width="90" height="36" viewBox="0 0 90 36" fill="none" xmlns="http://www.w3.org/2000/svg">
<path d="M50.8331 15.6065C50.4178 15.7911 50.0486 16.0218 49.4026 16.391C50.7408 10.2997 54.7555 5.13134 60.1084 2.22415C60.7083 1.90113 61.8158 1.80883 61.4467 0.747477C61.1236 -0.175442 60.2469 0.37831 59.647 0.516748C48.7104 3.05477 40.4041 16.2064 43.0344 27.0507C44.0496 31.1577 46.0339 34.6648 50.6947 35.68C58.401 37.3412 64.4923 32.2652 64.5846 24.1896C64.6769 16.4371 57.7088 12.1455 50.8331 15.6065Z" fill="#F9FAFB"/>
<path d="M35.0514 16.3909C35.0514 21.0055 35.0514 25.6201 35.0514 30.2347C35.0514 32.9111 35.3745 33.188 38.1432 33.2342C38.374 33.2342 38.6047 33.2342 38.8354 33.2342C39.5276 33.2803 40.4505 32.9573 40.4967 34.2032C40.5428 35.4492 39.6199 35.2646 38.8816 35.2646C36.482 35.2646 34.1285 35.1723 31.7289 35.1723C29.2832 35.1723 26.8375 35.2646 24.3456 35.2646C23.6995 35.2646 22.9151 35.4492 22.8689 34.3417C22.7766 33.1419 23.5611 33.188 24.3917 33.2342C24.8532 33.2342 25.3146 33.2342 25.7761 33.2342C28.5449 33.188 28.9602 32.8188 29.0063 30.0039C29.0525 23.2666 29.0986 16.4832 29.0525 9.74587C29.0525 7.1617 28.4987 6.79253 25.9607 7.48472C24.9916 7.7616 24.0687 8.03847 23.0996 8.36149C22.4536 8.54608 22.0844 8.22306 21.8537 7.66931C21.623 7.11555 21.8537 6.79253 22.3152 6.5618C26.1914 4.53138 30.0215 2.45481 33.9439 0.562828C35.5129 -0.221653 35.0514 1.25502 35.0514 1.94721C35.1437 6.70024 35.0976 11.5456 35.0514 16.3909C35.0976 16.3909 35.0976 16.3909 35.0514 16.3909Z" fill="#F9FAFB"/>
<path d="M21.2533 31.8498C20.9764 31.6191 20.6995 31.5268 20.2381 31.7114C17.7462 32.6343 17.4232 32.4497 17.377 29.8194C17.2847 25.897 17.2847 21.9746 17.1924 18.0522C17.1002 14.9604 15.8542 13.6222 12.7624 13.253C8.97847 12.7915 5.60981 13.899 2.65647 16.2525C1.7797 16.9447 1.1798 17.8214 0.856778 18.8828C0.487611 20.1287 0.303027 21.467 1.96428 21.8823C3.44095 22.2515 4.77918 21.79 5.28679 20.1749C5.51752 19.5288 5.42523 18.7905 5.42523 18.1445C5.42523 17.5446 5.24064 16.8985 5.88669 16.4832C7.27107 15.5603 8.79388 15.4218 10.3167 15.9295C11.7934 16.4371 11.9318 17.8676 11.978 19.2058C12.0241 20.5902 12.3933 22.113 10.5013 22.8513C8.56315 23.5897 6.76346 24.6049 4.91762 25.5278C2.65647 26.6815 1.22595 28.4812 1.08751 31.1576C0.94907 34.2494 2.61032 35.8645 5.65596 35.7722C8.28628 35.7261 10.3628 34.5724 12.3471 32.8189C14.9313 36.5105 19.4536 36.649 21.2533 33.3265C21.484 32.7727 21.8532 32.3113 21.2533 31.8498Z" fill="#F9FAFB"/>
<path d="M75.3366 33.0495C80.2742 34.1109 84.2428 33.0034 87.3346 29.081C87.7499 28.5272 88.119 27.189 89.1804 28.0658C90.1033 28.8041 89.1342 29.5886 88.9035 30.3269C87.5653 34.4801 85.1657 36.2798 80.4588 35.3568C77.044 34.6646 73.3985 35.1723 69.8914 35.1261C69.3838 35.1261 68.7377 35.403 68.4147 34.8954C67.9994 34.2493 68.6454 33.7417 68.9685 33.2803C72.7986 27.4659 76.6748 21.6515 80.7357 15.6525C76.6287 15.1911 72.8909 15.0526 70.3067 18.8366C69.8914 19.4826 69.3376 20.0364 68.83 20.6363C68.4609 21.0516 68.1378 21.5131 67.4918 21.0977C66.8457 20.7286 67.0765 20.221 67.2611 19.7134C68.0455 17.8214 68.8762 15.8832 69.6607 13.9913C69.9375 13.3452 70.2606 13.0222 71.045 13.2068C75.8442 14.222 80.6895 13.8067 85.4887 13.899C86.227 13.899 87.2423 13.5298 87.6576 14.1758C88.119 15.0065 87.15 15.6525 86.6885 16.2986C83.366 21.2362 79.9973 26.1738 76.6287 31.1114C76.2134 31.7575 75.7981 32.3574 75.3366 33.0495Z" fill="#F9FAFB"/>
<path d="M56.7857 19.0674C55.5398 17.4523 53.8786 16.8985 51.8943 17.4523C50.0023 17.9599 49.1255 19.252 48.8948 21.0978C48.7564 22.1592 48.7102 23.2205 48.6641 24.328C48.8025 26.8661 48.7564 29.4041 50.0946 31.7114C51.802 34.6647 55.4475 34.8493 57.2934 32.0805C59.2315 29.0349 59.0008 21.9746 56.7857 19.0674Z" fill="#121B23"/>
<path d="M11.9319 24.1897C8.14796 25.3895 6.30212 27.2815 6.39441 29.8657C6.44056 31.3423 6.85587 32.6344 8.60941 32.819C10.0861 32.9574 11.8396 31.4346 11.8858 29.9118C12.0242 28.066 11.9319 26.1278 11.9319 24.1897Z" fill="#121B23"/>
</svg>
