<svg width="64" height="64" viewBox="0 0 64 64" fill="none" xmlns="http://www.w3.org/2000/svg">
<path d="M32 64C49.6731 64 64 49.6731 64 32C64 14.3269 49.6731 0 32 0C14.3269 0 0 14.3269 0 32C0 49.6731 14.3269 64 32 64Z" fill="#FF875B"/>
<path d="M36.632 15H27.3679C27.0583 15 26.8103 15.2577 26.8036 15.5781C26.6164 24.5836 22.0647 33.131 14.2303 39.1851C13.9815 39.3772 13.9249 39.7383 14.1067 39.9984L19.527 47.7561C19.7114 48.0202 20.0707 48.0798 20.3236 47.8858C25.2222 44.1251 29.1624 39.5883 32 34.5598C34.8375 39.5883 38.7779 44.1251 43.6766 47.8858C43.9293 48.0798 44.2885 48.0202 44.4732 47.7561L49.8935 39.9984C50.0751 39.7383 50.0184 39.3772 49.7699 39.1851C41.9352 33.131 37.3835 24.5836 37.1966 15.5781C37.1899 15.2577 36.9416 15 36.632 15Z" fill="white"/>
</svg>
