<svg width="155" height="39" viewBox="0 0 155 39" fill="none" xmlns="http://www.w3.org/2000/svg">
<path d="M143.522 15.301C142.818 15.3065 142.116 15.351 141.417 15.4342C140.128 15.6362 139.419 16.2935 139.419 17.4321C139.419 18.4204 140.068 18.9574 141.034 18.9574C142.358 18.9574 143.522 18.0594 143.522 16.3107V15.301V15.301ZM140.136 21.2217C137.76 21.2217 136.269 19.7394 136.269 17.4794C136.269 15.417 137.593 14.1581 139.788 13.6425C141.021 13.4061 142.276 13.3009 143.531 13.3289C143.531 11.5587 142.813 10.9572 140.974 10.9572C139.794 10.9798 138.632 11.2552 137.567 11.7649V9.31158C138.775 8.81359 140.071 8.56232 141.378 8.57257C145.245 8.57257 146.641 10.3213 146.641 13.6168V18.4891H148.167V20.9511H143.87L143.634 19.7222H143.587C143.161 20.2122 142.632 20.6013 142.037 20.8614C141.443 21.1215 140.798 21.2461 140.149 21.226L140.136 21.2217ZM101.33 15.301C100.627 15.3066 99.9259 15.3511 99.2285 15.4342C97.9396 15.6362 97.2306 16.2935 97.2306 17.4321C97.2306 18.4204 97.8794 18.9574 98.8418 18.9574C100.165 18.9574 101.33 18.0594 101.33 16.3107V15.301ZM97.9482 21.2217C95.5721 21.2217 94.0812 19.7394 94.0812 17.4794C94.0812 15.417 95.4046 14.1581 97.6001 13.6425C98.833 13.4061 100.087 13.3009 101.342 13.3289C101.342 11.5587 100.625 10.9572 98.7903 10.9572C97.6099 10.9799 96.4481 11.2553 95.3831 11.7649V9.31158C96.5916 8.81392 97.8873 8.56267 99.1942 8.57257C103.061 8.57257 104.462 10.3213 104.462 13.6168V18.4891H105.983V20.9511H101.686L101.441 19.7222H101.398C100.972 20.2115 100.443 20.6001 99.8486 20.8601C99.2542 21.1202 98.6095 21.2451 97.961 21.226L97.9482 21.2217ZM53.6116 15.301C52.9065 15.3066 52.2022 15.351 51.502 15.4342C50.213 15.6362 49.5083 16.2935 49.5083 17.4321C49.5083 18.4204 50.1614 18.9574 51.1239 18.9574C52.4472 18.9574 53.6116 18.0594 53.6116 16.3107V15.301ZM50.2259 21.226C47.8499 21.226 46.3589 19.7437 46.3589 17.4837C46.3589 15.4213 47.6823 14.1624 49.8778 13.6468C51.1107 13.4103 52.3652 13.3051 53.6202 13.3332C53.6202 11.563 52.907 10.9615 51.0637 10.9615C49.8832 10.9837 48.7213 11.2591 47.6565 11.7692V9.31158C48.8649 8.8137 50.1607 8.56244 51.4676 8.57257C55.3345 8.57257 56.7352 10.3213 56.7352 13.6168V18.4891H58.2605V20.9511H53.9639L53.7147 19.7222H53.6717C53.2458 20.2117 52.7166 20.6005 52.1222 20.8606C51.5277 21.1206 50.883 21.2454 50.2345 21.226H50.2259ZM116.617 14.8542C116.617 12.5942 115.5 11.0904 113.773 11.0904C112.045 11.0904 110.95 12.6114 110.95 14.8327C110.95 17.054 112.045 18.618 113.708 18.618C115.427 18.618 116.621 17.0927 116.621 14.8499L116.617 14.8542ZM119.826 14.8499C119.826 18.618 117.678 21.2217 114.559 21.2217C112.698 21.2217 111.598 20.4784 111.04 19.7179H110.98V24.818L107.843 26.107V11.245H106.253V8.7831H110.735L110.937 10.3728H110.98C111.384 9.74554 112.325 8.55538 114.542 8.55538C117.79 8.55538 119.809 11.0431 119.809 14.8542L119.826 14.8499ZM74.029 8.55538C73.2777 8.52443 72.5299 8.67318 71.8476 8.98927C71.1654 9.30537 70.5684 9.77969 70.1062 10.3728H70.059L69.857 8.7831H65.178V11.245H66.9267V20.9511H70.089V15.3268C70.089 12.3192 71.6788 11.2064 73.0451 11.2064C74.3341 11.2064 74.927 12.0356 74.927 13.896V20.9511H78.0635V13.1785C78.0635 10.1322 76.6757 8.55968 74.0118 8.55968L74.029 8.55538ZM88.3753 18.3344C85.1486 18.3344 83.2452 16.1604 83.2452 12.6629C83.2452 9.25573 85.1486 6.94845 88.1047 6.94845C88.8207 6.94636 89.5346 7.02856 90.2315 7.19336V10.6306L93.0372 9.46626V5.41887C91.5777 4.58959 89.9203 4.17229 88.2421 4.21152C83.2882 4.21152 79.9068 7.25781 79.9068 12.7059C79.9068 17.8618 82.9144 21.226 88.2421 21.226C89.9344 21.2249 91.6003 20.8073 93.093 20.0101L92.4013 17.3677C91.1566 18.009 89.7755 18.3407 88.3753 18.3344V18.3344ZM152.979 18.4934V3.45532L149.821 4.7443V20.9511H154.504V18.4891H152.979V18.4934ZM42.0452 16.0229C42.0452 14.4546 40.9023 13.5996 38.9301 13.5996H35.9225V18.4676H38.9731C41.1687 18.4676 42.0666 17.4794 42.0666 16.0229H42.0452ZM35.9053 11.1591H38.4618C40.2793 11.1591 41.1515 10.2998 41.1515 9.07527C41.1515 7.66169 40.2921 6.92697 38.6423 6.92697H35.9053V11.1591ZM45.3836 16.1861C45.3836 19.3441 42.8959 20.9339 39.1536 20.9339H32.6528V6.94416H30.6807V4.47791H38.6165C40.7648 4.47791 41.8475 4.77008 42.6982 5.30715C43.245 5.64969 43.6918 6.13033 43.9935 6.70061C44.2952 7.27089 44.4413 7.91065 44.4169 8.55538C44.4169 10.274 43.3427 11.606 41.594 12.0743V12.1216C43.9486 12.5254 45.3836 14.0722 45.3836 16.2033V16.1861ZM120.72 11.245H122.439V20.9511H125.588V8.7831H120.72V11.245ZM122.439 6.67347H125.588V3.69593H122.426V6.67777L122.439 6.67347ZM58.5613 11.245H60.2799V20.9511H63.4422V8.7831H58.5613V11.245ZM60.2799 6.67347H63.4422V3.69593H60.2799V6.67777V6.67347ZM132.192 8.7788H135.397V11.245H132.192V16.6158C132.192 17.9606 132.484 18.7641 133.782 18.7641C134.265 18.7377 134.745 18.6702 135.217 18.5621V20.9167C134.41 21.1214 133.583 21.2352 132.751 21.2561C130.284 21.2561 129.051 20.066 129.051 17.445V11.245H127.333V8.7831H129.051V6.69495L132.192 5.40598V8.79169V8.7788Z" fill="white"/>
<path d="M36.419 30.0166L34.4382 36.2939L32.479 30.0166H30.8076L33.5059 37.9868H35.2675L37.9657 30.0166H36.419Z" fill="white"/>
<path d="M39.2549 30.0166V37.9868H44.4924V36.7064H40.836V34.4464H44.1272V33.1918H40.836V31.2583H44.3764V30.0166H39.2549Z" fill="white"/>
<path d="M51.3013 30.0166V35.5034L47.9027 30.0166H46.2056V37.9868H47.7008V32.2122L51.2755 37.9868H52.7965V30.0166H51.3013Z" fill="white"/>
<path d="M54.1157 30.0166V31.2583H56.4015V37.9868H57.9741V31.2583H60.2427V30.0166H54.1157Z" fill="white"/>
<path d="M66.2738 30.0166H67.855V34.8245C67.855 35.8943 67.6917 36.6205 67.1546 37.222C66.6175 37.8235 65.8656 38.1157 64.6798 38.1157C63.4939 38.1157 62.7334 37.8278 62.2049 37.222C61.6764 36.6162 61.4917 35.9029 61.4917 34.8374V30.0166H63.0728V34.9147C63.0728 35.6065 63.1502 35.9201 63.3994 36.2037C63.7448 36.5269 64.2002 36.7067 64.6733 36.7067C65.1464 36.7067 65.6018 36.5269 65.9473 36.2037C66.2008 35.9029 66.2738 35.5893 66.2738 34.9147V30.0166V30.0166Z" fill="white"/>
<path d="M73.4993 31.4863C73.1971 31.2907 72.8402 31.1974 72.481 31.2199H71.3639V33.7077H72.4681C72.8314 33.7303 73.1924 33.637 73.4993 33.4413C73.6475 33.3251 73.7675 33.1767 73.8499 33.0074C73.9324 32.838 73.9752 32.6522 73.9752 32.4638C73.9752 32.2754 73.9324 32.0896 73.8499 31.9202C73.7675 31.7509 73.6475 31.6025 73.4993 31.4863V31.4863ZM74.2125 37.9871L72.3521 34.8892H71.3596V37.9871H69.7827V30.0169H72.6571C73.3664 29.9743 74.0704 30.1628 74.6636 30.554C74.9952 30.8201 75.2486 31.171 75.3968 31.5695C75.545 31.968 75.5825 32.3991 75.5054 32.8173C75.4283 33.2354 75.2395 33.6248 74.9589 33.9442C74.6783 34.2636 74.3164 34.5011 73.9117 34.6314L76.0214 37.9828H74.2125V37.9871Z" fill="white"/>
<path d="M77.4199 30.0166V37.9868H82.6532V36.7064H79.0011V34.4464H82.2923V33.1918H79.0011V31.2583H82.5415V30.0166H77.4199Z" fill="white"/>
<path d="M86.5837 38.0988C85.4842 38.0984 84.4278 37.6718 83.6362 36.9087L84.4268 35.7916C85.0067 36.3588 85.7666 36.7053 86.5751 36.7712C87.5161 36.7712 87.993 36.3974 87.993 35.7916C87.993 35.1857 87.4043 34.9666 87.0864 34.8377C86.7684 34.7088 85.7587 34.3479 85.5439 34.262C85.0979 34.1299 84.7068 33.8565 84.4294 33.4831C84.152 33.1096 84.0033 32.6562 84.0057 32.191C84.0057 31.1598 84.7319 29.8923 86.8673 29.8923C87.8599 29.8955 88.8152 30.2711 89.544 30.945L88.8652 32.0277C88.3052 31.5105 87.5814 31.2063 86.82 31.1684C86.0037 31.1684 85.531 31.4692 85.531 32.0621C85.531 32.655 86.1111 32.8656 86.3903 32.9902C86.6696 33.1148 87.6793 33.4671 87.907 33.5573C89.0972 33.987 89.5398 34.7604 89.5398 35.6498C89.5398 36.7927 88.7234 38.1375 86.5321 38.1375" fill="white"/>
<path d="M0.764648 8.74707L24.4636 20.5966" stroke="#F9FAFB" stroke-width="1.02736"/>
<path d="M24.4639 4.6377L0.764868 16.4872" stroke="#F9FAFB" stroke-width="1.02736"/>
<path d="M0.764648 0.724854L16.4809 8.62242" stroke="#F9FAFB" stroke-width="1.02736"/>
<path d="M0.764648 24.3848L16.4809 16.4872" stroke="#F9FAFB" stroke-width="1.02736"/>
<rect x="0.618172" y="0.596688" width="23.9556" height="23.9556" stroke="#F9FAFB" stroke-width="1.02736"/>
</svg>
