<svg width="341" height="339" viewBox="0 0 341 339" fill="none" xmlns="http://www.w3.org/2000/svg">
<path d="M169.566 0.176758V338.846" stroke="#9489FE" stroke-width="0.553381" stroke-miterlimit="10"/>
<path d="M154.791 0.84082L184.342 338.182" stroke="#9489FE" stroke-width="0.553381" stroke-miterlimit="10"/>
<path d="M140.177 2.72217L198.946 336.301" stroke="#9489FE" stroke-width="0.553381" stroke-miterlimit="10"/>
<path d="M125.736 5.93188L213.391 333.091" stroke="#9489FE" stroke-width="0.553381" stroke-miterlimit="10"/>
<path d="M111.624 10.4143L227.502 328.609" stroke="#9489FE" stroke-width="0.553381" stroke-miterlimit="10"/>
<path d="M98.0094 16.0588L241.114 322.964" stroke="#9489FE" stroke-width="0.553381" stroke-miterlimit="10"/>
<path d="M84.8972 22.8652L254.232 316.157" stroke="#9489FE" stroke-width="0.553381" stroke-miterlimit="10"/>
<path d="M72.4431 30.7788L266.68 308.244" stroke="#9489FE" stroke-width="0.553381" stroke-miterlimit="10"/>
<path d="M60.7119 39.7988L278.412 299.224" stroke="#9489FE" stroke-width="0.553381" stroke-miterlimit="10"/>
<path d="M49.8118 49.7598L289.315 289.263" stroke="#9489FE" stroke-width="0.553381" stroke-miterlimit="10"/>
<path d="M39.8511 60.6614L299.276 278.362" stroke="#9489FE" stroke-width="0.553381" stroke-miterlimit="10"/>
<path d="M30.8341 72.3931L308.3 266.63" stroke="#9489FE" stroke-width="0.553381" stroke-miterlimit="10"/>
<path d="M22.9166 84.844L316.209 254.179" stroke="#9489FE" stroke-width="0.553381" stroke-miterlimit="10"/>
<path d="M16.1073 97.9592L323.013 241.064" stroke="#9489FE" stroke-width="0.553381" stroke-miterlimit="10"/>
<path d="M10.4668 111.573L328.661 227.451" stroke="#9489FE" stroke-width="0.553381" stroke-miterlimit="10"/>
<path d="M5.98206 125.684L333.141 213.339" stroke="#9489FE" stroke-width="0.553381" stroke-miterlimit="10"/>
<path d="M2.77441 140.127L336.353 198.896" stroke="#9489FE" stroke-width="0.553381" stroke-miterlimit="10"/>
<path d="M0.891357 154.736L338.233 184.287" stroke="#9489FE" stroke-width="0.553381" stroke-miterlimit="10"/>
<path d="M0.229004 169.511H338.898" stroke="#9489FE" stroke-width="0.553381" stroke-miterlimit="10"/>
<path d="M0.891357 184.287L338.233 154.736" stroke="#9489FE" stroke-width="0.553381" stroke-miterlimit="10"/>
<path d="M2.77441 198.896L336.353 140.127" stroke="#9489FE" stroke-width="0.553381" stroke-miterlimit="10"/>
<path d="M5.98206 213.339L333.141 125.684" stroke="#9489FE" stroke-width="0.553381" stroke-miterlimit="10"/>
<path d="M10.4668 227.451L328.661 111.573" stroke="#9489FE" stroke-width="0.553381" stroke-miterlimit="10"/>
<path d="M16.1073 241.064L323.013 97.9592" stroke="#9489FE" stroke-width="0.553381" stroke-miterlimit="10"/>
<path d="M22.9166 254.179L316.209 84.844" stroke="#9489FE" stroke-width="0.553381" stroke-miterlimit="10"/>
<path d="M30.8341 266.63L308.3 72.3931" stroke="#9489FE" stroke-width="0.553381" stroke-miterlimit="10"/>
<path d="M39.8511 278.362L299.276 60.6614" stroke="#9489FE" stroke-width="0.553381" stroke-miterlimit="10"/>
<path d="M49.8118 289.263L289.315 49.7598" stroke="#9489FE" stroke-width="0.553381" stroke-miterlimit="10"/>
<path d="M60.7119 299.224L278.412 39.7988" stroke="#9489FE" stroke-width="0.553381" stroke-miterlimit="10"/>
<path d="M72.4431 308.244L266.68 30.7788" stroke="#9489FE" stroke-width="0.553381" stroke-miterlimit="10"/>
<path d="M84.8972 316.157L254.232 22.8652" stroke="#9489FE" stroke-width="0.553381" stroke-miterlimit="10"/>
<path d="M98.0094 322.964L241.114 16.0588" stroke="#9489FE" stroke-width="0.553381" stroke-miterlimit="10"/>
<path d="M111.624 328.609L227.502 10.4143" stroke="#9489FE" stroke-width="0.553381" stroke-miterlimit="10"/>
<path d="M125.736 333.091L213.391 5.93188" stroke="#9489FE" stroke-width="0.553381" stroke-miterlimit="10"/>
<path d="M140.177 336.301L198.946 2.72217" stroke="#9489FE" stroke-width="0.553381" stroke-miterlimit="10"/>
<path d="M154.791 338.182L184.342 0.84082" stroke="#9489FE" stroke-width="0.553381" stroke-miterlimit="10"/>
<path d="M163.642 33.4902L175.485 305.533" stroke="#F9FAFB" stroke-width="0.553381" stroke-miterlimit="10"/>
<path d="M151.798 34.5417L187.326 304.481" stroke="#F9FAFB" stroke-width="0.553381" stroke-miterlimit="10"/>
<path d="M140.123 36.5891L199.003 302.434" stroke="#F9FAFB" stroke-width="0.553381" stroke-miterlimit="10"/>
<path d="M128.613 39.688L210.513 299.335" stroke="#F9FAFB" stroke-width="0.553381" stroke-miterlimit="10"/>
<path d="M117.492 43.7278L221.639 295.295" stroke="#F9FAFB" stroke-width="0.553381" stroke-miterlimit="10"/>
<path d="M106.696 48.7637L232.424 290.259" stroke="#F9FAFB" stroke-width="0.553381" stroke-miterlimit="10"/>
<path d="M96.4062 54.6848L242.72 284.338" stroke="#F9FAFB" stroke-width="0.553381" stroke-miterlimit="10"/>
<path d="M86.6663 61.4915L252.459 277.532" stroke="#F9FAFB" stroke-width="0.553381" stroke-miterlimit="10"/>
<path d="M77.593 69.1279L261.537 269.895" stroke="#F9FAFB" stroke-width="0.553381" stroke-miterlimit="10"/>
<path d="M69.182 77.5393L269.949 261.483" stroke="#F9FAFB" stroke-width="0.553381" stroke-miterlimit="10"/>
<path d="M61.5459 86.615L277.586 252.408" stroke="#F9FAFB" stroke-width="0.553381" stroke-miterlimit="10"/>
<path d="M54.7366 96.3542L284.39 242.668" stroke="#F9FAFB" stroke-width="0.553381" stroke-miterlimit="10"/>
<path d="M48.8191 106.647L290.315 232.375" stroke="#F9FAFB" stroke-width="0.553381" stroke-miterlimit="10"/>
<path d="M43.7803 117.438L295.347 221.585" stroke="#F9FAFB" stroke-width="0.553381" stroke-miterlimit="10"/>
<path d="M39.7415 128.561L299.388 210.462" stroke="#F9FAFB" stroke-width="0.553381" stroke-miterlimit="10"/>
<path d="M36.642 140.072L302.486 198.951" stroke="#F9FAFB" stroke-width="0.553381" stroke-miterlimit="10"/>
<path d="M34.5944 151.748L304.534 187.275" stroke="#F9FAFB" stroke-width="0.553381" stroke-miterlimit="10"/>
<path d="M33.5425 163.59L305.585 175.433" stroke="#F9FAFB" stroke-width="0.553381" stroke-miterlimit="10"/>
<path d="M33.5425 175.433L305.585 163.59" stroke="#F9FAFB" stroke-width="0.553381" stroke-miterlimit="10"/>
<path d="M34.5944 187.275L304.534 151.748" stroke="#F9FAFB" stroke-width="0.553381" stroke-miterlimit="10"/>
<path d="M36.642 198.951L302.486 140.072" stroke="#F9FAFB" stroke-width="0.553381" stroke-miterlimit="10"/>
<path d="M39.7415 210.462L299.388 128.561" stroke="#F9FAFB" stroke-width="0.553381" stroke-miterlimit="10"/>
<path d="M43.7803 221.585L295.347 117.438" stroke="#F9FAFB" stroke-width="0.553381" stroke-miterlimit="10"/>
<path d="M48.8191 232.375L290.315 106.647" stroke="#F9FAFB" stroke-width="0.553381" stroke-miterlimit="10"/>
<path d="M54.7366 242.668L284.39 96.3542" stroke="#F9FAFB" stroke-width="0.553381" stroke-miterlimit="10"/>
<path d="M61.5459 252.408L277.586 86.615" stroke="#F9FAFB" stroke-width="0.553381" stroke-miterlimit="10"/>
<path d="M69.182 261.483L269.949 77.5393" stroke="#F9FAFB" stroke-width="0.553381" stroke-miterlimit="10"/>
<path d="M77.593 269.895L261.537 69.1279" stroke="#F9FAFB" stroke-width="0.553381" stroke-miterlimit="10"/>
<path d="M86.6663 277.532L252.459 61.4915" stroke="#F9FAFB" stroke-width="0.553381" stroke-miterlimit="10"/>
<path d="M96.4062 284.338L242.72 54.6848" stroke="#F9FAFB" stroke-width="0.553381" stroke-miterlimit="10"/>
<path d="M106.696 290.259L232.424 48.7637" stroke="#F9FAFB" stroke-width="0.553381" stroke-miterlimit="10"/>
<path d="M117.492 295.295L221.639 43.7278" stroke="#F9FAFB" stroke-width="0.553381" stroke-miterlimit="10"/>
<path d="M128.613 299.335L210.513 39.688" stroke="#F9FAFB" stroke-width="0.553381" stroke-miterlimit="10"/>
<path d="M140.123 302.434L199.003 36.5891" stroke="#F9FAFB" stroke-width="0.553381" stroke-miterlimit="10"/>
<path d="M151.798 304.481L187.326 34.5417" stroke="#F9FAFB" stroke-width="0.553381" stroke-miterlimit="10"/>
<path d="M163.642 305.533L175.485 33.4902" stroke="#F9FAFB" stroke-width="0.553381" stroke-miterlimit="10"/>
<path d="M164.805 61.0488L174.323 277.974" stroke="#121B23" stroke-width="2.21353" stroke-miterlimit="10"/>
<path d="M155.399 61.8789L183.732 277.144" stroke="#121B23" stroke-width="2.21353" stroke-miterlimit="10"/>
<path d="M146.048 63.5391L193.086 275.484" stroke="#121B23" stroke-width="2.21353" stroke-miterlimit="10"/>
<path d="M136.914 65.9739L202.213 273.049" stroke="#121B23" stroke-width="2.21353" stroke-miterlimit="10"/>
<path d="M128.005 69.1833L211.123 269.839" stroke="#121B23" stroke-width="2.21353" stroke-miterlimit="10"/>
<path d="M119.426 73.2231L219.698 265.8" stroke="#121B23" stroke-width="2.21353" stroke-miterlimit="10"/>
<path d="M111.24 77.927L227.893 261.096" stroke="#121B23" stroke-width="2.21353" stroke-miterlimit="10"/>
<path d="M103.491 83.4055L235.639 255.618" stroke="#121B23" stroke-width="2.21353" stroke-miterlimit="10"/>
<path d="M96.2446 89.4927L242.891 249.531" stroke="#121B23" stroke-width="2.21353" stroke-miterlimit="10"/>
<path d="M89.5479 96.1885L249.586 242.835" stroke="#121B23" stroke-width="2.21353" stroke-miterlimit="10"/>
<path d="M83.4572 103.438L255.669 235.585" stroke="#121B23" stroke-width="2.21353" stroke-miterlimit="10"/>
<path d="M77.9812 111.185L261.15 227.838" stroke="#121B23" stroke-width="2.21353" stroke-miterlimit="10"/>
<path d="M73.2756 119.375L265.852 219.648" stroke="#121B23" stroke-width="2.21353" stroke-miterlimit="10"/>
<path d="M69.2368 127.953L269.893 211.071" stroke="#121B23" stroke-width="2.21353" stroke-miterlimit="10"/>
<path d="M66.0248 136.862L273.1 202.161" stroke="#121B23" stroke-width="2.21353" stroke-miterlimit="10"/>
<path d="M63.5963 145.993L275.541 193.03" stroke="#121B23" stroke-width="2.21353" stroke-miterlimit="10"/>
<path d="M61.9341 155.345L277.199 183.678" stroke="#121B23" stroke-width="2.21353" stroke-miterlimit="10"/>
<path d="M61.1029 164.753L278.028 174.271" stroke="#121B23" stroke-width="2.21353" stroke-miterlimit="10"/>
<path d="M61.1029 174.271L278.028 164.753" stroke="#121B23" stroke-width="2.21353" stroke-miterlimit="10"/>
<path d="M61.9341 183.678L277.199 155.345" stroke="#121B23" stroke-width="2.21353" stroke-miterlimit="10"/>
<path d="M63.5963 193.03L275.541 145.993" stroke="#121B23" stroke-width="2.21353" stroke-miterlimit="10"/>
<path d="M66.0248 202.161L273.1 136.862" stroke="#121B23" stroke-width="2.21353" stroke-miterlimit="10"/>
<path d="M69.2368 211.071L269.893 127.953" stroke="#121B23" stroke-width="2.21353" stroke-miterlimit="10"/>
<path d="M73.2756 219.648L265.852 119.375" stroke="#121B23" stroke-width="2.21353" stroke-miterlimit="10"/>
<path d="M77.9812 227.838L261.15 111.185" stroke="#121B23" stroke-width="2.21353" stroke-miterlimit="10"/>
<path d="M83.4572 235.585L255.669 103.438" stroke="#121B23" stroke-width="2.21353" stroke-miterlimit="10"/>
<path d="M89.5479 242.835L249.586 96.1885" stroke="#121B23" stroke-width="2.21353" stroke-miterlimit="10"/>
<path d="M96.2446 249.531L242.891 89.4927" stroke="#121B23" stroke-width="2.21353" stroke-miterlimit="10"/>
<path d="M103.491 255.618L235.639 83.4055" stroke="#121B23" stroke-width="2.21353" stroke-miterlimit="10"/>
<path d="M111.24 261.096L227.893 77.927" stroke="#121B23" stroke-width="2.21353" stroke-miterlimit="10"/>
<path d="M119.426 265.8L219.698 73.2231" stroke="#121B23" stroke-width="2.21353" stroke-miterlimit="10"/>
<path d="M128.005 269.839L211.123 69.1833" stroke="#121B23" stroke-width="2.21353" stroke-miterlimit="10"/>
<path d="M136.914 273.049L202.213 65.9739" stroke="#121B23" stroke-width="2.21353" stroke-miterlimit="10"/>
<path d="M146.048 275.484L193.086 63.5391" stroke="#121B23" stroke-width="2.21353" stroke-miterlimit="10"/>
<path d="M155.399 277.144L183.732 61.8789" stroke="#121B23" stroke-width="2.21353" stroke-miterlimit="10"/>
<path d="M164.805 277.974L174.323 61.0488" stroke="#121B23" stroke-width="2.21353" stroke-miterlimit="10"/>
<path d="M169.561 33.3796V305.643" stroke="#121B23" stroke-width="2.21353" stroke-miterlimit="10"/>
<path d="M157.721 33.8777L181.406 305.145" stroke="#121B23" stroke-width="2.21353" stroke-miterlimit="10"/>
<path d="M145.934 35.427L193.192 303.596" stroke="#121B23" stroke-width="2.21353" stroke-miterlimit="10"/>
<path d="M134.315 38.0281L204.816 300.995" stroke="#121B23" stroke-width="2.21353" stroke-miterlimit="10"/>
<path d="M123.021 41.5698L216.1 297.453" stroke="#121B23" stroke-width="2.21353" stroke-miterlimit="10"/>
<path d="M112.008 46.1074L227.112 292.916" stroke="#121B23" stroke-width="2.21353" stroke-miterlimit="10"/>
<path d="M101.498 51.6411L237.63 287.382" stroke="#121B23" stroke-width="2.21353" stroke-miterlimit="10"/>
<path d="M91.4807 58.0051L247.645 281.018" stroke="#121B23" stroke-width="2.21353" stroke-miterlimit="10"/>
<path d="M82.0698 65.2544L257.049 273.769" stroke="#121B23" stroke-width="2.21353" stroke-miterlimit="10"/>
<path d="M73.3298 73.2783L265.796 265.744" stroke="#121B23" stroke-width="2.21353" stroke-miterlimit="10"/>
<path d="M65.3041 82.022L273.818 257.001" stroke="#121B23" stroke-width="2.21353" stroke-miterlimit="10"/>
<path d="M58.0576 91.4292L281.07 247.593" stroke="#121B23" stroke-width="2.21353" stroke-miterlimit="10"/>
<path d="M51.6898 101.446L287.43 237.577" stroke="#121B23" stroke-width="2.21353" stroke-miterlimit="10"/>
<path d="M46.1619 111.96L292.97 227.063" stroke="#121B23" stroke-width="2.21353" stroke-miterlimit="10"/>
<path d="M41.6208 122.972L297.504 216.051" stroke="#121B23" stroke-width="2.21353" stroke-miterlimit="10"/>
<path d="M38.0798 134.261L301.047 204.762" stroke="#121B23" stroke-width="2.21353" stroke-miterlimit="10"/>
<path d="M35.4739 145.882L303.643 193.141" stroke="#121B23" stroke-width="2.21353" stroke-miterlimit="10"/>
<path d="M33.9285 157.669L305.196 181.354" stroke="#121B23" stroke-width="2.21353" stroke-miterlimit="10"/>
<path d="M33.4307 169.511H305.694" stroke="#121B23" stroke-width="2.21353" stroke-miterlimit="10"/>
<path d="M33.9285 181.354L305.196 157.669" stroke="#121B23" stroke-width="2.21353" stroke-miterlimit="10"/>
<path d="M35.4739 193.141L303.643 145.882" stroke="#121B23" stroke-width="2.21353" stroke-miterlimit="10"/>
<path d="M38.0798 204.762L301.047 134.261" stroke="#121B23" stroke-width="2.21353" stroke-miterlimit="10"/>
<path d="M41.6208 216.051L297.504 122.972" stroke="#121B23" stroke-width="2.21353" stroke-miterlimit="10"/>
<path d="M46.1619 227.063L292.97 111.96" stroke="#121B23" stroke-width="2.21353" stroke-miterlimit="10"/>
<path d="M51.6898 237.577L287.43 101.446" stroke="#121B23" stroke-width="2.21353" stroke-miterlimit="10"/>
<path d="M58.0576 247.593L281.07 91.4292" stroke="#121B23" stroke-width="2.21353" stroke-miterlimit="10"/>
<path d="M65.3041 257.001L273.818 82.022" stroke="#121B23" stroke-width="2.21353" stroke-miterlimit="10"/>
<path d="M73.3298 265.744L265.796 73.2783" stroke="#121B23" stroke-width="2.21353" stroke-miterlimit="10"/>
<path d="M82.0698 273.769L257.049 65.2544" stroke="#121B23" stroke-width="2.21353" stroke-miterlimit="10"/>
<path d="M91.4807 281.018L247.645 58.0051" stroke="#121B23" stroke-width="2.21353" stroke-miterlimit="10"/>
<path d="M101.498 287.382L237.63 51.6411" stroke="#121B23" stroke-width="2.21353" stroke-miterlimit="10"/>
<path d="M112.008 292.916L227.112 46.1074" stroke="#121B23" stroke-width="2.21353" stroke-miterlimit="10"/>
<path d="M123.021 297.453L216.1 41.5698" stroke="#121B23" stroke-width="2.21353" stroke-miterlimit="10"/>
<path d="M134.315 300.995L204.816 38.0281" stroke="#121B23" stroke-width="2.21353" stroke-miterlimit="10"/>
<path d="M145.934 303.596L193.192 35.427" stroke="#121B23" stroke-width="2.21353" stroke-miterlimit="10"/>
<path d="M157.721 305.145L181.406 33.8777" stroke="#121B23" stroke-width="2.21353" stroke-miterlimit="10"/>
<path d="M169.567 61.0488V277.974" stroke="#40DCAF" stroke-width="0.553381" stroke-miterlimit="10"/>
<path d="M160.104 61.436L179.03 277.587" stroke="#40DCAF" stroke-width="0.553381" stroke-miterlimit="10"/>
<path d="M150.749 62.709L188.379 276.314" stroke="#40DCAF" stroke-width="0.553381" stroke-miterlimit="10"/>
<path d="M141.512 64.7566L197.624 274.267" stroke="#40DCAF" stroke-width="0.553381" stroke-miterlimit="10"/>
<path d="M132.49 67.5789L206.643 271.445" stroke="#40DCAF" stroke-width="0.553381" stroke-miterlimit="10"/>
<path d="M123.746 71.2312L215.386 267.792" stroke="#40DCAF" stroke-width="0.553381" stroke-miterlimit="10"/>
<path d="M115.335 75.6028L223.798 263.42" stroke="#40DCAF" stroke-width="0.553381" stroke-miterlimit="10"/>
<path d="M107.365 80.6387L231.766 258.385" stroke="#40DCAF" stroke-width="0.553381" stroke-miterlimit="10"/>
<path d="M99.8419 86.449L239.294 252.574" stroke="#40DCAF" stroke-width="0.553381" stroke-miterlimit="10"/>
<path d="M92.8682 92.813L246.266 246.21" stroke="#40DCAF" stroke-width="0.553381" stroke-miterlimit="10"/>
<path d="M86.5046 99.7856L252.63 239.238" stroke="#40DCAF" stroke-width="0.553381" stroke-miterlimit="10"/>
<path d="M80.691 107.312L258.437 231.712" stroke="#40DCAF" stroke-width="0.553381" stroke-miterlimit="10"/>
<path d="M75.6565 115.28L263.474 223.743" stroke="#40DCAF" stroke-width="0.553381" stroke-miterlimit="10"/>
<path d="M71.2844 123.692L267.846 215.332" stroke="#40DCAF" stroke-width="0.553381" stroke-miterlimit="10"/>
<path d="M67.6351 132.435L271.501 206.588" stroke="#40DCAF" stroke-width="0.553381" stroke-miterlimit="10"/>
<path d="M64.8085 141.455L274.319 197.568" stroke="#40DCAF" stroke-width="0.553381" stroke-miterlimit="10"/>
<path d="M62.7609 150.697L276.366 188.326" stroke="#40DCAF" stroke-width="0.553381" stroke-miterlimit="10"/>
<path d="M61.4882 160.049L277.639 178.974" stroke="#40DCAF" stroke-width="0.553381" stroke-miterlimit="10"/>
<path d="M61.1029 169.511H278.028" stroke="#40DCAF" stroke-width="0.553381" stroke-miterlimit="10"/>
<path d="M61.4882 178.974L277.639 160.049" stroke="#40DCAF" stroke-width="0.553381" stroke-miterlimit="10"/>
<path d="M62.7609 188.326L276.366 150.697" stroke="#40DCAF" stroke-width="0.553381" stroke-miterlimit="10"/>
<path d="M64.8085 197.568L274.319 141.455" stroke="#40DCAF" stroke-width="0.553381" stroke-miterlimit="10"/>
<path d="M67.6351 206.588L271.501 132.435" stroke="#40DCAF" stroke-width="0.553381" stroke-miterlimit="10"/>
<path d="M71.2844 215.332L267.846 123.692" stroke="#40DCAF" stroke-width="0.553381" stroke-miterlimit="10"/>
<path d="M75.6565 223.743L263.474 115.28" stroke="#40DCAF" stroke-width="0.553381" stroke-miterlimit="10"/>
<path d="M80.691 231.712L258.437 107.312" stroke="#40DCAF" stroke-width="0.553381" stroke-miterlimit="10"/>
<path d="M86.5046 239.238L252.63 99.7856" stroke="#40DCAF" stroke-width="0.553381" stroke-miterlimit="10"/>
<path d="M92.8682 246.21L246.266 92.813" stroke="#40DCAF" stroke-width="0.553381" stroke-miterlimit="10"/>
<path d="M99.8419 252.574L239.294 86.449" stroke="#40DCAF" stroke-width="0.553381" stroke-miterlimit="10"/>
<path d="M107.365 258.385L231.766 80.6387" stroke="#40DCAF" stroke-width="0.553381" stroke-miterlimit="10"/>
<path d="M115.335 263.42L223.798 75.6028" stroke="#40DCAF" stroke-width="0.553381" stroke-miterlimit="10"/>
<path d="M123.746 267.792L215.386 71.2312" stroke="#40DCAF" stroke-width="0.553381" stroke-miterlimit="10"/>
<path d="M132.49 271.445L206.643 67.5789" stroke="#40DCAF" stroke-width="0.553381" stroke-miterlimit="10"/>
<path d="M141.512 274.267L197.624 64.7566" stroke="#40DCAF" stroke-width="0.553381" stroke-miterlimit="10"/>
<path d="M150.749 276.314L188.379 62.709" stroke="#40DCAF" stroke-width="0.553381" stroke-miterlimit="10"/>
<path d="M160.104 277.587L179.03 61.436" stroke="#40DCAF" stroke-width="0.553381" stroke-miterlimit="10"/>
<path d="M169.563 89.8247V249.199" stroke="#121B23" stroke-width="2.21353" stroke-miterlimit="10"/>
<path d="M162.589 90.1013L176.535 248.922" stroke="#121B23" stroke-width="2.21353" stroke-miterlimit="10"/>
<path d="M155.732 91.0422L183.401 247.981" stroke="#121B23" stroke-width="2.21353" stroke-miterlimit="10"/>
<path d="M148.923 92.5364L190.205 246.487" stroke="#121B23" stroke-width="2.21353" stroke-miterlimit="10"/>
<path d="M142.283 94.6392L196.846 244.384" stroke="#121B23" stroke-width="2.21353" stroke-miterlimit="10"/>
<path d="M135.863 97.2954L203.265 241.728" stroke="#121B23" stroke-width="2.21353" stroke-miterlimit="10"/>
<path d="M129.72 100.505L209.407 238.518" stroke="#121B23" stroke-width="2.21353" stroke-miterlimit="10"/>
<path d="M123.855 104.213L215.273 234.811" stroke="#121B23" stroke-width="2.21353" stroke-miterlimit="10"/>
<path d="M118.322 108.474L220.809 230.55" stroke="#121B23" stroke-width="2.21353" stroke-miterlimit="10"/>
<path d="M113.227 113.177L225.896 225.846" stroke="#121B23" stroke-width="2.21353" stroke-miterlimit="10"/>
<path d="M108.526 118.269L230.602 220.755" stroke="#121B23" stroke-width="2.21353" stroke-miterlimit="10"/>
<path d="M104.267 123.802L234.865 215.221" stroke="#121B23" stroke-width="2.21353" stroke-miterlimit="10"/>
<path d="M100.557 129.668L238.57 209.355" stroke="#121B23" stroke-width="2.21353" stroke-miterlimit="10"/>
<path d="M97.3491 135.811L241.782 203.212" stroke="#121B23" stroke-width="2.21353" stroke-miterlimit="10"/>
<path d="M94.6912 142.23L244.436 196.793" stroke="#121B23" stroke-width="2.21353" stroke-miterlimit="10"/>
<path d="M92.5917 148.87L246.542 190.153" stroke="#121B23" stroke-width="2.21353" stroke-miterlimit="10"/>
<path d="M91.0939 155.677L248.033 183.346" stroke="#121B23" stroke-width="2.21353" stroke-miterlimit="10"/>
<path d="M90.1545 162.539L248.975 176.484" stroke="#121B23" stroke-width="2.21353" stroke-miterlimit="10"/>
<path d="M89.8774 169.512H249.251" stroke="#121B23" stroke-width="2.21353" stroke-miterlimit="10"/>
<path d="M90.1545 176.484L248.975 162.539" stroke="#121B23" stroke-width="2.21353" stroke-miterlimit="10"/>
<path d="M91.0939 183.346L248.033 155.677" stroke="#121B23" stroke-width="2.21353" stroke-miterlimit="10"/>
<path d="M92.5917 190.153L246.542 148.87" stroke="#121B23" stroke-width="2.21353" stroke-miterlimit="10"/>
<path d="M94.6912 196.793L244.436 142.23" stroke="#121B23" stroke-width="2.21353" stroke-miterlimit="10"/>
<path d="M97.3491 203.212L241.782 135.811" stroke="#121B23" stroke-width="2.21353" stroke-miterlimit="10"/>
<path d="M100.557 209.355L238.57 129.668" stroke="#121B23" stroke-width="2.21353" stroke-miterlimit="10"/>
<path d="M104.267 215.221L234.865 123.802" stroke="#121B23" stroke-width="2.21353" stroke-miterlimit="10"/>
<path d="M108.526 220.755L230.602 118.269" stroke="#121B23" stroke-width="2.21353" stroke-miterlimit="10"/>
<path d="M113.227 225.846L225.896 113.177" stroke="#121B23" stroke-width="2.21353" stroke-miterlimit="10"/>
<path d="M118.322 230.55L220.809 108.474" stroke="#121B23" stroke-width="2.21353" stroke-miterlimit="10"/>
<path d="M123.855 234.811L215.273 104.213" stroke="#121B23" stroke-width="2.21353" stroke-miterlimit="10"/>
<path d="M129.72 238.518L209.407 100.505" stroke="#121B23" stroke-width="2.21353" stroke-miterlimit="10"/>
<path d="M135.863 241.728L203.265 97.2954" stroke="#121B23" stroke-width="2.21353" stroke-miterlimit="10"/>
<path d="M142.283 244.384L196.846 94.6392" stroke="#121B23" stroke-width="2.21353" stroke-miterlimit="10"/>
<path d="M148.923 246.487L190.205 92.5364" stroke="#121B23" stroke-width="2.21353" stroke-miterlimit="10"/>
<path d="M155.732 247.981L183.401 91.0422" stroke="#121B23" stroke-width="2.21353" stroke-miterlimit="10"/>
<path d="M162.589 248.922L176.535 90.1013" stroke="#121B23" stroke-width="2.21353" stroke-miterlimit="10"/>
<path d="M132.761 98.845L206.361 240.179" stroke="#F9FAFB" stroke-width="0.553381" stroke-miterlimit="10"/>
<path d="M126.731 102.331L212.395 236.692" stroke="#F9FAFB" stroke-width="0.553381" stroke-miterlimit="10"/>
<path d="M121.034 106.316L218.097 232.708" stroke="#F9FAFB" stroke-width="0.553381" stroke-miterlimit="10"/>
<path d="M115.719 110.742L223.407 228.281" stroke="#F9FAFB" stroke-width="0.553381" stroke-miterlimit="10"/>
<path d="M110.792 115.668L228.33 223.356" stroke="#F9FAFB" stroke-width="0.553381" stroke-miterlimit="10"/>
<path d="M106.368 120.98L232.76 218.043" stroke="#F9FAFB" stroke-width="0.553381" stroke-miterlimit="10"/>
<path d="M102.385 126.68L236.747 212.344" stroke="#F9FAFB" stroke-width="0.553381" stroke-miterlimit="10"/>
<path d="M98.8921 132.712L240.226 206.312" stroke="#F9FAFB" stroke-width="0.553381" stroke-miterlimit="10"/>
<path d="M95.9615 139.02L243.161 200.003" stroke="#F9FAFB" stroke-width="0.553381" stroke-miterlimit="10"/>
<path d="M93.585 145.55L245.543 193.473" stroke="#F9FAFB" stroke-width="0.553381" stroke-miterlimit="10"/>
<path d="M91.7582 152.246L247.369 186.777" stroke="#F9FAFB" stroke-width="0.553381" stroke-miterlimit="10"/>
<path d="M90.5375 159.108L248.583 179.915" stroke="#F9FAFB" stroke-width="0.553381" stroke-miterlimit="10"/>
<path d="M89.9314 166.025L249.195 172.998" stroke="#F9FAFB" stroke-width="0.553381" stroke-miterlimit="10"/>
<path d="M89.9314 172.998L249.195 166.025" stroke="#F9FAFB" stroke-width="0.553381" stroke-miterlimit="10"/>
<path d="M90.5375 179.915L248.583 159.108" stroke="#F9FAFB" stroke-width="0.553381" stroke-miterlimit="10"/>
<path d="M91.7582 186.777L247.369 152.246" stroke="#F9FAFB" stroke-width="0.553381" stroke-miterlimit="10"/>
<path d="M93.585 193.473L245.543 145.55" stroke="#F9FAFB" stroke-width="0.553381" stroke-miterlimit="10"/>
<path d="M95.9615 200.003L243.161 139.02" stroke="#F9FAFB" stroke-width="0.553381" stroke-miterlimit="10"/>
<path d="M98.8921 206.312L240.226 132.712" stroke="#F9FAFB" stroke-width="0.553381" stroke-miterlimit="10"/>
<path d="M102.385 212.344L236.747 126.68" stroke="#F9FAFB" stroke-width="0.553381" stroke-miterlimit="10"/>
<path d="M106.368 218.043L232.76 120.98" stroke="#F9FAFB" stroke-width="0.553381" stroke-miterlimit="10"/>
<path d="M110.792 223.356L228.33 115.668" stroke="#F9FAFB" stroke-width="0.553381" stroke-miterlimit="10"/>
<path d="M115.719 228.281L223.407 110.742" stroke="#F9FAFB" stroke-width="0.553381" stroke-miterlimit="10"/>
<path d="M121.034 232.708L218.097 106.316" stroke="#F9FAFB" stroke-width="0.553381" stroke-miterlimit="10"/>
<path d="M126.731 236.692L212.395 102.331" stroke="#F9FAFB" stroke-width="0.553381" stroke-miterlimit="10"/>
<path d="M132.761 240.179L206.361 98.845" stroke="#F9FAFB" stroke-width="0.553381" stroke-miterlimit="10"/>
<path d="M139.073 243.112L200.055 95.9121" stroke="#F9FAFB" stroke-width="0.553381" stroke-miterlimit="10"/>
<path d="M145.601 245.491L193.523 93.5325" stroke="#F9FAFB" stroke-width="0.553381" stroke-miterlimit="10"/>
<path d="M152.297 247.317L186.828 91.7063" stroke="#F9FAFB" stroke-width="0.553381" stroke-miterlimit="10"/>
<path d="M159.163 248.534L179.97 90.4888" stroke="#F9FAFB" stroke-width="0.553381" stroke-miterlimit="10"/>
<path d="M166.08 249.143L173.053 89.8801" stroke="#F9FAFB" stroke-width="0.553381" stroke-miterlimit="10"/>
<path d="M173.053 249.143L166.08 89.8801" stroke="#F9FAFB" stroke-width="0.553381" stroke-miterlimit="10"/>
<path d="M179.97 248.534L159.163 90.4888" stroke="#F9FAFB" stroke-width="0.553381" stroke-miterlimit="10"/>
<path d="M186.828 247.317L152.297 91.7063" stroke="#F9FAFB" stroke-width="0.553381" stroke-miterlimit="10"/>
<path d="M193.523 245.491L145.601 93.5325" stroke="#F9FAFB" stroke-width="0.553381" stroke-miterlimit="10"/>
<path d="M200.055 243.112L139.073 95.9121" stroke="#F9FAFB" stroke-width="0.553381" stroke-miterlimit="10"/>
<path d="M170.116 223.743C199.456 223.743 223.241 199.958 223.241 170.618C223.241 141.278 199.456 117.494 170.116 117.494C140.776 117.494 116.991 141.278 116.991 170.618C116.991 199.958 140.776 223.743 170.116 223.743Z" fill="#121B23"/>
<path d="M170.115 251.412C214.736 251.412 250.909 215.24 250.909 170.618C250.909 125.997 214.736 89.8247 170.115 89.8247C125.494 89.8247 89.3214 125.997 89.3214 170.618C89.3214 215.24 125.494 251.412 170.115 251.412Z" stroke="#121B23" stroke-width="6.64058" stroke-miterlimit="10"/>
<path d="M170.117 280.188C230.63 280.188 279.686 231.132 279.686 170.618C279.686 110.105 230.63 61.0486 170.117 61.0486C109.603 61.0486 60.5474 110.105 60.5474 170.618C60.5474 231.132 109.603 280.188 170.117 280.188Z" stroke="#121B23" stroke-width="6.64058" stroke-miterlimit="10"/>
<path d="M170.116 307.857C245.911 307.857 307.355 246.413 307.355 170.618C307.355 94.8235 245.911 33.3796 170.116 33.3796C94.3211 33.3796 32.8773 94.8235 32.8773 170.618C32.8773 246.413 94.3211 307.857 170.116 307.857Z" stroke="#121B23" stroke-width="6.64058" stroke-miterlimit="10"/>
<path d="M338.068 157.005C339.291 157.005 340.282 156.014 340.282 154.792C340.282 153.569 339.291 152.578 338.068 152.578C336.846 152.578 335.855 153.569 335.855 154.792C335.855 156.014 336.846 157.005 338.068 157.005Z" fill="#9489FE"/>
<path d="M271.33 292.971C272.552 292.971 273.544 291.98 273.544 290.757C273.544 289.535 272.552 288.544 271.33 288.544C270.107 288.544 269.116 289.535 269.116 290.757C269.116 291.98 270.107 292.971 271.33 292.971Z" fill="#9489FE"/>
<path d="M207.748 28.9527C208.97 28.9527 209.961 27.9617 209.961 26.7392C209.961 25.5167 208.97 24.5256 207.748 24.5256C206.525 24.5256 205.534 25.5167 205.534 26.7392C205.534 27.9617 206.525 28.9527 207.748 28.9527Z" fill="#9489FE"/>
<path d="M28.9481 222.913C30.1706 222.913 31.1617 221.922 31.1617 220.699C31.1617 219.477 30.1706 218.486 28.9481 218.486C27.7256 218.486 26.7346 219.477 26.7346 220.699C26.7346 221.922 27.7256 222.913 28.9481 222.913Z" fill="#9489FE"/>
<path d="M5.98355 127.897C7.20604 127.897 8.19707 126.906 8.19707 125.684C8.19707 124.461 7.20604 123.47 5.98355 123.47C4.76105 123.47 3.77002 124.461 3.77002 125.684C3.77002 126.906 4.76105 127.897 5.98355 127.897Z" fill="#9489FE"/>
<path d="M102.989 28.9527C104.212 28.9527 105.203 27.9617 105.203 26.7392C105.203 25.5167 104.212 24.5256 102.989 24.5256C101.767 24.5256 100.776 25.5167 100.776 26.7392C100.776 27.9617 101.767 28.9527 102.989 28.9527Z" fill="#9489FE"/>
<path d="M194.133 80.0296C195.356 80.0296 196.347 79.0386 196.347 77.8161C196.347 76.5936 195.356 75.6025 194.133 75.6025C192.911 75.6025 191.92 76.5936 191.92 77.8161C191.92 79.0386 192.911 80.0296 194.133 80.0296Z" fill="#40DCAF"/>
<path d="M197.289 275.152C198.512 275.152 199.503 274.161 199.503 272.938C199.503 271.716 198.512 270.725 197.289 270.725C196.067 270.725 195.076 271.716 195.076 272.938C195.076 274.161 196.067 275.152 197.289 275.152Z" fill="#40DCAF"/>
<path d="M82.7387 110.853C83.9612 110.853 84.9522 109.862 84.9522 108.64C84.9522 107.417 83.9612 106.426 82.7387 106.426C81.5162 106.426 80.5251 107.417 80.5251 108.64C80.5251 109.862 81.5162 110.853 82.7387 110.853Z" fill="#40DCAF"/>
<path d="M264.084 196.848C265.306 196.848 266.297 195.857 266.297 194.635C266.297 193.412 265.306 192.421 264.084 192.421C262.861 192.421 261.87 193.412 261.87 194.635C261.87 195.857 262.861 196.848 264.084 196.848Z" fill="#121B23"/>
<path d="M235.916 186.445C237.138 186.445 238.129 185.454 238.129 184.231C238.129 183.009 237.138 182.018 235.916 182.018C234.693 182.018 233.702 183.009 233.702 184.231C233.702 185.454 234.693 186.445 235.916 186.445Z" fill="#F9FAFB"/>
<path d="M138.962 230.494C140.184 230.494 141.175 229.503 141.175 228.28C141.175 227.058 140.184 226.067 138.962 226.067C137.739 226.067 136.748 227.058 136.748 228.28C136.748 229.503 137.739 230.494 138.962 230.494Z" fill="#F9FAFB"/>
<path d="M140.455 101.446C141.678 101.446 142.669 100.455 142.669 99.2321C142.669 98.0096 141.678 97.0186 140.455 97.0186C139.233 97.0186 138.242 98.0096 138.242 99.2321C138.242 100.455 139.233 101.446 140.455 101.446Z" fill="#121B23"/>
<path d="M267.239 82.2432C268.462 82.2432 269.453 81.2522 269.453 80.0297C269.453 78.8072 268.462 77.8162 267.239 77.8162C266.017 77.8162 265.026 78.8072 265.026 80.0297C265.026 81.2522 266.017 82.2432 267.239 82.2432Z" fill="#121B23"/>
<path d="M87.6649 277.974C88.8874 277.974 89.8785 276.983 89.8785 275.761C89.8785 274.538 88.8874 273.547 87.6649 273.547C86.4424 273.547 85.4514 274.538 85.4514 275.761C85.4514 276.983 86.4424 277.974 87.6649 277.974Z" fill="#121B23"/>
<path d="M140.455 40.4629C141.678 40.4629 142.669 39.4719 142.669 38.2494C142.669 37.0269 141.678 36.0359 140.455 36.0359C139.233 36.0359 138.242 37.0269 138.242 38.2494C138.242 39.4719 139.233 40.4629 140.455 40.4629Z" fill="#121B23"/>
<path d="M246.707 255.894C247.93 255.894 248.921 254.903 248.921 253.681C248.921 252.458 247.93 251.467 246.707 251.467C245.485 251.467 244.494 252.458 244.494 253.681C244.494 254.903 245.485 255.894 246.707 255.894Z" fill="#121B23"/>
<path opacity="0.4" d="M136.065 287.802C136.065 314.626 151.557 336.316 170.716 336.316C189.875 336.316 205.367 314.626 205.367 287.802V168.504H136.065V287.802Z" fill="#F9FAFB" stroke="url(#paint0_linear)" stroke-width="0.591316" stroke-miterlimit="10"/>
<path d="M170.613 203.486C189.827 203.486 205.404 187.91 205.404 168.696C205.404 149.481 189.827 133.905 170.613 133.905C151.399 133.905 135.823 149.481 135.823 168.696C135.823 187.91 151.399 203.486 170.613 203.486Z" fill="#121B23" stroke="#40DCAF" stroke-width="1.10819" stroke-miterlimit="10"/>
<path d="M173.491 169.361C176.15 168.252 177.924 165.593 177.924 162.601C177.924 158.5 174.599 155.287 170.609 155.287C166.509 155.287 163.295 158.611 163.295 162.601C163.295 165.593 165.179 168.252 167.728 169.361L165.069 182.105H176.15L173.491 169.361Z" fill="url(#paint1_linear)"/>
<defs>
<linearGradient id="paint0_linear" x1="170.707" y1="168.087" x2="170.707" y2="336.69" gradientUnits="userSpaceOnUse">
<stop stop-color="#121B23" stop-opacity="0.3"/>
<stop offset="1" stop-color="#121B23"/>
</linearGradient>
<linearGradient id="paint1_linear" x1="170.593" y1="154.281" x2="170.593" y2="197.025" gradientUnits="userSpaceOnUse">
<stop stop-color="#40DCAF"/>
<stop offset="1" stop-color="#121B23"/>
</linearGradient>
</defs>
</svg>
