<svg width="582" height="349" viewBox="0 0 582 349" fill="none" xmlns="http://www.w3.org/2000/svg">
<mask id="mask0" mask-type="alpha" maskUnits="userSpaceOnUse" x="26" y="21" width="530" height="297">
<rect x="26.5665" y="21.0039" width="529" height="296.879" rx="4" fill="#40DCAF"/>
</mask>
<g mask="url(#mask0)">
<path d="M682.718 469.134C661.425 490.548 634.26 505.167 604.658 511.142C564.963 519.155 523.712 511.07 489.977 488.668C456.243 466.265 432.79 431.379 424.778 391.685C418.803 362.083 421.739 331.374 433.217 303.441C444.695 275.509 464.198 251.607 489.259 234.759C514.321 217.91 543.816 208.872 574.015 208.786C604.213 208.701 633.759 217.572 658.916 234.279L632.039 274.75C614.887 263.359 594.742 257.31 574.152 257.368C553.562 257.427 533.452 263.589 516.364 275.077C499.277 286.564 485.979 302.861 478.154 321.906C470.328 340.951 468.326 361.889 472.4 382.072C477.863 409.136 493.854 432.922 516.854 448.197C539.855 463.471 567.981 468.983 595.045 463.52C615.228 459.446 633.75 449.479 648.268 434.878L682.718 469.134Z" fill="url(#paint0_linear)"/>
<path d="M581.544 478.702C646.822 472.106 694.35 413.418 687.701 347.619C681.052 281.82 622.744 233.827 557.466 240.423C492.188 247.02 444.66 305.708 451.309 371.507C457.958 437.305 516.266 485.299 581.544 478.702Z" fill="white"/>
<path d="M130.332 -39.4875C138.231 -10.3399 137.309 20.4952 127.683 49.1187C114.774 87.5015 87.1473 119.185 50.879 137.198C14.6107 155.211 -27.3279 158.079 -65.7107 145.171C-94.3342 135.545 -119.46 117.647 -137.912 93.7405C-156.363 69.8344 -167.312 40.9935 -169.372 10.8651C-171.432 -19.2632 -164.512 -49.326 -149.487 -75.5215C-134.461 -101.717 -112.006 -122.869 -84.9591 -136.302L-63.3485 -92.7905C-81.7893 -83.6315 -97.1001 -69.2099 -107.345 -51.3494C-117.589 -33.4888 -122.307 -12.9915 -120.903 7.55058C-119.498 28.0927 -112.033 47.7569 -99.4526 64.0565C-86.8721 80.3562 -69.7406 92.5593 -50.2246 99.1225C-24.0545 107.924 4.54 105.968 29.2684 93.6864C53.9968 81.4047 72.8334 59.8026 81.6345 33.6325C88.1978 14.1165 88.8265 -6.90741 83.4412 -26.7807L130.332 -39.4875Z" fill="url(#paint1_linear)"/>
<path d="M94.0321 57.0635C120.958 -2.76716 93.8973 -73.2718 33.5893 -100.413C-26.7187 -127.554 -97.4361 -101.054 -124.363 -41.2236C-151.289 18.6071 -124.228 89.1117 -63.9198 116.253C-3.61177 143.394 67.1057 116.894 94.0321 57.0635Z" fill="white"/>
</g>
<defs>
<linearGradient id="paint0_linear" x1="565.301" y1="218.118" x2="526.5" y2="494.788" gradientUnits="userSpaceOnUse">
<stop stop-color="#27D3A2"/>
<stop offset="1" stop-color="#9388FD"/>
</linearGradient>
<linearGradient id="paint1_linear" x1="-145.763" y1="-63.3091" x2="74.4401" y2="108.629" gradientUnits="userSpaceOnUse">
<stop stop-color="#27D3A2"/>
<stop offset="1" stop-color="#9388FD"/>
</linearGradient>
</defs>
</svg>
