<svg width="142" height="44" viewBox="0 0 142 44" fill="none" xmlns="http://www.w3.org/2000/svg">
<g clip-path="url(#clip0)">
<path d="M122.385 0.584229C128.148 0.584229 133.911 0.584229 139.674 0.584229C140.732 0.584229 140.951 0.803072 140.951 1.86082C140.951 11.7817 140.951 21.7391 140.987 31.66C140.987 32.8636 140.622 33.5202 139.565 34.1038C134.093 37.1676 128.659 40.3043 123.188 43.4046C122.568 43.7693 122.057 43.7693 121.437 43.4046C115.784 40.1584 110.13 36.9487 104.44 33.739C103.93 33.4108 103.711 33.046 103.711 32.3895C103.747 22.2133 103.711 12.0735 103.711 1.89729C103.711 0.803072 103.93 0.584229 105.06 0.584229C110.823 0.584229 116.622 0.584229 122.385 0.584229ZM123.188 41.3985C128.258 38.4806 133.291 35.6357 138.434 32.6813C133.328 29.7269 128.294 26.8454 123.188 23.9275C123.188 29.8363 123.188 35.5627 123.188 41.3985ZM121.473 41.3985C121.473 35.5992 121.473 29.9093 121.473 24.1099C116.404 26.9913 111.443 29.8728 106.373 32.7907C111.443 35.6721 116.404 38.5171 121.473 41.3985ZM105.425 10.8699C110.422 8.02491 115.309 5.21642 120.197 2.40792C120.16 2.37145 120.16 2.33498 120.124 2.2985C115.236 2.2985 110.349 2.2985 105.425 2.2985C105.425 5.14347 105.425 7.95196 105.425 10.8699ZM124.537 2.2985C124.537 2.33498 124.501 2.37145 124.501 2.40792C129.388 5.21642 134.276 8.02491 139.236 10.8699C139.236 7.95196 139.236 5.14347 139.236 2.2985C134.312 2.2985 129.425 2.2985 124.537 2.2985ZM113.777 18.5659C111.48 22.5051 109.218 26.4442 106.957 30.3469C106.993 30.3834 107.03 30.4199 107.066 30.4564C111.589 27.8302 116.112 25.2406 120.78 22.578C118.373 21.192 116.075 19.8789 113.777 18.5659ZM130.118 17.2163C127.82 13.2772 125.559 9.37444 123.224 5.32584C123.224 10.724 123.224 15.9033 123.224 21.1555C125.559 19.806 127.82 18.5294 130.118 17.2163ZM138.507 12.3653C133.875 9.73918 129.388 7.14953 124.866 4.55989C124.829 4.59636 124.793 4.63283 124.793 4.66931C127.054 8.57202 129.315 12.4383 131.577 16.3774C133.911 15.0279 136.172 13.7513 138.507 12.3653ZM112.319 17.727C109.984 16.4139 107.759 15.1008 105.425 13.7878C105.425 19.0765 105.425 24.2193 105.425 29.3622C105.461 29.3986 105.498 29.3986 105.534 29.3986C107.796 25.5324 110.021 21.6662 112.319 17.727ZM119.905 4.66931C119.869 4.63283 119.832 4.59636 119.796 4.55989C115.309 7.14953 110.823 9.70271 106.264 12.3288C108.635 13.6784 110.86 14.955 113.157 16.268C115.419 12.4018 117.68 8.53554 119.905 4.66931ZM114.616 17.1069C116.914 18.42 119.139 19.6966 121.437 21.0096C121.437 15.7939 121.437 10.6875 121.437 5.39879C119.103 9.37444 116.878 13.2407 114.616 17.1069ZM139.09 29.3257C139.127 29.3257 139.163 29.2892 139.2 29.2892C139.2 24.1829 139.2 19.113 139.2 13.8972C136.902 15.2103 134.677 16.4869 132.379 17.7999C134.677 21.7026 136.902 25.5324 139.09 29.3257ZM137.522 30.2375C137.558 30.2011 137.595 30.1646 137.631 30.1281C135.407 26.2983 133.218 22.5051 130.957 18.6388C128.659 19.9519 126.434 21.2285 124.136 22.5415C128.695 25.1676 133.109 27.7208 137.522 30.2375Z" fill="#F9FAFB"/>
</g>
<path fill-rule="evenodd" clip-rule="evenodd" d="M0.437256 26.47V17.044L2.65512 14.8262H8.87308L11.0117 16.9648V18.5292H9.11071V17.6381L7.96217 16.4896H3.56604L2.33829 17.7173V25.7967L3.56604 27.0245H7.96217L9.11071 25.8759V24.9848H11.0117V26.5492L8.87308 28.6879H2.65512L0.437256 26.47ZM13.289 14.8262H22.5962V16.4896H15.19V20.9055H22.0219V22.5491H15.19V27.0245H22.5962V28.6879H13.289V14.8262ZM35.1509 24.3313V28.6879H33.2498V24.8066L31.6062 23.0442H26.8735V28.6879H24.9724V14.8262H33.1508L35.0717 16.747V21.0639L33.5469 22.5887L35.1509 24.3313ZM26.8735 21.4204H32.2993L33.1904 20.5491V17.3213L32.2993 16.45H26.8735V21.4204ZM40.9134 16.4698H36.7351V14.8262H46.9927V16.4698H42.8144V28.6879H40.9134V16.4698ZM48.4779 26.47V17.044L50.6958 14.8262H57.2306L59.4484 17.044V26.47L57.2306 28.6879H50.6958L48.4779 26.47ZM56.3197 27.0245L57.5474 25.7967V17.7173L56.3197 16.4896H51.6067L50.3789 17.7173V25.7967L51.6067 27.0245H56.3197ZM72.3992 24.3313V28.6879H70.4982V24.8066L68.8546 23.0442H64.1218V28.6879H62.2208V14.8262H70.3992L72.32 16.747V21.0639L70.7952 22.5887L72.3992 24.3313ZM64.1218 21.4204H69.5477L70.4388 20.5491V17.3213L69.5477 16.45H64.1218V21.4204ZM79.0528 14.8262H80.9539L85.944 28.6879H83.9836L82.7559 25.163H77.2706L76.0428 28.6879H74.0824L79.0528 14.8262ZM82.2608 23.559L80.0231 17.0836H79.9835L77.7855 23.559H82.2608Z" fill="#F9FAFB"/>
<defs>
<clipPath id="clip0">
<rect x="103.711" y="0.584229" width="37.3128" height="43.1122" fill="white"/>
</clipPath>
</defs>
</svg>
