<svg width="65" height="64" viewBox="0 0 65 64" fill="none" xmlns="http://www.w3.org/2000/svg">
<g clip-path="url(#clip0)">
<path d="M32.5688 64C50.2419 64 64.5688 49.6731 64.5688 32C64.5688 14.3269 50.2419 0 32.5688 0C14.8957 0 0.568848 14.3269 0.568848 32C0.568848 49.6731 14.8957 64 32.5688 64Z" fill="white"/>
<path d="M64.0688 32C64.0688 49.397 49.9658 63.5 32.5688 63.5C15.1719 63.5 1.06885 49.397 1.06885 32C1.06885 14.603 15.1719 0.5 32.5688 0.5C49.9658 0.5 64.0688 14.603 64.0688 32Z" stroke="#AAB8C1" stroke-opacity="0.4"/>
<path d="M43.498 12.7419H29.8467V19.1614H40.5728H42.523V21.3012V31.4652C42.523 38.5265 32.1382 46.7647 30.968 47.6741L29.8467 48.5301V51.2583H43.498C44.5707 51.2583 45.4482 50.2954 45.4482 49.1185V14.8817C45.4482 13.7049 44.5707 12.7419 43.498 12.7419Z" fill="#B6E9FF"/>
<path d="M19.1206 21.301V31.4651C19.1206 37.6169 29.8467 45.9087 29.8467 45.9087V21.301H19.1206Z" fill="#58B2FA"/>
<path d="M40.5728 31.4651V21.301H29.8467V45.9087C29.8467 45.9087 40.5728 37.6169 40.5728 31.4651Z" fill="#1752EE"/>
</g>
<defs>
<clipPath id="clip0">
<rect x="0.284424" width="64" height="64" fill="white"/>
</clipPath>
</defs>
</svg>
