<svg width="144" height="48" viewBox="0 0 144 48" fill="none" xmlns="http://www.w3.org/2000/svg">
<path d="M0.664062 0.853516C0.811382 0.853516 0.958701 0.88298 1.10602 0.88298C14.3942 0.88298 27.6824 0.88298 40.9706 0.88298C41.118 0.88298 41.2358 0.88298 41.4421 0.88298C40.1751 4.33025 38.9082 7.7186 37.6412 11.1364C32.4556 8.54359 27.2994 5.95077 22.0843 3.35794C22.0843 12.7275 22.0843 22.038 22.0843 31.4075C21.4066 31.4075 20.7584 31.4075 20.0808 31.4075C20.0808 22.097 20.0808 12.7569 20.0808 3.35794C14.8656 5.98023 9.70947 8.57305 4.49437 11.1659C4.37651 10.8418 4.25865 10.5177 4.1408 10.1936C2.99171 7.18825 1.90155 4.2124 0.781918 1.20708C0.752454 1.14815 0.693526 1.05976 0.664062 0.971371C0.664062 0.941907 0.664062 0.912443 0.664062 0.853516ZM3.58099 2.94545C4.25865 4.74275 4.90686 6.51058 5.58453 8.30787C9.14966 6.51058 12.6853 4.74275 16.1915 2.97491C16.1915 2.94545 16.1621 2.94545 16.1621 2.91599C12.0077 2.94545 7.82378 2.94545 3.58099 2.94545ZM38.4957 2.94545C34.2823 2.94545 30.069 2.94545 25.8851 2.94545V2.97491C29.4208 4.74275 32.9565 6.51058 36.4921 8.30787C37.1698 6.51058 37.818 4.74275 38.4957 2.94545Z" fill="#F9FAFB"/>
<path d="M129.568 0.559416C129.568 6.06916 129.568 11.6084 129.568 17.1476C130.217 17.236 130.865 17.2949 131.513 17.3833C131.483 17.619 131.454 17.8547 131.425 18.0904C129.686 18.0904 127.948 18.0904 126.18 18.0904C126.151 17.8842 126.092 17.6485 126.062 17.3833C126.563 17.2949 127.064 17.236 127.565 17.1476C127.565 14.0833 127.565 10.9896 127.565 7.89592C125.826 7.89592 124.088 7.89592 122.32 7.89592C122.32 10.9896 122.32 14.0539 122.32 17.1181C123.027 17.177 123.705 17.2065 124.442 17.2654C124.412 17.5601 124.353 17.7958 124.324 18.061C122.409 18.061 120.552 18.061 118.637 18.061C118.608 17.8547 118.549 17.619 118.519 17.3538C119.138 17.2654 119.698 17.2065 120.317 17.1181C120.317 14.0539 120.317 10.9602 120.317 7.86646C119.61 7.86646 118.902 7.86646 118.166 7.86646C118.077 7.60128 118.166 7.4245 118.284 7.24772C118.608 6.74683 119.02 6.54058 119.58 6.62897C119.816 6.65844 120.051 6.62897 120.287 6.62897C120.317 6.21648 120.346 5.80399 120.405 5.39149C120.552 4.47811 120.994 3.68259 121.584 2.97545C122.173 2.26832 122.762 1.56119 123.351 0.824591C123.469 0.677272 123.617 0.618344 123.823 0.618344C125.178 0.618344 126.534 0.58888 127.859 0.559416C128.007 0.559416 128.154 0.529952 128.301 0.500488C128.743 0.559416 129.156 0.559416 129.568 0.559416ZM127.565 2.03261C127.506 2.03261 127.447 2.03261 127.417 2.06207C126.563 2.47457 125.65 2.5335 124.707 2.47457C124.353 2.4451 123.97 2.47457 123.617 2.47457C123.499 2.47457 123.381 2.5335 123.293 2.62189C122.703 3.1817 122.379 3.85937 122.379 4.68436C122.35 5.36203 122.379 6.06916 122.379 6.74683C124.117 6.74683 125.856 6.74683 127.594 6.74683C127.565 5.18524 127.565 3.62366 127.565 2.03261Z" fill="#F9FAFB"/>
<path d="M26.1216 21.3309C26.1216 20.6237 26.1216 19.9755 26.1216 19.2979C28.1546 19.2979 30.1582 19.2979 32.1912 19.2979C32.1912 26.7227 32.1912 34.1476 32.1912 41.5725C24.7663 41.5725 17.3709 41.5725 9.9165 41.5725C9.9165 34.1476 9.9165 26.7227 9.9165 19.2979C11.92 19.2979 13.9236 19.2979 15.9566 19.2979C15.9566 19.9755 15.9566 20.6237 15.9566 21.3014C14.6013 21.3014 13.2754 21.3014 11.92 21.3014C11.92 27.4004 11.92 33.47 11.92 39.5395C17.9896 39.5395 24.0592 39.5395 30.1582 39.5395C30.1582 33.47 30.1582 27.4004 30.1582 21.3014C28.8323 21.3309 27.477 21.3309 26.1216 21.3309Z" fill="#F9FAFB"/>
<path d="M46.2458 18.1197C46.2163 17.884 46.1574 17.6482 46.1279 17.3536C46.511 17.2947 46.894 17.2357 47.277 17.1768C47.66 17.1179 48.0431 17.059 48.4556 17.0295C48.4556 16.9116 48.4556 16.7938 48.4556 16.7054C48.4556 11.9028 48.4556 7.12964 48.4556 2.32703C48.4556 2.03239 48.3672 1.944 48.102 1.91454C47.5422 1.85561 46.9529 1.76722 46.3931 1.67883C46.3047 1.67883 46.2458 1.64936 46.1574 1.6199C46.1869 1.35472 46.2458 1.11901 46.2752 0.912765C46.8056 0.912765 47.3359 0.912765 47.8663 0.912765C50.135 0.912765 52.4037 0.883301 54.7019 0.883301C56.2046 0.883301 57.6188 1.17794 58.9152 1.944C60.5652 2.91631 61.567 4.36004 62.0384 6.15733C62.5688 8.24927 62.5393 10.3412 61.9206 12.4037C61.1545 14.9965 59.3572 16.617 56.8528 17.4715C55.3501 18.0018 53.818 18.1197 52.2564 18.0607C50.5475 18.0018 48.8386 18.0607 47.1297 18.0607C46.8056 18.1197 46.5404 18.1197 46.2458 18.1197ZM50.6654 2.00293C50.6654 6.95286 50.6654 11.8733 50.6654 16.8233C51.5198 16.8822 52.3743 16.9116 53.2287 17.0295C55.4385 17.2947 57.7072 16.234 58.8563 13.9358C60.0938 11.4608 60.2117 8.86801 59.3867 6.24572C58.6795 4.0654 57.1769 2.65113 54.9082 2.09132C53.4939 1.73775 52.0796 1.97346 50.6654 2.00293Z" fill="#F9FAFB"/>
<path d="M84.4598 18.1172C84.1652 17.9404 83.8705 17.8225 83.5759 17.6163C82.9572 17.2038 82.6331 16.3199 82.8098 15.6128C82.8393 15.5244 82.9277 15.4654 83.0161 15.4065C83.7232 14.9056 84.4303 14.3753 85.1964 13.8449C85.0491 13.786 84.9312 13.7271 84.7839 13.6681C81.9554 12.4307 82.2795 9.36641 83.7821 7.95215C84.7545 7.03877 85.9625 6.44949 87.2294 6.27271C88.4669 6.09592 89.6455 6.50842 90.6178 7.33341C90.6767 7.39233 90.7356 7.45126 90.824 7.51019C91.2365 7.12716 91.6195 6.74413 92.032 6.3611C92.1204 6.27271 92.2972 6.21378 92.4151 6.21378C92.7981 6.18431 93.1811 6.21378 93.5641 6.21378C93.5641 6.83252 93.5641 7.39233 93.5641 8.01107C92.7981 7.98161 92.032 7.95215 91.4722 8.42357C91.5311 8.95392 91.6195 9.4548 91.6195 9.95569C91.5901 11.1342 91.0008 12.0476 90.0579 12.7548C89.1446 13.4324 88.1133 13.786 87.0232 14.0806C86.9348 14.1101 86.8169 14.1101 86.7285 14.0806C86.316 13.9628 86.0509 14.169 85.8152 14.4931C85.55 14.8467 85.2259 15.1708 84.9312 15.5244C84.6661 15.8485 84.6955 16.2315 85.0491 16.4377C85.2259 16.5261 85.4321 16.5851 85.6384 16.5851C87.1116 16.5851 88.6142 16.5851 90.0874 16.5851C90.5588 16.5851 91.0008 16.644 91.4722 16.7618C92.8865 17.1154 93.5641 18.3529 93.1222 19.7377C92.7981 20.7689 92.091 21.4761 91.266 22.0948C90.058 23.0082 88.7026 23.6269 87.2589 24.01C86.7875 24.1278 86.2866 24.0394 85.7857 24.01C84.9902 23.951 84.1946 23.7742 83.458 23.3912C82.0438 22.6546 81.8081 21.4171 81.867 20.2975C81.867 20.2091 81.9848 20.0913 82.0732 20.0323C82.7804 19.4431 83.4875 18.8538 84.1946 18.2645C84.3125 18.235 84.3714 18.1761 84.4598 18.1172ZM87.1705 22.7725C88.2017 22.7725 89.1151 22.4778 89.9106 21.8591C90.4999 21.3877 90.9419 20.8279 91.0892 20.0618C91.2954 19.1484 90.9713 18.6475 90.0579 18.4413C89.7928 18.3824 89.5276 18.3529 89.2919 18.3529C88.0249 18.3234 86.7875 18.3234 85.5205 18.3234C85.4321 18.3234 85.2848 18.3529 85.2259 18.4118C84.8134 18.9716 84.3714 19.502 83.9884 20.0618C83.6938 20.5332 83.7527 21.0341 84.0768 21.4761C84.2536 21.7412 84.5187 21.9475 84.7839 22.1243C85.5205 22.6252 86.3455 22.743 87.1705 22.7725ZM84.6955 9.8673C84.725 10.1619 84.7545 10.4566 84.8134 10.7218C85.108 12.2539 86.1393 13.0789 87.6419 12.9905C88.5258 12.9315 89.2919 12.4307 89.4981 11.6057C89.8222 10.3093 89.5865 9.10124 88.7321 8.07C88.1133 7.36287 87.2883 7.18609 86.375 7.39233C85.55 7.56912 85.0491 8.15839 84.8428 8.98338C84.7545 9.27802 84.725 9.60212 84.6955 9.8673Z" fill="#F9FAFB"/>
<path d="M75.6798 41.2183C75.6798 42.8094 75.6798 44.4004 75.6798 46.0209C76.5637 46.1093 77.4181 46.1977 78.3315 46.2861C78.3021 46.5218 78.2726 46.728 78.2137 46.9343C78.1842 46.9932 78.0663 47.0816 77.9779 47.0816C77.0351 47.0816 76.0923 47.0227 75.1789 47.0227C74.2066 47.0227 73.2343 47.0521 72.262 47.0816C72.1736 47.0816 72.1146 47.0816 71.9968 47.0816C71.9673 46.8164 71.9084 46.5807 71.8495 46.3156C72.4387 46.2272 73.028 46.1388 73.6468 46.0504C73.6468 41.1594 73.6468 36.2389 73.6468 31.3184C73.0575 31.3774 72.4682 31.4363 71.8495 31.4952C71.82 31.2595 71.7611 31.0238 71.7021 30.7292C72.9396 30.464 74.1182 29.9042 75.4441 29.8747C75.4735 30.5229 75.5324 31.1711 75.5619 31.8488C75.6503 31.7899 75.7092 31.7604 75.7682 31.7309C76.6521 31.0533 77.5655 30.3756 78.4494 29.6979C78.5378 29.639 78.6556 29.5801 78.744 29.5801C80.1583 29.5801 81.4252 29.9631 82.3975 31.0238C83.1341 31.8193 83.4582 32.7916 83.635 33.8229C83.8118 35.0014 83.8118 36.18 83.5172 37.3585C83.0457 39.1558 81.9261 40.4228 80.2172 41.1005C79.4511 41.3951 78.5967 41.6013 77.7717 41.7487C77.094 41.8665 76.4458 41.6308 75.8566 41.3362C75.7976 41.3067 75.7387 41.2772 75.6798 41.2478C75.7092 41.2183 75.7092 41.2183 75.6798 41.2183ZM75.6798 36.0621C75.6798 37.005 75.6798 37.9478 75.6798 38.8907C75.6798 39.0085 75.7387 39.1853 75.7976 39.2737C76.5048 40.246 78.0369 40.8058 79.2154 40.5112C80.3351 40.2165 80.9538 39.421 81.3368 38.3898C81.7788 37.1818 81.7788 35.9443 81.6315 34.7068C81.5136 33.8229 81.3074 32.9979 80.8065 32.2613C80.0993 31.2006 79.0976 30.906 77.9485 31.5247C77.1824 31.9372 76.4753 32.4675 75.7682 32.9684C75.6798 33.0274 75.6503 33.1747 75.6503 33.2925C75.6503 34.1764 75.6798 35.1193 75.6798 36.0621Z" fill="#F9FAFB"/>
<path d="M61.4184 28.7833C61.0354 28.7833 60.7113 28.7833 60.3577 28.7833C60.1809 28.7833 60.122 28.7243 60.0631 28.577C59.8568 27.9877 59.68 27.3985 59.4443 26.8092C59.3559 26.6029 59.2381 26.4262 59.0908 26.2788C56.3212 23.9217 50.5757 24.2753 49.1909 29.4609C48.4543 32.2305 48.69 34.9412 50.2811 37.4162C51.6659 39.5376 53.6399 40.6572 56.2328 40.5394C57.2935 40.4804 58.2068 39.9795 59.0024 39.3019C59.2675 39.0662 59.3854 38.6537 59.5327 38.3296C59.7979 37.8287 60.0631 37.2983 60.3282 36.7974C60.3872 36.7091 60.5345 36.6207 60.6523 36.5912C60.9764 36.5617 61.33 36.5912 61.713 36.5912C61.4773 37.6519 61.2711 38.7126 61.0354 39.7438C61.0059 39.8028 60.9175 39.8911 60.8586 39.9206C59.1202 40.7456 57.3229 41.4233 55.4078 41.7474C54.4649 41.9242 53.5515 41.7179 52.6382 41.4527C49.1025 40.4804 46.7749 37.6224 46.4508 33.9984C46.3034 32.1422 46.4802 30.3449 47.3052 28.6654C48.2481 26.7797 49.7802 25.5128 51.6953 24.7173C52.9623 24.1869 54.2881 23.7744 55.6729 23.7744C57.7354 23.7744 59.5622 24.4815 61.2416 25.6306C61.33 25.6896 61.3889 25.778 61.3889 25.8663C61.4479 26.8092 61.4184 27.7815 61.4184 28.7833Z" fill="#F9FAFB"/>
<path d="M110.033 17.3512C110.004 17.6164 109.945 17.8521 109.915 18.0878C108.265 18.0878 106.615 18.0878 104.906 18.0878C104.877 17.8815 104.818 17.6164 104.788 17.3512C105.407 17.2628 105.996 17.2039 106.615 17.1155C106.615 14.0807 106.615 11.0754 106.615 8.04061C106.026 8.09954 105.437 8.15847 104.847 8.2174C104.818 7.95222 104.759 7.71651 104.729 7.4808C105.378 7.1567 107.794 6.56742 108.412 6.62635C108.471 7.27455 108.501 7.95222 108.56 8.65936C108.707 8.57096 108.795 8.51204 108.884 8.45311C109.886 7.77544 110.917 7.09777 111.919 6.44957C112.066 6.36117 112.243 6.30225 112.39 6.30225C112.803 6.30225 113.215 6.33171 113.628 6.39064C114.924 6.59688 115.543 7.30402 115.69 8.65936C115.749 9.10131 115.749 9.57274 115.778 10.0147C115.778 12.2834 115.778 14.5521 115.778 16.8503C115.778 17.1155 115.867 17.2039 116.103 17.2039C116.633 17.2333 117.193 17.3217 117.782 17.3807C117.753 17.6458 117.694 17.8815 117.664 18.1173C115.985 18.1173 114.335 18.1173 112.655 18.1173C112.626 17.8815 112.567 17.6458 112.537 17.3807C112.979 17.2923 113.392 17.2333 113.834 17.145C113.834 17.0271 113.834 16.9387 113.834 16.8208C113.834 14.5816 113.834 12.3423 113.834 10.1031C113.834 10.0442 113.834 9.95577 113.834 9.89684C113.775 8.2174 112.596 7.86383 111.447 8.18793C111.064 8.30579 110.711 8.48257 110.357 8.68882C109.827 8.98346 109.326 9.33702 108.796 9.69059C108.707 9.74952 108.648 9.86737 108.648 9.98523C108.648 12.3129 108.648 14.6405 108.648 16.9976C108.648 17.1744 108.707 17.2333 108.854 17.2333C109.208 17.2039 109.591 17.2923 110.033 17.3512Z" fill="#F9FAFB"/>
<path d="M140.205 7.63068C139.822 7.54229 139.469 7.45389 139.086 7.3655C139.115 7.10033 139.145 6.86462 139.204 6.62891C140.588 6.62891 141.973 6.62891 143.387 6.62891C143.417 6.83515 143.476 7.10033 143.505 7.3655C143.063 7.42443 142.651 7.51282 142.209 7.54229C141.973 7.57175 141.855 7.66014 141.767 7.89585C140.529 11.1074 139.321 14.3484 138.025 17.5305C137.171 19.593 136.228 21.626 135.314 23.6885C135.285 23.7474 135.167 23.8653 135.108 23.8653C134.283 23.8653 133.429 23.8653 132.574 23.8653C132.574 23.1287 132.574 22.4215 132.574 21.6555C132.957 21.6555 133.34 21.626 133.723 21.6555C134.254 21.7144 134.548 21.5082 134.813 21.0662C135.403 20.0644 136.021 19.0921 136.64 18.1198C136.67 18.0609 136.729 17.9725 136.788 17.8841C136.611 17.943 136.463 17.9725 136.257 18.002C135.992 17.3538 135.756 16.7055 135.491 16.0279C134.43 13.3172 133.399 10.6065 132.338 7.86639C132.25 7.63068 132.132 7.54229 131.897 7.54229C131.455 7.48336 131.042 7.42443 130.6 7.3655C130.63 7.10033 130.688 6.86462 130.718 6.62891C132.456 6.62891 134.165 6.62891 135.933 6.62891C135.963 6.83515 136.021 7.10033 136.051 7.3655C135.462 7.45389 134.931 7.54229 134.342 7.63068C134.725 8.69138 135.079 9.72261 135.462 10.7244C135.904 11.9324 136.316 13.1404 136.758 14.319C136.964 14.8788 137.082 15.4681 137.112 16.0868C137.112 16.2047 137.141 16.3225 137.229 16.4404C138.231 13.5235 139.204 10.6065 140.205 7.63068Z" fill="#F9FAFB"/>
<path d="M93.3286 12.5803C93.3581 11.0482 93.7116 9.60445 94.7723 8.4259C95.6857 7.39466 96.8643 6.89378 98.1607 6.48128C100.577 5.74469 103.287 7.12949 104.23 9.60445C104.908 11.3723 104.908 13.1696 104.171 14.9079C103.435 16.7052 101.962 17.6186 100.164 18.2079C97.1295 19.1802 93.9474 17.1767 93.417 13.7883C93.3875 13.3758 93.3581 12.9633 93.3286 12.5803ZM102.669 12.3446C102.639 12.1383 102.639 11.7259 102.58 11.3428C102.403 10.1643 101.962 9.10357 101.019 8.27858C99.6633 7.07056 97.0705 6.80539 95.9804 9.36874C95.3616 10.8125 95.2438 12.2857 95.5973 13.7883C95.8625 14.9374 96.3929 15.9097 97.3357 16.6463C98.7205 17.6776 100.871 17.7365 101.932 15.674C102.462 14.6722 102.639 13.6115 102.669 12.3446Z" fill="#F9FAFB"/>
<path d="M72.4369 40.1291C72.4664 40.3943 72.4958 40.63 72.5253 40.9246C71.5824 41.1014 70.6396 41.2782 69.6968 41.4845C69.4611 40.8657 69.2253 40.2764 68.9602 39.6282C68.8718 39.6872 68.7834 39.7461 68.695 39.805C67.87 40.4238 67.0155 41.0425 66.1906 41.6318C66.0727 41.7202 65.8959 41.7791 65.7486 41.7791C64.9531 41.7496 64.187 41.5434 63.5683 41.0425C62.4781 40.188 62.1835 38.5381 62.8317 37.2122C63.0674 36.7408 63.3915 36.4167 63.9218 36.2693C65.454 35.7979 66.9861 35.2381 68.5182 34.7372C68.7245 34.6783 68.8128 34.5899 68.7834 34.3542C68.7539 33.6765 68.8128 32.9694 68.7245 32.2917C68.6066 31.2605 68.0763 30.8775 67.045 30.9953C66.4557 31.0542 65.8959 31.231 65.3066 31.3783C65.1888 31.4078 65.0709 31.5551 65.0415 31.673C64.8942 32.1739 64.7763 32.6748 64.6584 33.2051C64.0692 33.2051 63.4799 33.2051 62.8611 33.2051C62.8611 32.6453 62.8611 32.1149 62.8611 31.5846C62.8611 31.5257 62.9495 31.4373 63.0085 31.4078C64.3343 30.8185 65.6307 30.1998 66.9566 29.6105C67.0155 29.5811 67.1039 29.5516 67.1629 29.5811C67.6638 29.6105 68.1646 29.6105 68.6361 29.6989C69.903 29.9346 70.4923 30.5534 70.6396 31.8203C70.6985 32.4096 70.7575 32.9694 70.7575 33.5587C70.7575 35.2087 70.7575 36.8881 70.7575 38.5381C70.7575 39.039 70.8164 39.5398 71.0816 39.9523C71.1405 40.0407 71.2878 40.1291 71.4057 40.1291C71.7298 40.1291 72.0833 40.1291 72.4369 40.1291ZM68.7834 35.5622C68.6361 35.6211 68.5477 35.6506 68.4593 35.6801C67.3986 36.122 66.3379 36.5935 65.2477 37.0059C64.8647 37.1533 64.6584 37.4184 64.5406 37.8015C64.3933 38.2434 64.4227 38.6854 64.5406 39.0979C64.7174 39.7461 65.1888 40.1291 65.8665 40.0997C66.2495 40.0702 66.662 40.0113 66.9861 39.8345C67.5754 39.5104 68.1352 39.0979 68.695 38.7149C68.7539 38.6854 68.8128 38.597 68.8128 38.5086C68.7834 37.5363 68.7834 36.564 68.7834 35.5622Z" fill="#F9FAFB"/>
<path d="M107.706 40.1285C107.353 40.1285 107.029 40.099 106.705 40.1285C106.498 40.1285 106.41 40.0401 106.321 39.8928C106.086 39.4214 106.027 38.891 106.027 38.3607C106.027 36.6517 106.027 34.9134 106.027 33.2045C106.027 32.5857 105.938 31.9375 105.821 31.3188C105.703 30.7295 105.408 30.2286 104.848 29.934C104.053 29.551 103.228 29.5215 102.373 29.551C102.314 29.551 102.285 29.5804 102.226 29.6099C100.93 30.1992 99.6037 30.7884 98.3073 31.3777C98.2484 31.4072 98.16 31.4956 98.1305 31.5545C98.1305 32.0848 98.1305 32.6152 98.1305 33.175C98.7198 33.175 99.2502 33.175 99.81 33.175C99.8689 33.175 99.9573 33.0572 99.9868 32.9982C100.105 32.5563 100.222 32.0848 100.34 31.6134C100.37 31.525 100.458 31.3777 100.517 31.3777C101.195 31.2304 101.872 31.0241 102.58 30.9652C103.463 30.9063 103.935 31.3483 104.023 32.2322C104.082 32.9393 104.053 33.6464 104.082 34.3536C104.082 34.5598 103.994 34.6187 103.817 34.6777C102.255 35.208 100.723 35.7384 99.1618 36.2393C98.6314 36.416 98.3073 36.7107 98.1011 37.1821C97.5118 38.3901 97.6591 39.8044 98.5136 40.7178C99.2207 41.4838 100.164 41.7195 101.165 41.749C101.254 41.749 101.372 41.6901 101.46 41.6311C102.079 41.1892 102.697 40.7472 103.316 40.2758C103.611 40.0696 103.905 39.8338 104.23 39.5981C104.495 40.2463 104.73 40.8356 104.966 41.4544C105.909 41.2776 106.852 41.1008 107.795 40.924C107.765 40.6294 107.736 40.3642 107.706 40.1285ZM104.053 38.508C104.053 38.5669 103.994 38.6553 103.935 38.6848C103.405 39.0678 102.874 39.4508 102.314 39.7749C101.814 40.0696 101.283 40.2169 100.694 40.0401C100.281 39.9222 100.016 39.6571 99.8394 39.274C99.6332 38.7437 99.6332 38.1839 99.81 37.6535C99.9278 37.3294 100.105 37.1232 100.458 36.9759C101.548 36.5339 102.639 36.0625 103.758 35.6205C103.847 35.591 103.935 35.5616 104.053 35.5027C104.082 36.5634 104.082 37.5357 104.053 38.508Z" fill="#F9FAFB"/>
<path d="M72.4094 9.89655C72.4094 9.33673 72.4094 8.80638 72.4094 8.3055C72.4094 8.24657 72.4978 8.12872 72.5862 8.09925C73.8826 7.50997 75.179 6.86177 76.5049 6.33142C76.8584 6.1841 77.3299 6.30196 77.7424 6.30196C77.9191 6.30196 78.0959 6.33142 78.2727 6.39035C79.5397 6.65552 80.1584 7.36265 80.2173 8.80638C80.2763 10.7215 80.2763 12.6367 80.3057 14.5813C80.3057 14.9938 80.3352 15.4358 80.3646 15.8482C80.3646 15.9661 80.3941 16.0545 80.4236 16.1724C80.6004 16.8206 80.6593 16.8795 81.337 16.8795C81.5432 16.8795 81.7494 16.8795 81.9852 16.8795C82.0146 17.1447 82.0441 17.3804 82.0735 17.6455C81.1307 17.8223 80.1879 17.9991 79.245 18.1759C79.0093 17.5572 78.7736 16.9679 78.5084 16.3197C78.3906 16.4081 78.3022 16.467 78.2138 16.5259C77.3888 17.1152 76.5638 17.7339 75.7388 18.3232C75.6504 18.3821 75.5326 18.4705 75.4442 18.4705C74.2951 18.4705 73.2344 18.1464 72.5567 17.1447C71.8496 16.1134 71.8496 14.9938 72.4094 13.8447C72.6156 13.3733 72.9398 13.1081 73.4406 12.9313C75.0022 12.4599 76.5343 11.9001 78.0665 11.3992C78.3022 11.3108 78.3906 11.2224 78.3611 10.9867C78.3316 10.3385 78.3316 9.6903 78.3022 9.07156C78.2432 8.06979 77.7424 7.59837 76.7406 7.68676C76.0924 7.74569 75.4736 7.92247 74.8254 8.06979C74.737 8.09925 74.6192 8.24657 74.5897 8.33496C74.4719 8.77692 74.354 9.24834 74.2362 9.6903C74.2067 9.77869 74.0888 9.86708 74.0299 9.86708C73.529 9.92601 72.9987 9.89655 72.4094 9.89655ZM78.3906 12.2831C78.2432 12.342 78.1254 12.3715 78.037 12.4304C76.9468 12.8724 75.8567 13.3438 74.7665 13.7858C74.5013 13.9036 74.2951 14.051 74.2067 14.3161C73.9415 14.9349 73.9415 15.5831 74.2362 16.1724C74.4129 16.5259 74.7076 16.7027 75.0612 16.8206C75.6799 16.9679 76.2102 16.7911 76.7406 16.467C77.2415 16.1429 77.7424 15.7893 78.2432 15.4652C78.3022 15.4063 78.3906 15.3179 78.3906 15.2295C78.3906 14.2572 78.3906 13.2849 78.3906 12.2831Z" fill="#F9FAFB"/>
<path d="M112.096 40.3942C112.774 40.4826 113.393 40.5416 114.07 40.6299C114.041 40.8657 114.041 41.0719 113.982 41.2487C113.952 41.3371 113.805 41.396 113.687 41.396C112.98 41.396 112.302 41.3371 111.595 41.3371C110.682 41.3371 109.739 41.3665 108.826 41.396C108.708 41.396 108.59 41.396 108.443 41.396C108.413 41.1308 108.354 40.9246 108.325 40.6299C108.914 40.5416 109.503 40.4826 110.122 40.3942C110.122 35.4148 110.122 30.4354 110.122 25.4561C109.533 25.4561 108.973 25.4561 108.354 25.4561C108.325 25.2203 108.266 24.9846 108.236 24.69C109.533 24.3954 110.741 23.8061 112.126 23.8355C112.096 29.3747 112.096 34.8845 112.096 40.3942Z" fill="#F9FAFB"/>
<path d="M93.6822 26.8996C93.6822 27.9603 93.6822 29.0505 93.6822 30.1407C94.9491 30.1407 96.2161 30.1407 97.483 30.1407C97.483 30.4942 97.483 30.8183 97.483 31.1719C96.2161 31.1719 94.9786 31.1719 93.7116 31.1719C93.7116 31.3192 93.6822 31.4076 93.6822 31.5255C93.6822 33.7942 93.6822 36.0629 93.6822 38.3316C93.6822 38.5379 93.7116 38.7441 93.7411 38.9504C93.8295 39.5986 94.242 39.9816 94.8902 40.0111C95.45 40.0405 95.9509 39.8932 96.4812 39.6575C96.6286 39.5986 96.8053 39.5102 96.9821 39.4512C97.1 39.687 97.2178 39.9227 97.3652 40.1878C96.7464 40.5414 96.1571 40.895 95.5384 41.2191C95.4205 41.3075 95.2732 41.3664 95.1554 41.4548C94.1831 42.0146 93.2697 41.7494 92.3858 41.278C91.8849 41.0128 91.826 40.453 91.767 39.9227C91.7376 39.5396 91.7376 39.1566 91.7376 38.7736C91.7376 36.387 91.7376 34.0004 91.7376 31.6139C91.7376 31.496 91.7376 31.3487 91.7376 31.2014C90.942 31.2014 90.1465 31.2014 89.3805 31.2014C89.2921 30.9362 89.351 30.7594 89.5278 30.5532C89.9108 30.0817 90.3822 29.846 91.001 29.9639C91.2661 29.9933 91.5313 29.9639 91.8554 29.9639C91.8554 29.5219 91.826 29.08 91.8554 28.6675C91.8554 28.4907 91.9438 28.3139 92.0322 28.196C92.3268 27.813 92.6804 27.4594 93.0045 27.1059C93.2402 26.8112 93.2402 26.8112 93.6822 26.8996Z" fill="#F9FAFB"/>
<path d="M66.9878 6.56732C66.9878 7.59856 66.9878 8.57086 66.9878 9.6021C67.4003 9.13068 67.8128 8.68872 68.1959 8.2173C68.6673 7.65748 69.1682 7.09767 69.6396 6.56732C69.728 6.47893 69.9048 6.39054 70.0521 6.39054C70.5824 6.36107 71.1128 6.39054 71.6726 6.39054C71.6726 7.12713 71.6726 7.83427 71.6726 8.57086C71.2306 8.57086 70.7887 8.5414 70.3762 8.57086C70.0815 8.60033 69.7869 8.65925 69.5512 8.77711C68.5789 9.278 67.8128 10.0146 67.1941 10.8985C67.1352 10.9574 67.1057 11.0753 67.1057 11.1342C67.1057 13.0494 67.1057 14.9645 67.1057 16.8797C67.1057 16.9386 67.1057 16.9681 67.1352 17.0565C67.9601 17.1448 68.8146 17.2038 69.6396 17.2922C69.6101 17.5868 69.5512 17.8814 69.5217 18.1172C67.5182 18.1172 65.5146 18.1172 63.5111 18.1172C63.4816 17.8814 63.4227 17.6457 63.3932 17.3806C63.9236 17.3216 64.4245 17.2332 64.9548 17.2038C65.1316 17.1743 65.22 17.1154 65.22 16.9386C65.22 14.0511 65.22 11.1637 65.22 8.27622C65.22 8.2173 65.22 8.18783 65.1905 8.09944C64.6013 8.15837 64.012 8.2173 63.3932 8.24676C63.3638 7.98159 63.3049 7.74587 63.2754 7.45124C64.5129 7.1566 65.662 6.62625 66.9878 6.56732Z" fill="#F9FAFB"/>
<path d="M90.0573 40.6279C90.0279 40.8931 89.9689 41.1288 89.9395 41.3645C89.3502 41.3645 88.7609 41.3645 88.1716 41.3645C87.0815 41.3645 85.9913 41.394 84.8717 41.394C84.4003 41.394 84.4003 41.394 84.3119 40.952C84.2824 40.8636 84.2824 40.7458 84.2824 40.6574C84.8717 40.569 85.461 40.5101 86.0797 40.4217C86.0797 37.4164 86.0797 34.4111 86.0797 31.3763C85.4904 31.4057 84.9011 31.4647 84.2824 31.4941C84.2529 31.229 84.194 30.9933 84.1646 30.7281C85.461 30.4334 86.6984 29.8442 88.0833 29.8736C88.0833 33.4093 88.0833 36.9155 88.0833 40.4217C88.7609 40.4806 89.3797 40.5395 90.0573 40.6279Z" fill="#F9FAFB"/>
<path d="M86.7863 28.2848C86.7274 28.2848 86.6979 28.3142 86.639 28.3142C86.1087 28.3437 85.9614 28.1964 85.873 27.666C85.7846 27.1062 85.814 26.5464 85.9614 25.9866C85.9908 25.8982 86.0497 25.7803 86.1087 25.7803C86.7569 25.7509 87.4345 25.5741 88.0828 25.7509C88.1711 25.7803 88.2595 25.8982 88.2595 25.9571C88.3774 26.6348 88.3774 27.3124 88.1711 27.9901C88.1417 28.0785 88.0238 28.1669 87.9649 28.1669C87.5524 28.2258 87.1694 28.2553 86.7863 28.2848Z" fill="#F9FAFB"/>
</svg>
