<svg width="184" height="184" xmlns="http://www.w3.org/2000/svg"><defs><linearGradient x1="0%" y1="50%" y2="50%" id="a"><stop stop-color="#00BFFF" offset="0%"/><stop stop-color="#6619FF" offset="100%"/></linearGradient></defs><g fill="none" fill-rule="evenodd"><rect fill="#191D40" width="184" height="184" rx="92"/><path d="M114.527 92L148 125.473h-11.81a7.636 7.636 0 0 1-5.397-2.24L99.636 92l31.182-31.258a7.636 7.636 0 0 1 5.397-2.215H148L114.527 92zM53.182 60.742a7.636 7.636 0 0 0-5.397-2.215H36L69.473 92 36 125.473h11.81a7.636 7.636 0 0 0 5.397-2.24L84.364 92 53.182 60.742zM92 99.636l-31.258 31.182a7.636 7.636 0 0 0-2.215 5.397V148L92 114.527 125.473 148v-11.785a7.636 7.636 0 0 0-2.215-5.397L92 99.636zm0-15.272l31.258-31.182a7.636 7.636 0 0 0 2.215-5.397V36L92 69.473 58.527 36v11.785a7.636 7.636 0 0 0 2.215 5.397L92 84.364z" fill="url(#a)" fill-rule="nonzero"/></g></svg>