<svg width="420" height="340" viewBox="0 0 420 340" fill="none" xmlns="http://www.w3.org/2000/svg">
<g clip-path="url(#clip0)">
<path d="M227.698 325.326L235.7 320.709L243.928 325.46L244.332 325.225L236.104 320.474L244.106 315.857L252.334 320.608L252.739 320.373L244.51 315.622L252.512 311.005L260.741 315.756L261.145 315.521L252.917 310.77L260.919 306.152L269.147 310.903L269.551 310.669L261.323 305.918L269.325 301.3L277.553 306.051L277.958 305.817L269.729 301.066L277.731 296.448L285.96 301.199L286.364 300.965L278.136 296.214L286.137 291.596L294.366 296.347L294.77 296.113L286.542 291.362L294.544 286.744L300.01 289.902C300.108 289.959 300.233 289.926 300.285 289.829C300.342 289.732 300.31 289.611 300.213 289.554L294.948 286.514L302.946 281.896L311.174 286.647L311.579 286.412L303.35 281.661L311.348 277.044L319.577 281.795L319.981 281.56L311.753 276.809L328.157 267.34L336.385 272.091L336.79 271.856L328.561 267.105L336.559 262.487L344.787 267.238L345.192 267.004L336.963 262.253L344.961 257.635L353.19 262.386L353.594 262.152L345.366 257.401L353.368 252.783L357.241 255.019C357.338 255.076 357.46 255.044 357.516 254.946C357.573 254.849 357.54 254.728 357.443 254.672L353.772 252.553L361.77 247.935L369.998 252.686L370.403 252.452L362.174 247.701L370.172 243.083L378.401 247.834L378.805 247.6L370.576 242.848L378.578 238.231L386.807 242.982L387.211 242.747L378.983 237.996L386.985 233.379L395.213 238.13L395.617 237.895L387.389 233.144L395.391 228.527L400.106 231.248C400.203 231.304 400.328 231.272 400.381 231.175C400.437 231.078 400.405 230.957 400.308 230.9L395.795 228.296L412.2 218.826L420.428 223.578L420.832 223.343L412.604 218.592L420.703 213.918L420.299 213.683L412.183 218.345L395.779 208.876L403.878 204.201L403.474 203.967L395.375 208.641L387.377 204.023L391.166 201.836C391.263 201.779 391.295 201.658 391.238 201.561C391.182 201.464 391.06 201.432 390.963 201.488L386.973 203.793L370.568 194.323L378.667 189.649L378.263 189.415L370.164 194.085L353.76 184.615L361.859 179.941L361.454 179.706L353.355 184.38L345.358 179.763L353.457 175.089L353.052 174.854L344.953 179.528L336.955 174.911L345.054 170.237L344.65 170.002L336.547 174.676L328.549 170.059L336.648 165.384L336.244 165.15L328.145 169.824L320.147 165.207L328.246 160.532L327.841 160.298L319.738 164.972L311.74 160.354L319.839 155.68L319.435 155.446L311.336 160.12L303.338 155.502L311.437 150.828L311.033 150.594L302.93 155.268L294.932 150.65L303.031 145.976L302.627 145.741L294.528 150.416L286.53 145.798L294.629 141.124L294.224 140.889L286.121 145.564L278.123 140.946L286.222 136.272L285.818 136.037L277.719 140.711L269.721 136.094L277.82 131.42L277.416 131.185L269.313 135.859L261.315 131.242L269.414 126.567L269.009 126.333L260.911 131.007L252.913 126.39L261.012 121.715L260.607 121.481L252.508 126.155L244.51 121.537L248.408 119.285C248.505 119.229 248.538 119.107 248.481 119.01C248.424 118.913 248.303 118.881 248.206 118.938L244.102 121.303L236.104 116.685L244.203 112.011L243.799 111.777L235.7 116.451L227.702 111.833L235.801 107.159L235.396 106.925L227.293 111.599L219.296 106.981L227.395 102.307L226.99 102.072L218.891 106.747L210.893 102.129L214.261 100.184C214.358 100.128 214.391 100.006 214.334 99.9092C214.278 99.8121 214.156 99.7798 214.059 99.8364L210.481 101.903C210.436 101.886 210.388 101.886 210.343 101.903L202.236 97.2203L201.832 97.4548L209.931 102.129L201.925 106.747L193.826 102.072L193.422 102.307L201.521 106.981L185.116 116.451L177.017 111.777L176.613 112.011L184.712 116.685L176.714 121.303L168.615 116.629L168.211 116.863L176.31 121.537L168.308 126.155L160.209 121.481L159.805 121.715L167.903 126.39L159.906 131.007L151.807 126.333L151.402 126.567L159.501 131.242L151.503 135.859L143.404 131.185L143 131.42L151.099 136.094L143.097 140.711L134.998 136.037L134.594 136.272L142.693 140.946L134.695 145.564L126.596 140.889L126.191 141.124L134.29 145.798L126.288 150.416L118.19 145.741L117.785 145.976L125.884 150.65L117.886 155.268L109.787 150.594L109.383 150.828L117.482 155.502L109.48 160.12L101.381 155.446L100.977 155.68L109.076 160.354L101.078 164.972L92.9787 160.298L92.5744 160.532L100.673 165.207L92.6714 169.824L88.2802 167.289C88.1832 167.232 88.0619 167.265 88.0053 167.362C87.9487 167.459 87.981 167.58 88.0781 167.637L92.2671 170.055L84.2692 174.676L76.1702 170.002L75.7658 170.237L83.8648 174.911L67.4606 184.38L59.3616 179.706L58.9573 179.941L67.0563 184.615L59.0543 189.233L50.9553 184.558L50.551 184.793L58.65 189.467L50.6521 194.085L42.5531 189.411L42.1487 189.645L50.2477 194.319L42.2498 198.937L34.1508 194.263L33.7465 194.497L41.8455 199.171L25.4413 208.641L17.3423 203.967L16.9379 204.201L25.0369 208.876L17.035 213.493L13.0765 211.209C12.9794 211.152 12.8581 211.184 12.8015 211.281C12.7449 211.378 12.7772 211.5 12.8743 211.556L16.6306 213.728L8.63273 218.345L0.533733 213.671L0.12939 213.906L8.22838 218.58L0 223.327L0.404343 223.561L8.63273 218.81L25.0369 228.28L16.8085 233.031L17.2129 233.266L25.4413 228.515L33.4392 233.132L30.4147 234.879C30.3177 234.936 30.2853 235.057 30.3419 235.154C30.3985 235.251 30.5198 235.283 30.6169 235.227L33.8435 233.363L41.8414 237.98L33.613 242.731L34.0174 242.966L42.2458 238.215L50.2437 242.832L42.0153 247.583L42.4196 247.818L50.648 243.067L58.6459 247.684L50.4175 252.435L50.8219 252.67L59.0503 247.919L67.0482 252.537L58.8198 257.288L59.2241 257.522L67.4525 252.771L75.4545 257.389L67.2261 262.14L67.6304 262.374L75.8588 257.623L83.8567 262.241L75.6283 266.992L76.0327 267.226L84.2611 262.475L92.259 267.093L84.0306 271.844L84.4349 272.078L92.6633 267.327L100.661 271.945L92.4328 276.696L92.8372 276.931L101.066 272.18L109.063 276.797L100.835 281.548L101.239 281.783L109.468 277.032L117.466 281.649L109.237 286.4L109.642 286.635L117.87 281.884L125.868 286.501L117.64 291.252L118.044 291.487L126.272 286.736L134.274 291.354L126.046 296.105L126.45 296.339L134.679 291.588L142.681 296.206L134.452 300.957L134.857 301.191L143.085 296.44L151.087 301.058L142.858 305.809L143.263 306.043L151.491 301.292L159.493 305.91L151.265 310.661L151.669 310.895L159.898 306.144L167.899 310.762L159.671 315.513L160.075 315.748L168.304 310.997L176.306 315.614L168.077 320.365L168.482 320.6L176.71 315.849L184.712 320.466L176.484 325.217L176.888 325.452L185.116 320.701L193.118 325.318L184.89 330.069L185.294 330.304L193.523 325.553L201.521 330.17L197.772 332.334C197.675 332.39 197.643 332.512 197.7 332.609C197.756 332.706 197.877 332.738 197.974 332.681L201.925 330.401L206.534 333.062C206.567 333.082 206.599 333.09 206.636 333.09C206.704 333.09 206.773 333.053 206.809 332.989C206.866 332.892 206.834 332.77 206.737 332.714L202.329 330.166L210.339 325.541C210.364 325.549 210.384 325.561 210.408 325.561C210.432 325.561 210.453 325.549 210.477 325.541L218.487 330.162L210.481 334.784C210.424 334.764 210.364 334.764 210.307 334.796L201.698 339.766L202.103 340L210.339 335.245C210.364 335.253 210.384 335.265 210.408 335.265C210.44 335.265 210.477 335.257 210.509 335.237L218.891 330.397L222.89 332.706C222.922 332.726 222.959 332.734 222.991 332.734C223.06 332.734 223.129 332.698 223.165 332.633C223.222 332.536 223.189 332.415 223.092 332.358L219.296 330.166L227.293 325.549L235.522 330.3L235.926 330.065L227.698 325.326ZM235.7 320.24L227.698 315.622L235.7 311.005L243.702 315.622L235.7 320.24ZM227.293 218.345L219.296 213.728L227.293 209.11L235.291 213.728L227.293 218.345ZM235.7 213.958L243.698 218.576L235.7 223.197L227.702 218.58L235.7 213.958ZM202.329 213.728L210.339 209.106C210.364 209.114 210.384 209.126 210.408 209.126C210.432 209.126 210.457 209.118 210.477 209.106L218.487 213.728L210.477 218.349C210.432 218.333 210.384 218.333 210.339 218.349L202.329 213.728ZM209.927 218.58L201.925 223.197L193.927 218.58L201.925 213.962L209.927 218.58ZM218.891 213.958L226.889 218.576L218.891 223.197L210.893 218.58L218.891 213.958ZM218.891 213.493L210.893 208.876L218.891 204.258L226.889 208.876L218.891 213.493ZM210.477 208.645C210.432 208.629 210.384 208.629 210.339 208.645L202.329 204.023L210.339 199.402C210.364 199.41 210.384 199.422 210.408 199.422C210.432 199.422 210.453 199.414 210.477 199.402L218.487 204.023L210.477 208.645ZM209.927 208.876L201.925 213.493L193.927 208.876L201.925 204.258L209.927 208.876ZM201.521 213.728L193.523 218.345L185.525 213.728L193.523 209.11L201.521 213.728ZM193.118 218.58L185.116 223.197L177.118 218.58L185.116 213.962L193.118 218.58ZM193.523 218.81L201.521 223.428L193.523 228.05L185.525 223.432L193.523 218.81ZM201.925 223.662L209.923 228.28L201.925 232.902L193.927 228.284L201.925 223.662ZM202.329 223.432L210.339 218.81C210.364 218.818 210.384 218.831 210.408 218.831C210.432 218.831 210.453 218.822 210.477 218.81L218.487 223.432L210.477 228.054C210.432 228.037 210.384 228.037 210.339 228.054L202.329 223.432ZM218.891 223.662L226.889 228.28L218.891 232.902L210.893 228.284L218.891 223.662ZM219.296 223.432L227.293 218.814L235.291 223.432L227.293 228.05L219.296 223.432ZM235.7 223.662L243.698 228.28L235.7 232.902L227.702 228.284L235.7 223.662ZM236.104 223.432L244.102 218.814L252.1 223.432L244.102 228.05L236.104 223.432ZM244.506 218.58L252.504 213.962L260.502 218.58L252.508 223.197L244.506 218.58ZM244.102 218.345L236.104 213.728L244.102 209.11L252.1 213.728L244.102 218.345ZM235.7 213.493L227.702 208.876L235.7 204.258L243.698 208.876L235.7 213.493ZM227.293 208.641L219.296 204.023L227.293 199.406L235.291 204.023L227.293 208.641ZM218.891 203.789L210.893 199.171L218.891 194.554L226.889 199.171L218.891 203.789ZM210.477 198.941C210.432 198.925 210.384 198.925 210.339 198.941L202.329 194.319L210.339 189.698C210.364 189.706 210.384 189.718 210.408 189.718C210.432 189.718 210.453 189.71 210.477 189.698L218.487 194.319L210.477 198.941ZM209.927 199.171L201.925 203.789L193.927 199.171L201.925 194.554L209.927 199.171ZM201.521 204.023L193.523 208.641L185.525 204.023L193.523 199.406L201.521 204.023ZM193.118 208.876L185.116 213.493L177.118 208.876L185.116 204.258L193.118 208.876ZM184.712 213.728L176.714 218.345L168.716 213.728L176.714 209.11L184.712 213.728ZM176.31 218.58L168.308 223.197L160.31 218.58L168.308 213.962L176.31 218.58ZM176.714 218.81L184.712 223.428L176.714 228.05L168.716 223.432L176.714 218.81ZM185.116 223.662L193.114 228.28L185.116 232.902L177.118 228.284L185.116 223.662ZM193.523 228.515L201.521 233.132L193.523 237.754L185.525 233.136L193.523 228.515ZM201.925 233.367L209.923 237.984L201.925 242.606L193.927 237.988L201.925 233.367ZM202.329 233.136L210.339 228.515C210.364 228.523 210.384 228.535 210.408 228.535C210.432 228.535 210.453 228.527 210.477 228.515L218.487 233.136L210.477 237.758C210.432 237.742 210.384 237.742 210.339 237.758L202.329 233.136ZM218.891 233.367L226.889 237.984L218.891 242.606L210.893 237.988L218.891 233.367ZM219.296 233.136L227.293 228.519L235.291 233.136L227.293 237.754L219.296 233.136ZM235.7 233.367L243.702 237.984L235.7 242.606L227.698 237.988L235.7 233.367ZM236.104 233.136L244.102 228.519L252.104 233.136L244.102 237.754L236.104 233.136ZM244.506 228.284L252.504 223.666L260.502 228.284L252.508 232.902L244.506 228.284ZM252.913 223.432L260.911 218.814L268.908 223.432L260.911 228.05L252.913 223.432ZM261.315 218.58L269.313 213.962L277.311 218.58L269.313 223.197L261.315 218.58ZM260.911 218.345L252.913 213.728L260.911 209.11L268.908 213.728L260.911 218.345ZM252.508 213.493L244.51 208.876L252.508 204.258L260.506 208.876L252.508 213.493ZM244.102 208.641L236.104 204.023L244.102 199.406L252.1 204.023L244.102 208.641ZM235.7 203.789L227.702 199.171L235.7 194.554L243.698 199.171L235.7 203.789ZM227.293 198.937L219.296 194.319L227.293 189.702L235.291 194.319L227.293 198.937ZM218.891 194.085L210.893 189.467L218.891 184.85L226.889 189.467L218.891 194.085ZM210.477 189.237C210.432 189.22 210.384 189.22 210.339 189.237L202.329 184.615L210.339 179.993C210.364 180.001 210.384 180.014 210.408 180.014C210.432 180.014 210.453 180.005 210.477 179.993L218.487 184.615L210.477 189.237ZM209.927 189.467L201.925 194.085L193.927 189.467L201.925 184.85L209.927 189.467ZM201.521 194.319L193.523 198.937L185.525 194.319L193.523 189.702L201.521 194.319ZM193.118 199.171L185.116 203.789L177.118 199.171L185.116 194.554L193.118 199.171ZM184.712 204.023L176.714 208.641L168.716 204.023L176.714 199.406L184.712 204.023ZM176.31 208.876L168.308 213.493L160.31 208.876L168.308 204.258L176.31 208.876ZM167.903 213.728L159.906 218.345L151.908 213.728L159.906 209.11L167.903 213.728ZM159.501 218.58L151.503 223.197L143.505 218.58L151.503 213.962L159.501 218.58ZM159.906 218.81L167.903 223.428L159.906 228.05L151.908 223.432L159.906 218.81ZM168.312 223.662L176.31 228.28L168.308 232.902L160.31 228.284L168.312 223.662ZM176.714 228.515L184.712 233.132L176.714 237.754L168.716 233.136L176.714 228.515ZM185.116 233.367L193.114 237.984L185.116 242.606L177.118 237.988L185.116 233.367ZM193.523 238.219L201.521 242.836L193.523 247.458L185.525 242.84L193.523 238.219ZM201.925 243.071L209.927 247.688L201.925 252.31L193.923 247.693L201.925 243.071ZM202.329 242.84L210.339 238.219C210.364 238.227 210.384 238.239 210.408 238.239C210.432 238.239 210.457 238.231 210.477 238.219L218.487 242.84L210.477 247.466C210.432 247.45 210.384 247.45 210.339 247.466L202.329 242.84ZM218.891 243.071L226.893 247.688L218.891 252.31L210.889 247.693L218.891 243.071ZM219.296 242.84L227.293 238.223L235.295 242.84L227.293 247.458L219.296 242.84ZM235.7 243.071L243.702 247.688L235.7 252.31L227.698 247.693L235.7 243.071ZM236.104 242.84L244.102 238.223L252.104 242.84L244.102 247.458L236.104 242.84ZM244.506 237.988L252.504 233.371L260.506 237.988L252.508 242.606L244.506 237.988ZM252.913 233.136L260.911 228.519L268.908 233.136L260.911 237.754L252.913 233.136ZM261.315 228.284L269.313 223.666L277.311 228.284L269.313 232.902L261.315 228.284ZM269.717 223.432L277.715 218.814L285.713 223.432L277.719 228.05L269.717 223.432ZM278.123 218.58L286.125 213.962L294.123 218.58L286.121 223.197L278.123 218.58ZM277.719 218.345L269.721 213.728L277.723 209.11L285.721 213.728L277.719 218.345ZM269.313 213.493L261.315 208.876L269.313 204.258L277.311 208.876L269.313 213.493ZM260.911 208.641L252.913 204.023L260.911 199.406L268.908 204.023L260.911 208.641ZM252.508 203.789L244.51 199.171L252.508 194.554L260.506 199.171L252.508 203.789ZM244.102 198.937L236.104 194.319L244.102 189.702L252.1 194.319L244.102 198.937ZM235.7 194.085L227.702 189.467L235.7 184.85L243.698 189.467L235.7 194.085ZM227.293 189.233L219.296 184.615L227.293 179.997L235.291 184.615L227.293 189.233ZM218.891 184.38L210.893 179.763L218.891 175.145L226.889 179.763L218.891 184.38ZM210.477 179.532C210.432 179.516 210.384 179.516 210.339 179.532L202.329 174.911L210.339 170.289C210.364 170.297 210.384 170.309 210.408 170.309C210.432 170.309 210.457 170.301 210.477 170.289L218.487 174.911L210.477 179.532ZM209.927 179.763L201.925 184.38L193.927 179.763L201.925 175.145L209.927 179.763ZM201.521 184.615L193.523 189.233L185.525 184.615L193.523 179.997L201.521 184.615ZM193.118 189.467L185.116 194.085L177.118 189.467L185.116 184.85L193.118 189.467ZM184.712 194.319L176.714 198.937L168.716 194.319L176.714 189.702L184.712 194.319ZM176.31 199.171L168.308 203.789L160.31 199.171L168.308 194.554L176.31 199.171ZM167.903 204.023L159.906 208.641L151.908 204.023L159.906 199.406L167.903 204.023ZM159.501 208.876L151.503 213.493L143.505 208.876L151.503 204.258L159.501 208.876ZM151.099 213.728L143.097 218.345L135.099 213.728L143.097 209.11L151.099 213.728ZM142.693 218.58L134.695 223.197L126.697 218.58L134.695 213.962L142.693 218.58ZM143.097 218.81L151.095 223.428L143.097 228.05L135.099 223.432L143.097 218.81ZM151.503 223.662L159.501 228.28L151.503 232.902L143.505 228.284L151.503 223.662ZM159.906 228.515L167.903 233.132L159.906 237.754L151.908 233.136L159.906 228.515ZM168.308 233.367L176.306 237.984L168.308 242.606L160.31 237.988L168.308 233.367ZM176.714 238.219L184.712 242.836L176.714 247.458L168.716 242.84L176.714 238.219ZM185.116 243.071L193.114 247.688L185.116 252.31L177.118 247.693L185.116 243.071ZM193.523 247.923L201.525 252.541L193.523 257.162L185.521 252.545L193.523 247.923ZM201.925 252.775L209.927 257.393L201.925 262.014L193.923 257.397L201.925 252.775ZM202.329 252.545L210.339 247.919C210.364 247.927 210.384 247.939 210.408 247.939C210.432 247.939 210.453 247.927 210.477 247.919L218.487 252.545L210.477 257.17C210.432 257.154 210.384 257.154 210.339 257.17L202.329 252.545ZM218.891 252.775L226.893 257.393L218.891 262.014L210.889 257.397L218.891 252.775ZM219.296 252.545L227.297 247.927L235.299 252.545L227.293 257.162L219.296 252.545ZM235.7 252.775L243.702 257.393L235.7 262.014L227.698 257.397L235.7 252.775ZM236.104 252.545L244.102 247.927L252.104 252.545L244.102 257.162L236.104 252.545ZM244.506 247.693L252.504 243.075L260.502 247.693L252.508 252.31L244.506 247.693ZM252.913 242.84L260.911 238.223L268.912 242.84L260.911 247.458L252.913 242.84ZM261.315 237.988L269.313 233.371L277.311 237.988L269.313 242.606L261.315 237.988ZM269.717 233.136L277.715 228.519L285.713 233.136L277.719 237.754L269.717 233.136ZM278.123 228.284L286.121 223.666L294.119 228.284L286.121 232.902L278.123 228.284ZM286.526 223.432L294.528 218.814L302.526 223.432L294.528 228.05L286.526 223.432ZM294.932 218.58L302.93 213.962L310.928 218.58L302.93 223.197L294.932 218.58ZM294.528 218.345L286.53 213.728L294.528 209.11L302.526 213.728L294.528 218.345ZM286.121 213.493L278.123 208.876L286.121 204.258L294.119 208.876L286.121 213.493ZM277.719 208.641L269.721 204.023L277.719 199.406L285.717 204.023L277.719 208.641ZM269.313 203.789L261.315 199.171L269.313 194.554L277.311 199.171L269.313 203.789ZM260.911 198.937L252.913 194.319L260.911 189.702L268.908 194.319L260.911 198.937ZM252.508 194.085L244.51 189.467L252.508 184.85L260.506 189.467L252.508 194.085ZM244.102 189.233L236.104 184.615L244.102 179.997L252.1 184.615L244.102 189.233ZM235.7 184.38L227.702 179.763L235.7 175.145L243.698 179.763L235.7 184.38ZM227.293 179.528L219.296 174.911L227.293 170.293L235.291 174.911L227.293 179.528ZM218.891 174.676L210.893 170.059L218.891 165.441L226.889 170.059L218.891 174.676ZM210.477 169.828C210.432 169.812 210.384 169.812 210.339 169.828L202.329 165.207L210.339 160.585C210.364 160.593 210.384 160.605 210.408 160.605C210.432 160.605 210.453 160.597 210.477 160.585L218.487 165.207L210.477 169.828ZM209.927 170.059L201.925 174.676L193.927 170.059L201.925 165.441L209.927 170.059ZM201.521 174.911L193.523 179.528L185.525 174.911L193.523 170.293L201.521 174.911ZM193.118 179.763L185.116 184.38L177.118 179.763L185.116 175.145L193.118 179.763ZM184.712 184.615L176.714 189.233L168.716 184.615L176.714 179.997L184.712 184.615ZM176.31 189.467L168.308 194.085L160.31 189.467L168.308 184.85L176.31 189.467ZM167.903 194.319L159.906 198.937L151.908 194.319L159.906 189.702L167.903 194.319ZM159.501 199.171L151.503 203.789L143.505 199.171L151.503 194.554L159.501 199.171ZM151.099 204.023L143.097 208.641L135.099 204.023L143.097 199.406L151.099 204.023ZM142.693 208.876L134.695 213.493L126.697 208.876L134.695 204.258L142.693 208.876ZM134.29 213.728L126.288 218.345L118.291 213.728L126.288 209.11L134.29 213.728ZM125.884 218.58L117.886 223.197L109.888 218.58L117.886 213.962L125.884 218.58ZM126.288 218.81L134.286 223.428L126.288 228.05L118.291 223.432L126.288 218.81ZM134.695 223.662L142.693 228.28L134.695 232.902L126.697 228.284L134.695 223.662ZM143.097 228.515L151.095 233.132L143.097 237.754L135.099 233.136L143.097 228.515ZM151.503 233.367L159.501 237.984L151.503 242.606L143.505 237.988L151.503 233.367ZM159.906 238.219L167.903 242.836L159.906 247.458L151.908 242.84L159.906 238.219ZM168.312 243.071L176.31 247.688L168.308 252.31L160.31 247.693L168.312 243.071ZM176.714 247.923L184.712 252.541L176.714 257.162L168.716 252.545L176.714 247.923ZM185.116 252.775L193.118 257.393L185.116 262.014L177.114 257.397L185.116 252.775ZM193.523 257.627L201.525 262.245L193.523 266.866L185.521 262.249L193.523 257.627ZM201.925 262.479L209.927 267.097L201.925 271.719L193.923 267.101L201.925 262.479ZM202.329 262.249L210.339 257.623C210.364 257.631 210.384 257.643 210.408 257.643C210.432 257.643 210.453 257.631 210.477 257.623L218.487 262.249L210.477 266.875C210.432 266.858 210.384 266.858 210.339 266.875L202.329 262.249ZM218.891 262.479L226.893 267.097L218.891 271.719L210.889 267.101L218.891 262.479ZM219.296 262.249L227.297 257.631L235.299 262.249L227.293 266.866L219.296 262.249ZM235.7 262.479L243.698 267.097L235.7 271.719L227.698 267.101L235.7 262.479ZM236.104 262.249L244.106 257.631L252.104 262.249L244.102 266.866L236.104 262.249ZM244.506 257.397L252.504 252.779L260.502 257.397L252.508 262.014L244.506 257.397ZM252.913 252.545L260.911 247.927L268.908 252.545L260.911 257.162L252.913 252.545ZM261.315 247.693L269.317 243.075L277.315 247.693L269.313 252.31L261.315 247.693ZM269.717 242.84L277.715 238.223L285.713 242.84L277.719 247.458L269.717 242.84ZM278.123 237.988L286.121 233.371L294.119 237.988L286.121 242.606L278.123 237.988ZM286.526 233.136L294.524 228.519L302.521 233.136L294.528 237.754L286.526 233.136ZM294.932 228.284L302.934 223.666L310.932 228.284L302.93 232.902L294.932 228.284ZM303.334 223.432L311.332 218.814L319.33 223.432L311.336 228.05L303.334 223.432ZM311.74 218.58L319.738 213.962L327.736 218.58L319.738 223.197L311.74 218.58ZM311.336 218.345L303.338 213.728L311.336 209.11L319.334 213.728L311.336 218.345ZM302.93 213.493L294.932 208.876L302.93 204.258L310.928 208.876L302.93 213.493ZM294.528 208.641L286.53 204.023L294.528 199.406L302.526 204.023L294.528 208.641ZM286.121 203.789L278.123 199.171L286.121 194.554L294.119 199.171L286.121 203.789ZM277.719 198.937L269.721 194.319L277.719 189.702L285.717 194.319L277.719 198.937ZM269.313 194.085L261.315 189.467L269.313 184.85L277.311 189.467L269.313 194.085ZM260.911 189.233L252.913 184.615L260.911 179.997L268.908 184.615L260.911 189.233ZM252.508 184.38L244.51 179.763L252.508 175.145L260.506 179.763L252.508 184.38ZM244.102 179.528L236.104 174.911L244.102 170.293L252.1 174.911L244.102 179.528ZM235.7 174.676L227.702 170.059L235.7 165.441L243.698 170.059L235.7 174.676ZM227.293 169.824L219.296 165.207L227.293 160.589L235.291 165.207L227.293 169.824ZM218.891 164.972L210.893 160.354L218.891 155.737L226.889 160.354L218.891 164.972ZM210.477 160.124C210.432 160.108 210.384 160.108 210.339 160.124L202.329 155.502L210.339 150.881C210.364 150.889 210.384 150.901 210.408 150.901C210.432 150.901 210.453 150.893 210.477 150.881L218.487 155.502L210.477 160.124ZM209.927 160.354L201.925 164.972L193.927 160.354L201.925 155.737L209.927 160.354ZM201.521 165.207L193.523 169.824L185.525 165.207L193.523 160.589L201.521 165.207ZM193.118 170.059L185.116 174.676L177.118 170.059L185.116 165.441L193.118 170.059ZM184.712 174.911L176.714 179.528L168.716 174.911L176.714 170.293L184.712 174.911ZM176.31 179.763L168.308 184.38L160.31 179.763L168.308 175.145L176.31 179.763ZM167.903 184.615L159.906 189.233L151.908 184.615L159.906 179.997L167.903 184.615ZM159.501 189.467L151.503 194.085L143.505 189.467L151.503 184.85L159.501 189.467ZM151.099 194.319L143.097 198.937L135.099 194.319L143.097 189.702L151.099 194.319ZM142.693 199.171L134.695 203.789L126.697 199.171L134.695 194.554L142.693 199.171ZM134.29 204.023L126.288 208.641L118.291 204.023L126.288 199.406L134.29 204.023ZM125.884 208.876L117.886 213.493L109.888 208.876L117.886 204.258L125.884 208.876ZM117.482 213.728L109.48 218.345L101.482 213.728L109.48 209.11L117.482 213.728ZM109.076 218.58L101.078 223.197L93.0798 218.58L101.078 213.962L109.076 218.58ZM109.48 218.81L117.478 223.428L109.48 228.05L101.482 223.432L109.48 218.81ZM117.886 223.662L125.884 228.28L117.886 232.902L109.888 228.284L117.886 223.662ZM126.288 228.515L134.286 233.132L126.288 237.754L118.291 233.136L126.288 228.515ZM134.695 233.367L142.693 237.984L134.695 242.606L126.697 237.988L134.695 233.367ZM143.097 238.219L151.095 242.836L143.097 247.458L135.099 242.84L143.097 238.219ZM151.503 243.071L159.501 247.688L151.503 252.31L143.505 247.693L151.503 243.071ZM159.906 247.923L167.903 252.541L159.906 257.162L151.908 252.545L159.906 247.923ZM168.312 252.775L176.31 257.393L168.308 262.014L160.31 257.397L168.312 252.775ZM176.714 257.627L184.716 262.245L176.714 266.866L168.712 262.249L176.714 257.627ZM185.116 262.479L193.118 267.097L185.116 271.719L177.114 267.101L185.116 262.479ZM193.523 267.331L201.525 271.949L193.523 276.571L185.521 271.953L193.523 267.331ZM201.925 272.184L209.927 276.801L201.925 281.423L193.923 276.805L201.925 272.184ZM202.329 271.953L210.339 267.327C210.364 267.336 210.384 267.348 210.408 267.348C210.432 267.348 210.453 267.336 210.477 267.327L218.487 271.953L210.477 276.579C210.432 276.563 210.384 276.563 210.339 276.579L202.329 271.953ZM218.891 272.184L226.893 276.801L218.891 281.423L210.889 276.805L218.891 272.184ZM219.296 271.953L227.297 267.336L235.299 271.953L227.293 276.571L219.296 271.953ZM235.7 272.184L243.702 276.801L235.7 281.423L227.698 276.805L235.7 272.184ZM236.104 271.953L244.106 267.336L252.108 271.953L244.102 276.571L236.104 271.953ZM244.506 267.101L252.508 262.483L260.51 267.101L252.504 271.719L244.506 267.101ZM252.913 262.249L260.911 257.631L268.908 262.249L260.911 266.866L252.913 262.249ZM261.315 257.397L269.313 252.779L277.311 257.397L269.313 262.014L261.315 257.397ZM269.717 252.545L277.719 247.927L285.721 252.545L277.719 257.162L269.717 252.545ZM278.123 247.693L286.121 243.075L294.119 247.693L286.121 252.31L278.123 247.693ZM286.526 242.84L294.524 238.223L302.521 242.84L294.528 247.458L286.526 242.84ZM294.932 237.988L302.93 233.371L310.928 237.988L302.93 242.606L294.932 237.988ZM303.334 233.136L311.336 228.519L319.334 233.136L311.336 237.754L303.334 233.136ZM311.74 228.284L319.738 223.666L327.736 228.284L319.738 232.902L311.74 228.284ZM320.143 223.432L328.141 218.814L336.139 223.432L328.145 228.05L320.143 223.432ZM328.549 218.58L336.547 213.962L344.545 218.58L336.547 223.197L328.549 218.58ZM328.145 218.345L320.147 213.728L328.145 209.11L336.143 213.728L328.145 218.345ZM319.738 213.493L311.74 208.876L319.738 204.258L327.736 208.876L319.738 213.493ZM311.336 208.641L303.338 204.023L311.336 199.406L319.334 204.023L311.336 208.641ZM302.93 203.789L294.932 199.171L302.93 194.554L310.928 199.171L302.93 203.789ZM294.528 198.937L286.53 194.319L294.528 189.702L302.526 194.319L294.528 198.937ZM286.121 194.085L278.123 189.467L286.121 184.85L294.119 189.467L286.121 194.085ZM277.719 189.233L269.721 184.615L277.719 179.997L285.717 184.615L277.719 189.233ZM269.313 184.38L261.315 179.763L269.313 175.145L277.311 179.763L269.313 184.38ZM260.911 179.528L252.913 174.911L260.911 170.293L268.908 174.911L260.911 179.528ZM252.508 174.676L244.51 170.059L252.508 165.441L260.506 170.059L252.508 174.676ZM244.102 169.824L236.104 165.207L244.102 160.589L252.1 165.207L244.102 169.824ZM235.7 164.972L227.702 160.354L235.7 155.737L243.698 160.354L235.7 164.972ZM227.293 160.12L219.296 155.502L227.293 150.885L235.291 155.502L227.293 160.12ZM218.891 155.268L210.893 150.65L218.891 146.033L226.889 150.65L218.891 155.268ZM210.477 150.42C210.432 150.404 210.384 150.404 210.339 150.42L202.329 145.798L210.339 141.176C210.364 141.185 210.384 141.197 210.408 141.197C210.432 141.197 210.453 141.189 210.477 141.176L218.487 145.798L210.477 150.42ZM209.927 150.65L201.925 155.268L193.927 150.65L201.925 146.033L209.927 150.65ZM201.521 155.502L193.523 160.12L185.525 155.502L193.523 150.885L201.521 155.502ZM193.118 160.354L185.116 164.972L177.118 160.354L185.116 155.737L193.118 160.354ZM184.712 165.207L176.714 169.824L168.716 165.207L176.714 160.589L184.712 165.207ZM176.31 170.059L168.308 174.676L160.31 170.059L168.308 165.441L176.31 170.059ZM167.903 174.911L159.906 179.528L151.908 174.911L159.906 170.293L167.903 174.911ZM159.501 179.763L151.503 184.38L143.505 179.763L151.503 175.145L159.501 179.763ZM151.099 184.615L143.097 189.233L135.099 184.615L143.097 179.997L151.099 184.615ZM142.693 189.467L134.695 194.085L126.697 189.467L134.695 184.85L142.693 189.467ZM134.29 194.319L126.288 198.937L118.291 194.319L126.288 189.702L134.29 194.319ZM125.884 199.171L117.886 203.789L109.888 199.171L117.886 194.554L125.884 199.171ZM117.482 204.023L109.48 208.641L101.482 204.023L109.48 199.406L117.482 204.023ZM109.076 208.876L101.078 213.493L93.0798 208.876L101.078 204.258L109.076 208.876ZM100.673 213.728L92.6714 218.345L84.6735 213.728L92.6714 209.11L100.673 213.728ZM92.2671 218.58L84.2692 223.197L76.2713 218.58L84.2692 213.962L92.2671 218.58ZM92.6714 218.81L100.669 223.428L92.6714 228.05L84.6735 223.432L92.6714 218.81ZM101.078 223.662L109.076 228.28L101.078 232.902L93.0798 228.284L101.078 223.662ZM109.48 228.515L117.478 233.132L109.48 237.754L101.482 233.136L109.48 228.515ZM117.886 233.367L125.884 237.984L117.886 242.606L109.888 237.988L117.886 233.367ZM126.288 238.219L134.286 242.836L126.288 247.458L118.291 242.84L126.288 238.219ZM134.695 243.071L142.693 247.688L134.695 252.31L126.697 247.693L134.695 243.071ZM143.097 247.923L151.095 252.541L143.097 257.162L135.099 252.545L143.097 247.923ZM151.503 252.775L159.501 257.393L151.503 262.014L143.505 257.397L151.503 252.775ZM159.906 257.627L167.903 262.245L159.906 266.866L151.908 262.249L159.906 257.627ZM168.308 262.479L176.31 267.097L168.312 271.719L160.31 267.101L168.308 262.479ZM176.714 267.331L184.716 271.949L176.714 276.571L168.712 271.953L176.714 267.331ZM185.116 272.184L193.118 276.801L185.116 281.423L177.114 276.805L185.116 272.184ZM193.523 277.036L201.525 281.653L193.523 286.275L185.521 281.657L193.523 277.036ZM201.925 281.888L209.927 286.505L201.925 291.127L193.923 286.509L201.925 281.888ZM202.329 281.657L210.339 277.032C210.364 277.04 210.384 277.052 210.408 277.052C210.432 277.052 210.453 277.04 210.477 277.032L218.487 281.657L210.477 286.283C210.432 286.267 210.384 286.267 210.339 286.283L202.329 281.657ZM218.891 281.888L226.893 286.505L218.891 291.127L210.889 286.509L218.891 281.888ZM219.296 281.657L227.297 277.04L235.299 281.657L227.293 286.275L219.296 281.657ZM235.7 281.888L243.702 286.505L235.7 291.127L227.698 286.509L235.7 281.888ZM236.104 281.657L244.106 277.04L252.104 281.657L244.102 286.275L236.104 281.657ZM244.506 276.805L252.508 272.188L260.506 276.805L252.504 281.423L244.506 276.805ZM252.909 271.953L260.911 267.336L268.908 271.953L260.911 276.571L252.909 271.953ZM261.315 267.101L269.313 262.483L277.311 267.101L269.313 271.719L261.315 267.101ZM269.717 262.249L277.715 257.631L285.713 262.249L277.719 266.866L269.717 262.249ZM278.123 257.397L286.125 252.779L294.123 257.397L286.121 262.014L278.123 257.397ZM286.526 252.545L294.524 247.927L302.521 252.545L294.528 257.162L286.526 252.545ZM294.932 247.693L302.93 243.075L310.928 247.693L302.93 252.31L294.932 247.693ZM303.334 242.84L311.332 238.223L319.33 242.84L311.336 247.458L303.334 242.84ZM311.74 237.988L319.742 233.371L327.74 237.988L319.738 242.606L311.74 237.988ZM320.143 233.136L328.141 228.519L336.139 233.136L328.145 237.754L320.143 233.136ZM328.549 228.284L336.547 223.666L344.545 228.284L336.547 232.902L328.549 228.284ZM336.951 223.432L344.949 218.814L352.947 223.432L344.953 228.05L336.951 223.432ZM345.358 218.58L353.36 213.962L361.357 218.58L353.355 223.197L345.358 218.58ZM344.953 218.345L336.955 213.728L344.953 209.11L352.951 213.728L344.953 218.345ZM336.547 213.493L328.549 208.876L336.551 204.258L344.549 208.876L336.547 213.493ZM328.145 208.641L320.147 204.023L328.149 199.406L336.147 204.023L328.145 208.641ZM319.738 203.789L311.74 199.171L319.738 194.554L327.736 199.171L319.738 203.789ZM311.336 198.937L303.338 194.319L311.336 189.702L319.334 194.319L311.336 198.937ZM302.93 194.085L294.932 189.467L302.93 184.85L310.928 189.467L302.93 194.085ZM294.528 189.233L286.53 184.615L294.528 179.997L302.526 184.615L294.528 189.233ZM286.121 184.38L278.123 179.763L286.121 175.145L294.119 179.763L286.121 184.38ZM277.719 179.528L269.721 174.911L277.719 170.293L285.717 174.911L277.719 179.528ZM269.313 174.676L261.315 170.059L269.313 165.441L277.311 170.059L269.313 174.676ZM260.911 169.824L252.913 165.207L260.911 160.589L268.908 165.207L260.911 169.824ZM252.508 164.972L244.51 160.354L252.508 155.737L260.506 160.354L252.508 164.972ZM244.102 160.12L236.104 155.502L244.102 150.885L252.1 155.502L244.102 160.12ZM235.7 155.268L227.702 150.65L235.7 146.033L243.698 150.65L235.7 155.268ZM227.293 150.416L219.296 145.798L227.293 141.18L235.291 145.798L227.293 150.416ZM218.891 145.564L210.893 140.946L218.891 136.328L226.889 140.946L218.891 145.564ZM210.477 140.715C210.432 140.699 210.384 140.699 210.339 140.715L202.329 136.094L210.339 131.472C210.364 131.48 210.384 131.492 210.408 131.492C210.432 131.492 210.457 131.484 210.477 131.472L218.487 136.094L210.477 140.715ZM209.927 140.946L201.925 145.564L193.927 140.946L201.925 136.328L209.927 140.946ZM201.521 145.798L193.523 150.416L185.525 145.798L193.523 141.18L201.521 145.798ZM193.118 150.65L185.116 155.268L177.118 150.65L185.116 146.033L193.118 150.65ZM184.712 155.502L176.714 160.12L168.716 155.502L176.714 150.885L184.712 155.502ZM176.31 160.354L168.308 164.972L160.31 160.354L168.308 155.737L176.31 160.354ZM167.903 165.207L159.906 169.824L151.908 165.207L159.906 160.589L167.903 165.207ZM159.501 170.059L151.503 174.676L143.505 170.059L151.503 165.441L159.501 170.059ZM151.099 174.911L143.097 179.528L135.099 174.911L143.097 170.293L151.099 174.911ZM142.693 179.763L134.695 184.38L126.697 179.763L134.695 175.145L142.693 179.763ZM134.29 184.615L126.288 189.233L118.291 184.615L126.288 179.997L134.29 184.615ZM125.884 189.467L117.886 194.085L109.888 189.467L117.886 184.85L125.884 189.467ZM117.482 194.319L109.48 198.937L101.482 194.319L109.48 189.702L117.482 194.319ZM109.076 199.171L101.078 203.789L93.0798 199.171L101.078 194.554L109.076 199.171ZM100.673 204.023L92.6714 208.641L84.6735 204.023L92.6714 199.406L100.673 204.023ZM92.2671 208.876L84.2692 213.493L76.2713 208.876L84.2692 204.258L92.2671 208.876ZM83.8648 213.728L75.8629 218.345L67.865 213.728L75.8629 209.11L83.8648 213.728ZM75.4585 218.58L67.4606 223.197L59.4627 218.58L67.4606 213.962L75.4585 218.58ZM75.8629 218.81L83.8608 223.428L75.8629 228.05L67.865 223.432L75.8629 218.81ZM84.2692 223.662L92.2671 228.28L84.2692 232.902L76.2713 228.284L84.2692 223.662ZM92.6714 228.515L100.669 233.132L92.6714 237.754L84.6735 233.136L92.6714 228.515ZM101.078 233.367L109.076 237.984L101.078 242.606L93.0798 237.988L101.078 233.367ZM109.48 238.219L117.478 242.836L109.48 247.458L101.482 242.84L109.48 238.219ZM117.886 243.071L125.884 247.688L117.886 252.31L109.888 247.693L117.886 243.071ZM126.288 247.923L134.286 252.541L126.288 257.162L118.291 252.545L126.288 247.923ZM134.695 252.775L142.693 257.393L134.695 262.014L126.697 257.397L134.695 252.775ZM143.097 257.627L151.095 262.245L143.097 266.866L135.099 262.249L143.097 257.627ZM151.503 262.479L159.501 267.097L151.503 271.719L143.505 267.101L151.503 262.479ZM159.906 267.331L167.908 271.949L159.906 276.571L151.904 271.953L159.906 267.331ZM168.312 272.184L176.314 276.801L168.312 281.423L160.31 276.805L168.312 272.184ZM176.714 277.036L184.716 281.653L176.714 286.275L168.712 281.657L176.714 277.036ZM185.116 281.888L193.118 286.505L185.116 291.127L177.114 286.509L185.116 281.888ZM193.523 286.74L201.525 291.358L193.523 295.979L185.521 291.362L193.523 286.74ZM201.925 291.592L209.927 296.21L201.925 300.831L193.923 296.214L201.925 291.592ZM202.329 291.362L210.339 286.736C210.364 286.744 210.384 286.756 210.408 286.756C210.432 286.756 210.453 286.744 210.477 286.736L218.487 291.362L210.477 295.987C210.432 295.971 210.384 295.971 210.339 295.987L202.329 291.362ZM218.891 291.592L226.893 296.21L218.891 300.831L210.889 296.214L218.891 291.592ZM219.296 291.362L227.297 286.744L235.299 291.362L227.293 295.979L219.296 291.362ZM235.7 291.592L243.698 296.21L235.7 300.831L227.698 296.214L235.7 291.592ZM236.104 291.362L244.106 286.744L252.104 291.362L244.102 295.979L236.104 291.362ZM244.506 286.509L252.508 281.892L260.506 286.509L252.504 291.127L244.506 286.509ZM252.909 281.657L260.911 277.04L268.908 281.657L260.911 286.275L252.909 281.657ZM261.315 276.805L269.317 272.188L277.315 276.805L269.313 281.423L261.315 276.805ZM269.717 271.953L277.715 267.336L285.713 271.953L277.719 276.571L269.717 271.953ZM278.123 267.101L286.121 262.483L294.119 267.101L286.121 271.719L278.123 267.101ZM286.526 262.249L294.528 257.631L302.526 262.249L294.528 266.866L286.526 262.249ZM294.932 257.397L302.93 252.779L310.928 257.397L302.93 262.014L294.932 257.397ZM303.334 252.545L311.332 247.927L319.33 252.545L311.336 257.162L303.334 252.545ZM311.74 247.693L319.738 243.075L327.736 247.693L319.738 252.31L311.74 247.693ZM320.143 242.84L328.145 238.223L336.143 242.84L328.145 247.458L320.143 242.84ZM328.549 237.988L336.547 233.371L344.545 237.988L336.547 242.606L328.549 237.988ZM336.951 233.136L344.949 228.519L352.947 233.136L344.953 237.754L336.951 233.136ZM345.358 228.284L353.355 223.666L361.353 228.284L353.355 232.902L345.358 228.284ZM353.76 223.432L361.762 218.814L369.76 223.432L361.758 228.05L353.76 223.432ZM362.162 218.58L370.164 213.962L378.162 218.58L370.164 223.197L362.162 218.58ZM361.758 218.345L353.76 213.728L361.762 209.11L369.76 213.728L361.758 218.345ZM353.355 213.493L345.358 208.876L353.36 204.258L361.357 208.876L353.355 213.493ZM344.953 208.641L336.955 204.023L344.957 199.406L352.955 204.023L344.953 208.641ZM336.547 203.789L328.549 199.171L336.551 194.554L344.549 199.171L336.547 203.789ZM328.145 198.937L320.147 194.319L328.149 189.702L336.147 194.319L328.145 198.937ZM319.738 194.085L311.74 189.467L319.742 184.85L327.74 189.467L319.738 194.085ZM311.336 189.233L303.338 184.615L311.34 179.997L319.338 184.615L311.336 189.233ZM302.93 184.38L294.932 179.763L302.93 175.145L310.928 179.763L302.93 184.38ZM294.528 179.528L286.53 174.911L294.528 170.293L302.526 174.911L294.528 179.528ZM286.121 174.676L278.123 170.059L286.121 165.441L294.119 170.059L286.121 174.676ZM277.719 169.824L269.721 165.207L277.719 160.589L285.717 165.207L277.719 169.824ZM269.313 164.972L261.315 160.354L269.313 155.737L277.311 160.354L269.313 164.972ZM260.911 160.12L252.913 155.502L260.911 150.885L268.908 155.502L260.911 160.12ZM252.508 155.268L244.51 150.65L252.508 146.033L260.506 150.65L252.508 155.268ZM244.102 150.416L236.104 145.798L244.102 141.18L252.1 145.798L244.102 150.416ZM235.7 145.564L227.702 140.946L235.7 136.328L243.698 140.946L235.7 145.564ZM227.293 140.711L219.296 136.094L227.293 131.476L235.291 136.094L227.293 140.711ZM218.891 135.859L210.893 131.242L218.891 126.624L226.889 131.242L218.891 135.859ZM210.477 131.011C210.432 130.995 210.384 130.995 210.339 131.011L202.329 126.39L210.339 121.768C210.364 121.776 210.384 121.788 210.408 121.788C210.432 121.788 210.457 121.78 210.477 121.768L218.487 126.39L210.477 131.011ZM209.927 131.242L201.925 135.859L193.927 131.242L201.925 126.624L209.927 131.242ZM201.521 136.094L193.523 140.711L185.525 136.094L193.523 131.476L201.521 136.094ZM193.118 140.946L185.116 145.564L177.118 140.946L185.116 136.328L193.118 140.946ZM184.712 145.798L176.714 150.416L168.716 145.798L176.714 141.18L184.712 145.798ZM176.31 150.65L168.308 155.268L160.31 150.65L168.308 146.033L176.31 150.65ZM167.903 155.502L159.906 160.12L151.908 155.502L159.906 150.885L167.903 155.502ZM159.501 160.354L151.503 164.972L143.505 160.354L151.503 155.737L159.501 160.354ZM151.099 165.207L143.097 169.824L135.099 165.207L143.097 160.589L151.099 165.207ZM142.693 170.059L134.695 174.676L126.697 170.059L134.695 165.441L142.693 170.059ZM134.29 174.911L126.288 179.528L118.291 174.911L126.288 170.293L134.29 174.911ZM125.884 179.763L117.886 184.38L109.888 179.763L117.886 175.145L125.884 179.763ZM117.482 184.615L109.48 189.233L101.482 184.615L109.48 179.997L117.482 184.615ZM109.076 189.467L101.078 194.085L93.0798 189.467L101.078 184.85L109.076 189.467ZM100.673 194.319L92.6714 198.937L84.6735 194.319L92.6714 189.702L100.673 194.319ZM92.2671 199.171L84.2692 203.789L76.2713 199.171L84.2692 194.554L92.2671 199.171ZM83.8648 204.023L75.8629 208.641L67.865 204.023L75.8629 199.406L83.8648 204.023ZM75.4585 208.876L67.4606 213.493L59.4627 208.876L67.4606 204.258L75.4585 208.876ZM67.0563 213.728L59.0543 218.345L51.0564 213.728L59.0543 209.11L67.0563 213.728ZM58.65 218.58L50.6521 223.197L42.6542 218.58L50.6521 213.962L58.65 218.58ZM59.0543 218.81L67.0522 223.428L59.0543 228.05L51.0564 223.432L59.0543 218.81ZM67.4606 223.662L75.4585 228.28L67.4606 232.902L59.4627 228.284L67.4606 223.662ZM75.8629 228.515L83.8608 233.132L75.8629 237.754L67.865 233.136L75.8629 228.515ZM84.2692 233.367L92.2671 237.984L84.2692 242.606L76.2713 237.988L84.2692 233.367ZM92.6714 238.219L100.669 242.836L92.6714 247.458L84.6695 242.84L92.6714 238.219ZM101.078 243.071L109.076 247.688L101.078 252.31L93.0798 247.693L101.078 243.071ZM109.48 247.923L117.478 252.541L109.48 257.162L101.482 252.545L109.48 247.923ZM117.886 252.775L125.884 257.393L117.886 262.014L109.888 257.397L117.886 252.775ZM126.288 257.627L134.286 262.245L126.288 266.866L118.291 262.249L126.288 257.627ZM134.695 262.479L142.693 267.097L134.695 271.719L126.697 267.101L134.695 262.479ZM143.097 267.331L151.095 271.949L143.097 276.571L135.099 271.953L143.097 267.331ZM151.503 272.184L159.505 276.801L151.503 281.423L143.501 276.805L151.503 272.184ZM159.906 277.036L167.908 281.653L159.906 286.275L151.904 281.657L159.906 277.036ZM168.308 281.888L176.31 286.505L168.312 291.127L160.31 286.509L168.308 281.888ZM176.714 286.74L184.716 291.358L176.714 295.979L168.712 291.362L176.714 286.74ZM185.116 291.592L193.118 296.21L185.116 300.831L177.114 296.214L185.116 291.592ZM193.523 296.444L201.525 301.062L193.523 305.683L185.521 301.066L193.523 296.444ZM201.925 301.296L209.927 305.914L201.925 310.536L193.923 305.918L201.925 301.296ZM202.329 301.066L210.339 296.44C210.364 296.448 210.384 296.46 210.408 296.46C210.432 296.46 210.453 296.448 210.477 296.44L218.487 301.066L210.477 305.692C210.432 305.675 210.384 305.675 210.339 305.692L202.329 301.066ZM218.891 301.296L226.893 305.914L218.891 310.536L210.889 305.918L218.891 301.296ZM219.296 301.066L227.297 296.448L235.299 301.066L227.293 305.683L219.296 301.066ZM235.7 301.296L243.702 305.914L235.7 310.536L227.698 305.918L235.7 301.296ZM236.104 301.066L244.106 296.448L252.108 301.066L244.102 305.683L236.104 301.066ZM244.506 296.214L252.508 291.596L260.51 296.214L252.504 300.831L244.506 296.214ZM252.909 291.362L260.911 286.744L268.908 291.362L260.911 295.979L252.909 291.362ZM261.315 286.509L269.317 281.892L277.315 286.509L269.313 291.127L261.315 286.509ZM269.717 281.657L277.719 277.04L285.721 281.657L277.719 286.275L269.717 281.657ZM278.123 276.805L286.121 272.188L294.119 276.805L286.121 281.423L278.123 276.805ZM286.526 271.953L294.524 267.336L302.521 271.953L294.528 276.571L286.526 271.953ZM294.932 267.101L302.934 262.483L310.932 267.101L302.93 271.719L294.932 267.101ZM303.334 262.249L311.332 257.631L319.33 262.249L311.336 266.866L303.334 262.249ZM311.74 257.397L319.738 252.779L327.736 257.397L319.738 262.014L311.74 257.397ZM320.143 252.545L328.141 247.927L336.139 252.545L328.145 257.162L320.143 252.545ZM328.549 247.693L336.551 243.075L344.549 247.693L336.547 252.31L328.549 247.693ZM336.951 242.84L344.949 238.223L352.947 242.84L344.953 247.458L336.951 242.84ZM345.358 237.988L353.355 233.371L361.353 237.988L353.355 242.606L345.358 237.988ZM353.76 233.136L361.758 228.519L369.756 233.136L361.758 237.754L353.76 233.136ZM362.162 228.284L370.164 223.666L378.162 228.284L370.164 232.902L362.162 228.284ZM370.568 223.432L378.57 218.814L386.568 223.432L378.566 228.05L370.568 223.432ZM378.971 218.58L386.969 213.962L394.966 218.58L386.973 223.197L378.971 218.58ZM378.566 218.345L370.568 213.728L378.566 209.11L386.564 213.728L378.566 218.345ZM370.164 213.493L362.166 208.876L370.164 204.258L378.162 208.876L370.164 213.493ZM361.762 208.641L353.764 204.023L361.762 199.406L369.76 204.023L361.762 208.641ZM353.355 203.789L345.358 199.171L349.765 196.628C349.862 196.571 349.894 196.45 349.838 196.353C349.781 196.256 349.66 196.224 349.563 196.28L344.953 198.941L336.955 194.323L344.953 189.706L361.357 199.175L353.355 203.789ZM336.547 194.085L328.549 189.467L336.547 184.85L344.545 189.467L336.547 194.085ZM328.145 189.233L320.147 184.615L328.145 179.997L336.143 184.615L328.145 189.233ZM319.738 184.38L311.74 179.763L319.738 175.145L327.736 179.763L319.738 184.38ZM311.336 179.528L303.338 174.911L311.336 170.293L319.334 174.911L311.336 179.528ZM302.93 174.676L294.932 170.059L302.93 165.441L310.928 170.059L302.93 174.676ZM294.528 169.824L286.53 165.207L294.528 160.589L302.526 165.207L294.528 169.824ZM286.121 164.972L278.123 160.354L286.121 155.737L294.119 160.354L286.121 164.972ZM277.719 160.12L269.721 155.502L277.719 150.885L285.717 155.502L277.719 160.12ZM269.313 155.268L261.315 150.65L269.313 146.033L277.311 150.65L269.313 155.268ZM260.911 150.416L252.913 145.798L260.911 141.18L268.908 145.798L260.911 150.416ZM252.508 145.564L244.51 140.946L252.508 136.328L260.506 140.946L252.508 145.564ZM244.102 140.711L236.104 136.094L244.102 131.476L252.1 136.094L244.102 140.711ZM235.7 135.859L227.702 131.242L235.7 126.624L243.698 131.242L235.7 135.859ZM227.293 131.007L219.296 126.39L227.293 121.772L235.291 126.39L227.293 131.007ZM218.891 126.155L210.893 121.537L218.891 116.92L226.889 121.537L218.891 126.155ZM210.477 121.307C210.432 121.291 210.384 121.291 210.339 121.307L202.329 116.685L210.339 112.064C210.364 112.072 210.384 112.084 210.408 112.084C210.432 112.084 210.457 112.076 210.477 112.064L218.487 116.685L210.477 121.307ZM209.927 121.537L201.925 126.155L193.927 121.537L201.925 116.92L209.927 121.537ZM201.521 126.39L193.523 131.007L185.525 126.39L193.523 121.772L201.521 126.39ZM193.118 131.242L185.116 135.859L177.118 131.242L185.116 126.624L193.118 131.242ZM184.712 136.094L176.714 140.711L168.716 136.094L176.714 131.476L184.712 136.094ZM176.31 140.946L168.308 145.564L160.31 140.946L168.308 136.328L176.31 140.946ZM167.903 145.798L159.906 150.416L151.908 145.798L159.906 141.18L167.903 145.798ZM159.501 150.65L151.503 155.268L143.505 150.65L151.503 146.033L159.501 150.65ZM151.099 155.502L143.097 160.12L135.099 155.502L143.097 150.885L151.099 155.502ZM142.693 160.354L134.695 164.972L126.697 160.354L134.695 155.737L142.693 160.354ZM134.29 165.207L126.288 169.824L118.287 165.207L126.284 160.589L134.29 165.207ZM125.884 170.059L117.886 174.676L109.884 170.059L117.882 165.441L125.884 170.059ZM117.482 174.911L109.48 179.528L101.482 174.911L109.48 170.293L117.482 174.911ZM109.076 179.763L101.078 184.38L93.0758 179.763L101.074 175.145L109.076 179.763ZM100.673 184.615L92.6714 189.233L84.6695 184.615L92.6674 179.997L100.673 184.615ZM92.2671 189.467L84.2692 194.085L76.2672 189.467L84.2651 184.85L92.2671 189.467ZM83.8648 194.319L75.8629 198.937L67.8609 194.319L75.8588 189.702L83.8648 194.319ZM75.4585 199.171L67.4606 203.789L59.4587 199.171L67.4566 194.554L75.4585 199.171ZM67.0563 204.023L59.0543 208.641L51.0524 204.023L59.0503 199.406L67.0563 204.023ZM58.654 208.876L50.6521 213.493L42.6501 208.876L50.648 204.258L58.654 208.876ZM50.2477 213.728L42.2498 218.345L34.2479 213.728L42.2458 209.11L50.2477 213.728ZM41.8455 218.58L33.8435 223.197L25.8416 218.58L33.8395 213.962L41.8455 218.58ZM42.2498 218.81L50.2477 223.428L42.2498 228.05L34.2479 223.432L42.2498 218.81ZM50.6521 223.662L58.65 228.28L50.6521 232.902L42.6542 228.284L50.6521 223.662ZM59.0543 228.515L67.0522 233.132L59.0584 237.754L51.0605 233.136L59.0543 228.515ZM67.4606 233.367L75.4585 237.984L67.4606 242.606L59.4627 237.988L67.4606 233.367ZM75.8629 238.219L83.8608 242.836L75.8629 247.458L67.865 242.84L75.8629 238.219ZM84.2692 243.071L92.2671 247.688L84.2692 252.31L76.2672 247.693L84.2692 243.071ZM92.6714 247.923L100.669 252.541L92.6714 257.162L84.6735 252.545L92.6714 247.923ZM101.078 252.775L109.076 257.393L101.078 262.014L93.0798 257.397L101.078 252.775ZM109.48 257.627L117.478 262.245L109.48 266.866L101.482 262.249L109.48 257.627ZM117.886 262.479L125.884 267.097L117.886 271.719L109.888 267.101L117.886 262.479ZM126.288 267.331L134.286 271.949L126.288 276.571L118.291 271.953L126.288 267.331ZM134.695 272.184L142.693 276.801L134.695 281.423L126.697 276.805L134.695 272.184ZM143.097 277.036L151.099 281.653L143.097 286.275L135.095 281.657L143.097 277.036ZM151.503 281.888L159.505 286.505L151.503 291.127L143.501 286.509L151.503 281.888ZM159.906 286.74L167.908 291.358L159.906 295.979L151.904 291.362L159.906 286.74ZM168.312 291.592L176.314 296.21L168.312 300.831L160.31 296.214L168.312 291.592ZM176.714 296.444L184.716 301.062L176.714 305.683L168.712 301.066L176.714 296.444ZM185.116 301.296L193.118 305.914L185.116 310.536L177.114 305.918L185.116 301.296ZM193.523 306.148L201.525 310.766L193.523 315.388L185.521 310.77L193.523 306.148ZM201.925 311.001L209.927 315.618L201.925 320.24L193.923 315.622L201.925 311.001ZM202.329 310.77L210.339 306.144C210.364 306.152 210.384 306.165 210.408 306.165C210.432 306.165 210.453 306.152 210.477 306.144L218.487 310.77L210.477 315.396C210.432 315.38 210.384 315.38 210.339 315.396L202.329 310.77ZM218.891 311.001L226.893 315.618L218.891 320.24L210.889 315.622L218.891 311.001ZM219.296 310.77L227.297 306.152L235.299 310.77L227.293 315.388L219.296 310.77ZM244.102 315.388L236.1 310.77L244.102 306.152L252.104 310.77L244.102 315.388ZM252.504 310.536L244.502 305.918L252.504 301.3L260.506 305.918L252.504 310.536ZM260.911 305.683L252.909 301.066L260.911 296.448L268.912 301.066L260.911 305.683ZM269.313 300.831L261.311 296.214L269.313 291.596L277.315 296.214L269.313 300.831ZM277.719 295.979L269.721 291.362L277.723 286.744L285.721 291.362L277.719 295.979ZM286.121 291.127L278.123 286.509L286.125 281.892L294.123 286.509L286.121 291.127ZM294.528 286.275L286.53 281.657L294.528 277.04L302.526 281.657L294.528 286.275ZM302.93 281.423L294.932 276.805L302.93 272.188L310.928 276.805L302.93 281.423ZM311.336 276.571L303.338 271.953L311.34 267.336L315.836 269.931C315.934 269.988 316.059 269.956 316.111 269.859C316.168 269.762 316.136 269.64 316.039 269.584L311.74 267.105L319.738 262.487L327.736 267.105L311.336 276.571ZM328.145 266.866L320.147 262.249L328.145 257.631L336.143 262.249L328.145 266.866ZM336.547 262.014L328.549 257.397L336.547 252.779L344.545 257.397L336.547 262.014ZM344.953 257.162L336.955 252.545L344.957 247.927L352.955 252.545L344.953 257.162ZM353.355 252.31L345.358 247.693L353.355 243.075L361.353 247.693L353.355 252.31ZM361.758 247.458L353.76 242.84L361.758 238.223L369.756 242.84L361.758 247.458ZM370.164 242.606L362.166 237.988L370.168 233.371L378.166 237.988L370.164 242.606ZM378.566 237.754L370.568 233.136L378.57 228.519L386.568 233.136L378.566 237.754ZM386.973 232.902L378.975 228.284L386.977 223.666L394.975 228.284L386.973 232.902ZM411.779 218.58L395.375 228.05L387.377 223.432L395.375 218.814L398.533 220.638C398.63 220.695 398.751 220.662 398.808 220.565C398.864 220.468 398.832 220.347 398.735 220.29L395.779 218.584L398.84 216.817C398.937 216.76 398.969 216.639 398.913 216.542C398.856 216.445 398.735 216.413 398.638 216.469L395.375 218.353L387.377 213.736L395.375 209.118L411.779 218.58ZM394.97 208.876L386.973 213.493L378.975 208.876L386.973 204.258L394.97 208.876ZM386.568 204.023L378.566 208.641L370.568 204.023L375.489 201.181C375.586 201.124 375.619 201.003 375.562 200.906C375.505 200.809 375.384 200.777 375.287 200.833L370.164 203.789L362.166 199.171L370.164 194.554L386.568 204.023ZM369.76 194.319L361.762 198.937L345.358 189.467L353.355 184.85L369.76 194.319ZM352.951 184.615L344.953 189.233L336.955 184.615L344.953 179.997L352.951 184.615ZM344.549 179.763L336.547 184.38L328.549 179.763L336.547 175.145L344.549 179.763ZM336.143 174.911L328.145 179.528L320.147 174.911L328.145 170.293L336.143 174.911ZM327.74 170.059L319.738 174.676L311.74 170.059L319.738 165.441L327.74 170.059ZM319.334 165.207L311.336 169.824L303.338 165.207L311.336 160.589L319.334 165.207ZM310.932 160.354L302.93 164.972L294.932 160.354L302.93 155.737L310.932 160.354ZM302.526 155.502L294.528 160.12L286.53 155.502L294.528 150.885L302.526 155.502ZM294.123 150.65L286.121 155.268L278.123 150.65L286.121 146.033L294.123 150.65ZM285.717 145.798L277.719 150.416L269.721 145.798L277.719 141.18L285.717 145.798ZM277.315 140.946L269.313 145.564L261.315 140.946L269.313 136.328L277.315 140.946ZM268.908 136.094L260.911 140.711L252.913 136.094L260.911 131.476L268.908 136.094ZM260.506 131.242L252.508 135.859L244.51 131.242L252.508 126.624L260.506 131.242ZM244.102 121.768L252.1 126.386L244.102 131.007L236.104 126.39L244.102 121.768ZM243.698 121.537L235.7 126.155L227.702 121.537L235.7 116.92L243.698 121.537ZM235.295 116.685L227.293 121.303L219.296 116.685L227.293 112.068L235.295 116.685ZM226.889 111.833L218.891 116.451L210.893 111.833L218.891 107.216L226.889 111.833ZM210.339 102.355C210.364 102.364 210.384 102.376 210.408 102.376C210.432 102.376 210.457 102.368 210.477 102.355L218.487 106.977L210.477 111.599C210.432 111.583 210.384 111.583 210.339 111.599L202.329 106.977L210.339 102.355ZM201.925 107.212L209.923 111.829L201.925 116.451L197.841 114.094C197.744 114.037 197.623 114.069 197.566 114.166C197.509 114.263 197.542 114.385 197.639 114.441L201.521 116.681L193.523 121.303L185.525 116.685L201.925 107.212ZM185.116 116.916L193.114 121.533L185.116 126.155L177.118 121.537L185.116 116.916ZM176.714 121.768L184.712 126.386L176.714 131.007L168.716 126.39L176.714 121.768ZM168.308 126.62L176.306 131.238L168.308 135.859L160.31 131.242L168.308 126.62ZM159.906 131.472L167.903 136.09L159.906 140.711L151.908 136.094L159.906 131.472ZM151.503 136.324L159.501 140.942L151.503 145.564L143.505 140.946L151.503 136.324ZM143.097 141.176L151.095 145.794L143.097 150.416L135.099 145.798L143.097 141.176ZM134.695 146.029L142.693 150.646L134.695 155.268L126.697 150.65L134.695 146.029ZM126.288 150.881L134.286 155.498L126.288 160.12L118.291 155.502L126.288 150.881ZM117.886 155.733L125.884 160.35L117.886 164.972L109.888 160.354L117.886 155.733ZM109.48 160.585L117.478 165.202L109.48 169.824L101.482 165.207L109.48 160.585ZM101.078 165.437L109.076 170.055L101.078 174.676L93.0798 170.059L101.078 165.437ZM92.6714 170.289L100.669 174.907L92.6714 179.528L84.6735 174.911L92.6714 170.289ZM84.2692 175.141L92.2671 179.759L84.2692 184.38L80.25 182.06C80.1529 182.003 80.0316 182.035 79.975 182.132C79.9184 182.229 79.9508 182.351 80.0478 182.407L83.8648 184.611L75.8629 189.233L67.865 184.615L84.2692 175.141ZM67.4606 184.845L75.4585 189.463L67.4606 194.085L59.4627 189.467L67.4606 184.845ZM59.0543 189.698L67.0522 194.315L59.0543 198.937L51.0564 194.319L59.0543 189.698ZM50.6521 194.55L58.65 199.167L50.6521 203.789L42.6542 199.171L50.6521 194.55ZM42.2498 199.402L50.2477 204.019L42.2458 208.641L37.7131 206.025C37.616 205.968 37.4947 206.001 37.4381 206.098C37.3815 206.195 37.4139 206.316 37.5109 206.373L41.8414 208.872L33.8435 213.493L25.8456 208.876L42.2498 199.402ZM25.4413 209.106L33.4392 213.724L25.4413 218.345L17.4434 213.728L25.4413 209.106ZM9.03707 218.58L17.035 213.962L25.0329 218.58L21.7334 220.484C21.6364 220.541 21.6041 220.662 21.6607 220.759C21.6971 220.824 21.7658 220.86 21.8345 220.86C21.8669 220.86 21.9033 220.852 21.9356 220.832L25.4372 218.81L33.4392 223.428L25.4413 228.05L9.03707 218.58ZM33.8435 232.902L25.8456 228.284L33.8435 223.666L41.8414 228.284L33.8435 232.902ZM34.2479 233.136L42.2458 228.519L50.2437 233.136L42.2498 237.754L34.2479 233.136ZM42.6542 237.988L50.6521 233.371L58.65 237.988L50.6521 242.606L42.6542 237.988ZM51.0564 242.84L59.0584 238.223L67.0563 242.84L59.0543 247.458L51.0564 242.84ZM59.4587 247.693L67.4606 243.075L75.4585 247.693L67.4606 252.31L59.4587 247.693ZM67.865 252.545L75.8669 247.927L83.8689 252.545L75.8629 257.162L67.865 252.545ZM76.2672 257.397L84.2692 252.779L92.2671 257.397L84.2692 262.014L76.2672 257.397ZM92.6714 266.866L84.6735 262.249L92.6755 257.631L100.673 262.249L92.6714 266.866ZM93.0758 267.101L101.078 262.483L109.076 267.101L101.078 271.719L93.0758 267.101ZM109.48 276.571L101.482 271.953L109.484 267.336L117.482 271.953L109.48 276.571ZM117.886 281.423L109.888 276.805L117.89 272.188L125.888 276.805L117.886 281.423ZM126.288 286.275L118.291 281.657L126.293 277.04L134.29 281.657L126.288 286.275ZM126.693 286.509L134.695 281.892L142.697 286.509L134.695 291.127L126.693 286.509ZM135.099 291.362L143.101 286.744L151.103 291.362L143.097 295.979L135.099 291.362ZM143.501 296.214L151.503 291.596L159.505 296.214L151.503 300.831L143.501 296.214ZM151.908 301.066L159.91 296.448L167.912 301.066L159.906 305.683L151.908 301.066ZM160.31 305.918L168.312 301.3L176.314 305.918L168.308 310.536L160.31 305.918ZM168.712 310.77L176.714 306.152L184.716 310.77L176.714 315.388L168.712 310.77ZM185.116 320.24L177.114 315.622L185.116 311.005L193.118 315.622L185.116 320.24ZM193.523 325.092L185.521 320.474L193.523 315.857L201.525 320.474L193.523 325.092ZM201.925 329.944L193.927 325.326L201.929 320.709L209.931 325.326L201.925 329.944ZM210.339 325.096L202.329 320.47L210.339 315.845C210.364 315.853 210.384 315.865 210.408 315.865C210.432 315.865 210.453 315.853 210.477 315.845L218.487 320.47L210.477 325.096C210.432 325.08 210.384 325.08 210.339 325.096ZM218.891 329.944L210.889 325.326L218.891 320.709L226.893 325.326L218.891 329.944ZM219.296 320.474L227.297 315.857L235.299 320.474L227.293 325.092L219.296 320.474Z" fill="#161F28"/>
<path d="M168.575 223.538L92.3523 179.868L168.575 136.199L244.211 179.868L168.575 223.538Z" fill="#070A0E"/>
<path d="M168.576 223.739C168.54 223.739 168.508 223.731 168.475 223.711L92.2525 180.042C92.1878 180.005 92.1514 179.941 92.1514 179.868C92.1514 179.795 92.1918 179.73 92.2525 179.694L168.475 136.025C168.536 135.989 168.613 135.989 168.677 136.025L244.314 179.694C244.374 179.73 244.415 179.795 244.415 179.868C244.415 179.941 244.374 180.005 244.314 180.042L168.677 223.711C168.645 223.731 168.609 223.739 168.576 223.739ZM92.7579 179.868L168.572 223.303L243.804 179.868L168.572 136.433L92.7579 179.868Z" fill="#657786"/>
<path d="M151.475 213.744L168.574 223.537L185.379 213.833L185.193 55.2251L168.384 45.5209L151.58 55.2251L151.475 213.744Z" fill="#070A0E"/>
<path d="M185.193 55.2253L168.117 65.253L151.58 55.2253" fill="#070A0E"/>
<path d="M168.113 65.4874L168.012 65.4268L151.475 55.395L151.681 55.0513L168.117 65.0184L185.092 55.0513L185.298 55.3991L168.113 65.4874Z" fill="#21CE99"/>
<path d="M185.177 213.833L184.991 55.3425L168.385 45.7514L151.778 55.3425L151.677 213.744H151.273L151.374 55.1079L168.385 45.2864L185.396 55.1079V55.2252L185.581 213.833H185.177Z" fill="#21CE99"/>
<path d="M168.575 223.739C168.538 223.739 168.506 223.731 168.474 223.711L92.2508 180.042C92.1537 179.985 92.1214 179.864 92.174 179.767C92.2306 179.67 92.3519 179.638 92.4489 179.69L168.571 223.307L244.106 179.694C244.203 179.638 244.324 179.67 244.381 179.767C244.437 179.864 244.405 179.985 244.308 180.042L168.672 223.711C168.643 223.731 168.607 223.739 168.575 223.739Z" fill="#657786"/>
<path d="M252.29 184.841C252.221 184.841 252.152 184.805 252.116 184.74C252.059 184.643 252.092 184.522 252.189 184.465L294.467 159.469C294.564 159.412 294.685 159.445 294.746 159.542C294.803 159.639 294.77 159.76 294.673 159.817L252.391 184.813C252.359 184.833 252.322 184.841 252.29 184.841Z" fill="url(#paint0_linear)"/>
<path d="M75.6812 208.799C75.6084 208.799 75.5397 208.762 75.5033 208.694C75.4507 208.597 75.4831 208.471 75.5801 208.419L102.752 193.215C102.849 193.163 102.974 193.195 103.027 193.292C103.08 193.389 103.047 193.515 102.95 193.567L75.7783 208.77C75.75 208.791 75.7136 208.799 75.6812 208.799Z" fill="url(#paint1_linear)"/>
<path d="M160.269 257.583C160.164 257.583 160.063 257.526 160.007 257.429C159.922 257.284 159.974 257.098 160.12 257.017L193.438 237.932C193.583 237.851 193.769 237.899 193.85 238.045C193.935 238.191 193.882 238.377 193.737 238.457L160.419 257.542C160.375 257.571 160.322 257.583 160.269 257.583Z" fill="url(#paint2_linear)"/>
<path d="M285.785 272.398C285.68 272.398 285.579 272.345 285.523 272.248C285.438 272.103 285.49 271.917 285.632 271.832L336.409 242.456C336.555 242.371 336.741 242.424 336.826 242.565C336.911 242.711 336.858 242.897 336.716 242.978L285.939 272.353C285.891 272.386 285.838 272.398 285.785 272.398Z" fill="url(#paint3_linear)"/>
<path d="M286.129 194.166L336.741 223.169L286.129 252.391L235.704 223.278L286.129 194.166Z" fill="#070A0E"/>
<path d="M286.129 252.593C286.093 252.593 286.061 252.585 286.028 252.565L235.603 223.452C235.542 223.416 235.502 223.351 235.502 223.278C235.502 223.205 235.542 223.141 235.603 223.104L286.028 193.992C286.089 193.955 286.166 193.955 286.231 193.992L336.842 222.995C336.907 223.032 336.943 223.096 336.943 223.169C336.943 223.242 336.907 223.307 336.842 223.343L286.231 252.565C286.198 252.585 286.166 252.593 286.129 252.593ZM236.108 223.278L286.129 252.156L336.337 223.169L286.129 194.396L236.108 223.278Z" fill="#657786"/>
<path d="M269.491 242.784L286.174 252.545L302.841 242.743V9.84163L286.174 0.234436L269.491 9.88207V242.784Z" fill="#070A0E"/>
<path d="M302.841 9.84174L286.174 19.643L269.491 9.88217" fill="#070A0E"/>
<path d="M286.174 19.8775L286.073 19.8169L269.385 10.056L269.592 9.70828L286.174 19.4085L302.74 9.66785L302.942 10.0156L286.174 19.8775Z" fill="#9669ED"/>
<path d="M286.129 252.593C286.093 252.593 286.06 252.585 286.028 252.565L235.602 223.452C235.505 223.396 235.473 223.274 235.53 223.177C235.586 223.08 235.707 223.048 235.805 223.105L286.129 252.161L336.64 222.999C336.737 222.943 336.858 222.975 336.915 223.072C336.971 223.169 336.939 223.291 336.842 223.347L286.23 252.569C286.198 252.585 286.165 252.593 286.129 252.593Z" fill="#657786"/>
<path d="M269.693 242.784H269.289V9.76489L286.174 0L303.043 9.72445V242.743H302.639V9.95897L286.174 0.464995L269.693 9.99941V242.784Z" fill="#9669ED"/>
<path d="M118.225 232.982L67.6135 261.986L118.225 291.208L168.651 262.095L118.225 232.982Z" fill="#070A0E"/>
<path d="M118.226 291.41C118.19 291.41 118.157 291.402 118.125 291.382L67.5132 262.16C67.4525 262.124 67.4121 262.059 67.4121 261.986C67.4121 261.913 67.4525 261.849 67.5132 261.812L118.125 232.809C118.185 232.772 118.262 232.772 118.327 232.809L168.753 261.922C168.813 261.958 168.854 262.023 168.854 262.095C168.854 262.168 168.813 262.233 168.753 262.269L118.327 291.382C118.295 291.402 118.262 291.41 118.226 291.41ZM68.0186 261.986L118.226 290.974L168.247 262.095L118.226 233.217L68.0186 261.986Z" fill="#657786"/>
<path d="M134.772 281.658L117.988 291.362L101.155 281.35V136.021L117.964 126.39L134.772 136.086V281.658Z" fill="#070A0E"/>
<path d="M101.155 136.021L117.987 145.475L134.772 136.086" fill="#070A0E"/>
<path d="M117.987 145.705L101.053 136.195L101.252 135.843L117.987 145.24L134.671 135.908L134.869 136.264L117.987 145.705Z" fill="#9669ED"/>
<path d="M117.984 291.596L117.883 291.536L100.949 281.467V135.904L117.959 126.159L134.97 135.973V281.779L117.984 291.596ZM101.357 281.237L117.988 291.127L134.566 281.54V136.203L117.959 126.624L101.353 136.138V281.237H101.357Z" fill="#9669ED"/>
<path d="M118.226 291.41C118.19 291.41 118.157 291.402 118.125 291.382L67.5135 262.16C67.4164 262.103 67.3841 261.982 67.4407 261.885C67.4973 261.788 67.6186 261.756 67.7157 261.812L118.226 290.973L168.551 261.917C168.648 261.861 168.769 261.893 168.826 261.99C168.882 262.087 168.85 262.209 168.753 262.265L118.327 291.378C118.295 291.402 118.263 291.41 118.226 291.41Z" fill="#657786"/>
<path d="M227.391 286.554L193.515 305.963L227.391 325.371L261.008 305.963L227.391 286.554Z" fill="#070A0E"/>
<path d="M227.391 325.573C227.354 325.573 227.322 325.565 227.289 325.545L193.414 306.136C193.349 306.1 193.312 306.035 193.312 305.962C193.312 305.89 193.353 305.825 193.414 305.789L227.289 286.38C227.35 286.344 227.427 286.344 227.492 286.38L261.109 305.789C261.169 305.825 261.21 305.89 261.21 305.962C261.21 306.035 261.169 306.1 261.109 306.136L227.492 325.545C227.459 325.565 227.427 325.573 227.391 325.573ZM193.919 305.962L227.387 325.136L260.599 305.962L227.387 286.788L193.919 305.962Z" fill="#657786"/>
<path d="M210.638 315.658L227.293 325.37L244.183 315.65V121.581L227.293 111.877L210.638 121.581V315.658Z" fill="#070A0E"/>
<path d="M227.293 131.521L210.537 121.756L210.739 121.408L227.293 131.052L244.081 121.404L244.283 121.756L227.293 131.521Z" fill="#21CE99"/>
<path d="M210.84 315.659H210.436V121.465L210.537 121.408L227.293 111.643L244.385 121.465V315.651H243.98V121.699L227.293 112.112L210.84 121.699V315.659Z" fill="#21CE99"/>
<path d="M227.391 325.573C227.354 325.573 227.322 325.565 227.29 325.545L193.414 306.136C193.317 306.08 193.284 305.958 193.337 305.861C193.393 305.764 193.515 305.732 193.612 305.788L227.387 325.14L260.903 305.788C261 305.732 261.121 305.764 261.178 305.861C261.234 305.958 261.202 306.08 261.105 306.136L227.488 325.545C227.459 325.565 227.427 325.573 227.391 325.573Z" fill="#657786"/>
</g>
<defs>
<linearGradient id="paint0_linear" x1="294.771" y1="172.14" x2="252.086" y2="172.14" gradientUnits="userSpaceOnUse">
<stop offset="0.00059375" stop-color="#070A0E" stop-opacity="0"/>
<stop offset="1" stop-color="#9669ED"/>
</linearGradient>
<linearGradient id="paint1_linear" x1="103.055" y1="200.994" x2="75.4789" y2="200.994" gradientUnits="userSpaceOnUse">
<stop offset="0.00059375" stop-color="#070A0E" stop-opacity="0"/>
<stop offset="1" stop-color="#9669ED"/>
</linearGradient>
<linearGradient id="paint2_linear" x1="159.966" y1="247.736" x2="193.891" y2="247.736" gradientUnits="userSpaceOnUse">
<stop stop-color="#070A0E" stop-opacity="0"/>
<stop offset="1" stop-color="#40DCAF"/>
</linearGradient>
<linearGradient id="paint3_linear" x1="285.484" y1="257.409" x2="336.866" y2="257.409" gradientUnits="userSpaceOnUse">
<stop stop-color="#070A0E" stop-opacity="0"/>
<stop offset="1" stop-color="#40DCAF"/>
</linearGradient>
<clipPath id="clip0">
<rect width="420" height="340" fill="white"/>
</clipPath>
</defs>
</svg>
