<svg width="65" height="64" viewBox="0 0 65 64" fill="none" xmlns="http://www.w3.org/2000/svg">
<g clip-path="url(#clip0)">
<path d="M32.1421 64C49.8152 64 64.1421 49.6731 64.1421 32C64.1421 14.3269 49.8152 0 32.1421 0C14.469 0 0.14209 14.3269 0.14209 32C0.14209 49.6731 14.469 64 32.1421 64Z" fill="url(#paint0_linear)"/>
<path d="M53.2861 20.0019C54.5347 37.1672 43.0736 45.3207 32.7969 46.2122C23.2561 47.0396 14.2922 41.4349 13.5237 32.7405C12.8834 25.5752 17.4938 22.4861 21.1108 22.1989C24.8252 21.8811 27.9307 24.3331 28.2185 27.3268C28.4749 30.1929 26.618 31.5304 25.3053 31.6259C24.2811 31.7214 23.0004 31.1158 22.8722 29.8423C22.7761 28.7278 23.2241 28.6002 23.0959 27.4223C22.9043 25.3201 21.0153 25.0971 19.9911 25.1926C18.7418 25.2881 16.4689 26.7218 16.7574 30.2249C17.0779 33.7595 20.5993 36.5628 25.2092 36.1481C30.2036 35.702 33.693 31.9765 33.9494 26.7218C33.9494 26.4346 34.0135 26.1802 34.141 25.9251C34.2051 25.8296 34.2372 25.7341 34.3333 25.6386C34.4615 25.4477 34.5897 25.2881 34.7493 25.1291L35.198 24.6831C37.3747 22.7084 45.2509 17.9953 52.6458 19.4604C52.7099 19.4604 52.774 19.4924 52.806 19.5238C53.0938 19.5238 53.2541 19.7469 53.2861 20.0013" fill="white"/>
</g>
<defs>
<linearGradient id="paint0_linear" x1="62.3405" y1="1.9872" x2="0.117771" y2="63.8074" gradientUnits="userSpaceOnUse">
<stop stop-color="#11C4D1"/>
<stop offset="1" stop-color="#0062AD"/>
</linearGradient>
<clipPath id="clip0">
<rect x="0.14209" width="64" height="64" fill="white"/>
</clipPath>
</defs>
</svg>
