<svg width="64" height="64" viewBox="0 0 64 64" fill="none" xmlns="http://www.w3.org/2000/svg">
<path d="M32 64C49.6731 64 64 49.6731 64 32C64 14.3269 49.6731 0 32 0C14.3269 0 0 14.3269 0 32C0 49.6731 14.3269 64 32 64Z" fill="#08CCC5"/>
<path d="M42.2041 35.2956H34.4107C34.7464 37.5008 38.4963 37.5979 40.9448 36.8767V36.9322L41.1268 36.8212L42.2041 38.9015C40.665 39.6227 39.4197 39.8862 38.1045 39.9695C37.7407 40.0111 37.3909 40.0388 37.0831 40.0388C36.8732 40.0388 36.6633 40.0249 36.4535 40.0249C34.6904 39.9279 33.2912 39.4008 32.2698 38.4716C29.8212 36.2387 30.0311 31.7868 32.3818 29.5539C34.6625 27.3626 38.6922 27.2933 41.0708 29.3042C42.1621 30.2335 42.8478 31.6897 42.8478 33.4372V33.7978C42.8478 34.3941 42.8197 35.2956 42.2041 35.2956ZM39.5317 32.7437C39.1959 31.1211 37.9087 30.5108 36.8453 30.5802C35.6559 30.6496 34.4806 31.5233 34.2847 32.7437H39.5317Z" fill="white"/>
<path d="M14.5668 24.0616C15.5183 24.0616 16.2878 24.8244 16.2878 25.7537C16.2878 26.6828 15.5183 27.4317 14.5668 27.4317C13.6153 27.4317 12.8458 26.6828 12.8458 25.7537C12.8458 24.8244 13.6153 24.0616 14.5668 24.0616Z" fill="white"/>
<path d="M29.5622 39.8028V35.878V33.007C29.5622 27.9865 24.5203 26.8075 20.3136 28.4858C19.8938 28.1807 19.3062 27.9865 18.6065 27.9865H17.5851V30.164V31.0932V32.8546V33.9502V35.878V37.9029C17.5851 38.9521 18.4358 39.8028 19.4852 39.8028H19.9917H21.0272V35.878V35.864V33.2012C21.0272 29.6231 26.1202 29.5953 26.1202 33.4231V35.878V37.9029C26.1202 38.9521 26.9709 39.8028 28.0203 39.8028H28.6388H29.5622Z" fill="white"/>
<path d="M55.8538 39.8032V33.008C55.8591 28.0566 50.892 26.8079 46.5998 28.4862C46.1801 28.1811 45.5925 27.9869 44.9069 27.9869H43.8715V30.1643V31.0936V32.8549V33.9506V37.9032C43.8715 38.9526 44.7222 39.8032 45.7715 39.8032H46.292H47.3135V35.8784V35.8645V33.2017C47.3275 29.6234 52.4066 29.5958 52.4066 33.4235V35.8784V37.9032C52.4066 38.9526 53.2572 39.8032 54.3066 39.8032H54.9251H55.8538Z" fill="white"/>
<path d="M16.2878 39.8033V31.429C16.2878 29.5281 14.7468 27.9869 12.8458 27.9869V36.3613C12.8458 38.2622 14.3869 39.8033 16.2878 39.8033Z" fill="white"/>
<path fill-rule="evenodd" clip-rule="evenodd" d="M8.14636 24.0616C10.0473 24.0616 11.5884 25.6026 11.5884 27.5037V39.8028C9.70412 39.8028 8.14636 38.2753 8.14636 36.3911V24.0616Z" fill="white"/>
</svg>
