<svg width="150" height="36" viewBox="0 0 150 36" fill="none" xmlns="http://www.w3.org/2000/svg">
<path d="M30.9798 11.3458L12.2015 0.503906L9.85419 1.86012V4.56994L7.5069 3.21372L5.15961 4.56994V7.27975L2.81232 5.92354L0.465027 7.27975V28.9635L2.81232 30.3197L5.15961 28.9635V31.6733L7.5069 33.0295L9.85419 31.6733V34.3831L12.2015 35.7394L30.9798 24.8975V22.1877L28.6325 20.8314L30.9798 19.4752V16.7654L28.6325 15.4092L30.9798 14.053V11.3458ZM5.15961 26.2537L2.81232 27.6099V8.63597L5.15961 9.99218V26.2537ZM12.2015 27.6073V24.8975L21.5906 19.4778L23.9379 20.8341L12.2015 27.6073ZM19.2434 18.1216L12.2015 22.1877V14.0556L19.2434 18.1216ZM21.5906 16.7654L12.2015 11.3458V8.63597L23.9379 15.4118L21.5906 16.7654ZM7.5069 5.92354L9.85419 7.27975V9.98957L7.5069 8.63336V5.92354ZM7.5069 11.3458L9.85419 12.702V23.5439L7.5069 24.9001V11.3458ZM7.5069 27.6073L9.85419 26.2511V28.9609L7.5069 30.3171V27.6073ZM28.6325 23.5413L12.2015 33.0269V30.3171L26.2852 22.1851L28.6325 23.5413ZM28.6325 18.1216L26.2852 19.4778L23.9379 18.1216L26.2852 16.7654L28.6325 18.1216ZM26.2852 14.0556L12.2015 5.92354V3.21372L28.6325 12.6994L26.2852 14.0556Z" fill="#F9FAFB"/>
<path d="M40.7295 27.6076H38.0197V8.63623H46.2874C50.0822 8.63623 52.3851 10.9392 52.3851 14.3271C52.3851 17.715 50.0822 20.018 46.2874 20.018H40.7321V27.6076H40.7295ZM49.6753 14.3271C49.6753 12.431 48.5903 10.9392 46.2874 10.9392H40.7321V17.715H46.2874C48.5903 17.715 49.6753 16.2232 49.6753 14.3271ZM53.3893 17.1725C53.6605 14.9218 55.5566 13.1065 59.3801 13.1065C61.7117 13.1065 63.6886 13.7299 64.6928 15.4095C65.1257 16.1423 65.3709 17.1178 65.3709 18.2549V27.605H62.768V25.8419C61.9543 26.9268 60.3294 28.0092 58.0239 28.0092C55.1497 28.0092 52.7112 26.5174 52.7112 23.4007C52.7112 20.9621 54.3647 19.2277 57.8882 18.9278L62.768 18.5209V18.2497C62.768 16.3536 61.9543 15.133 59.3801 15.133C57.3197 15.133 56.2086 15.9467 56.073 17.1647H53.3893V17.1725ZM62.7654 21.5098V20.4248L58.1569 20.8317C56.2582 20.9934 55.3114 21.9167 55.3114 23.4059C55.3114 25.3046 56.6676 25.9801 58.2925 25.9801C60.7337 25.9827 62.7654 24.3553 62.7654 21.5098ZM73.3908 15.6833C71.4947 15.6833 70.2741 16.7683 70.2741 19.2069V27.6102H67.6712V13.5134H70.2741V15.1408C70.9522 13.9202 72.0346 13.2421 74.0689 13.2421H74.8018V15.6807H73.3908V15.6833ZM75.5868 17.1725C75.8581 14.9218 77.7541 13.1065 81.5776 13.1065C83.9093 13.1065 85.8862 13.7299 86.8903 15.4095C87.3233 16.1423 87.5684 17.1178 87.5684 18.2549V27.605H84.9655V25.8419C84.1518 26.9268 82.527 28.0092 80.2214 28.0092C77.3473 28.0092 74.9087 26.5174 74.9087 23.4007C74.9087 20.9621 76.5622 19.2277 80.0858 18.9278L84.9655 18.5209V18.2497C84.9655 16.3536 84.1518 15.133 81.5776 15.133C79.5172 15.133 78.4062 15.9467 78.2705 17.1647H75.5868V17.1725ZM84.9655 21.5098V20.4248L80.357 20.8317C78.4583 20.9934 77.5116 21.9167 77.5116 23.4059C77.5116 25.3046 78.8678 25.9801 80.4926 25.9801C82.9312 25.9827 84.9655 24.3553 84.9655 21.5098ZM100.361 25.7115C99.5474 27.0677 97.9226 28.0144 95.7526 28.0144C91.5249 28.0144 89.222 24.6265 89.222 20.5605C89.222 16.4944 91.5249 13.1065 95.7526 13.1065C97.92 13.1065 99.5474 14.0559 100.361 15.4095V8.63623H102.961V27.6102H100.359V25.7115H100.361ZM96.1595 15.2765C93.3141 15.2765 91.8222 17.5794 91.8222 20.5605C91.8222 23.5415 93.3141 25.8471 96.1595 25.8471C99.005 25.8471 100.497 23.4085 100.497 20.5605C100.497 17.715 99.005 15.2765 96.1595 15.2765ZM112.992 25.4402V27.6076H104.644V25.4402H107.518V15.6833H104.644V13.516H110.118V25.4428H112.992V25.4402ZM110.118 11.346H107.515V8.63623H110.118V11.346ZM123.941 25.4402C123.399 26.254 121.909 27.4719 119.468 27.4719C115.512 27.4719 112.937 24.2196 112.937 20.2892C112.937 16.3588 115.512 13.1065 119.468 13.1065C121.907 13.1065 123.399 14.3271 123.941 15.1382V13.5108H126.544V26.1131C126.544 30.586 123.97 32.889 119.875 32.889C116.73 32.889 114.427 31.2615 113.884 28.8229H116.594C116.839 29.7984 117.841 30.8546 119.872 30.8546C122.853 30.8546 123.938 28.9586 123.938 26.1105V25.4402H123.941ZM119.742 15.2765C117.168 15.2765 115.54 17.5794 115.54 20.2918C115.54 23.0017 117.165 25.3072 119.742 25.3072C122.452 25.3072 124.079 23.0043 124.079 20.2918C124.077 17.5794 122.452 15.2765 119.742 15.2765ZM131.531 15.1408C132.344 13.649 133.969 13.1091 135.597 13.1091C137.493 13.1091 139.256 13.9229 140.07 15.5477C140.883 14.0559 142.372 13.1091 144.814 13.1091C147.795 13.1091 149.965 14.8722 149.965 18.3931V27.6076H147.362V18.8C147.362 16.497 146.412 15.2765 144.271 15.2765C142.508 15.2765 140.748 16.3614 140.748 19.2069V27.6102H138.145V18.8026C138.145 16.4997 137.195 15.2791 135.054 15.2791C133.291 15.2791 131.531 16.364 131.531 19.2095V27.6128H128.928V13.5134H131.531V15.1408Z" fill="#F9FAFB"/>
</svg>
